<svg width="310" height="44" viewBox="0 0 310 44" fill="none" xmlns="http://www.w3.org/2000/svg">
<path d="M8.7141 33.1158C10.4172 34.4801 12.084 35.8817 13.7192 37.2459L16.0156 39.1521C17.3201 40.2323 20.7353 42.8674 21.451 43.428C22.298 42.916 26.4787 40.3968 28.304 39.354C29.3902 38.7473 30.4061 38.0592 31.3388 37.2983C33.3227 35.6462 35.3156 33.9979 37.3177 32.3533L40.0353 30.1107C41.213 29.1389 41.4395 28.1372 40.6378 27.4345C40.5074 27.305 40.3459 27.1993 40.1635 27.124C39.981 27.0487 39.7816 27.0056 39.5779 26.9972C38.98 26.9972 38.2688 27.3187 37.4535 27.9802L36.6881 28.6119C36.1581 29.0492 35.5783 29.5239 35.1616 29.8566C34.9771 30.0351 34.7189 30.151 34.4369 30.1817C34.3501 30.1791 34.2649 30.1614 34.1869 30.1299C34.1089 30.0983 34.0397 30.0536 33.984 29.9986C33.5673 29.6248 33.9387 29.281 34.138 29.0941L34.1923 29.0417C34.3092 28.9304 34.4331 28.8244 34.5637 28.724L34.6906 28.6194L35.8093 27.7037C36.7152 26.9561 37.7525 26.1189 38.527 25.4386C38.775 25.2435 38.9581 24.999 39.0588 24.7288C39.1595 24.4585 39.1745 24.1714 39.1023 23.895C39.0068 23.634 38.8317 23.3976 38.5938 23.2085C38.3558 23.0193 38.063 22.8838 37.7434 22.8148C36.9644 22.613 36.3846 22.9979 35.7776 23.4838C34.985 24.108 34.0564 24.878 33.1596 25.6255C32.6523 26.0479 32.1586 26.4628 31.7057 26.8253L31.6468 26.8739C31.4203 27.0645 30.9447 27.4607 30.4691 27.0757C30.4035 27.0295 30.3505 26.9723 30.3138 26.9078C30.2771 26.8433 30.2575 26.7732 30.2562 26.702C30.2765 26.5957 30.3232 26.494 30.3934 26.4033C30.4635 26.3127 30.5556 26.2349 30.6639 26.175L30.7862 26.0815C32.4349 24.7061 34.4732 23.0241 36.2351 21.5589C36.503 21.362 36.721 21.1231 36.8765 20.8563C37.032 20.5894 37.1219 20.2998 37.141 20.0041C37.1415 19.8137 37.0947 19.6253 37.0035 19.4505C36.9124 19.2756 36.7788 19.1181 36.6111 18.9874C35.8093 18.3408 34.7359 18.4567 33.6714 19.3089L33.4087 19.5256L32.0861 20.617C30.7273 21.7383 29.2416 22.968 28.0096 23.9809L27.9371 24.0445C27.7605 24.1977 27.3936 24.5154 26.9542 24.2202C26.8818 24.1763 26.8213 24.1204 26.7768 24.056C26.7323 23.9916 26.7048 23.9202 26.6961 23.8464C26.7086 23.7315 26.7487 23.6198 26.814 23.5177C26.8793 23.4157 26.9686 23.3254 27.0765 23.2521L28.7932 21.828L29.5179 21.23C29.8848 20.9235 30.2517 20.6208 30.6231 20.318C31.4837 19.6116 32.376 18.879 33.2276 18.1427C33.5248 17.8937 33.7088 17.5677 33.7484 17.2197C33.788 16.8717 33.6808 16.5231 33.445 16.2328C33.0645 15.6983 32.4938 15.5151 31.5109 15.6123C31.1193 15.6845 30.7712 15.8685 30.528 16.1318L30.3468 16.2776C29.3458 17.0737 28.3539 17.9072 27.3936 18.7108C25.8355 20.0153 24.223 21.3608 22.5335 22.6055C21.2879 23.5698 19.2496 24.5977 16.8309 23.9959L16.7313 23.9735C16.4278 23.9174 15.7212 23.5997 15.7937 23.1587C15.8435 22.8484 16.1243 22.684 16.618 22.6615C16.7947 22.6615 17.1933 22.6615 17.5964 22.6615C17.9995 22.6615 18.4615 22.6615 18.6427 22.6615C19.7298 22.6092 20.1148 22.3924 20.9527 21.8617C21.0225 21.8293 21.083 21.7848 21.13 21.7312C21.1769 21.6777 21.2091 21.6163 21.2245 21.5515C21.2245 21.4431 21.1384 21.3048 20.9346 21.1403C20.7308 20.9759 20.5224 20.8077 20.3322 20.6507C19.7733 20.1659 19.1673 19.7197 18.5204 19.3163C18.0965 19.0152 17.5692 18.8309 17.0121 18.7893C16.5078 18.8161 16.0369 19.007 15.7031 19.3201L15.2501 19.6938C14.6613 20.1536 14.077 20.6133 13.4791 21.0656C13.0579 21.3907 12.6593 21.7496 12.2743 22.1009L11.9844 22.3625C11.5918 22.7243 11.2938 23.1491 11.1091 23.6102C10.9244 24.0713 10.8569 24.5588 10.9109 25.0424C11.0604 27.7373 10.2949 29.9238 8.57369 31.7254C8.03468 32.2748 8.06639 32.5925 8.7141 33.1158Z" fill="#41826C"/>
<path d="M40.9277 36.7264C39.3632 36.4812 37.8198 36.1516 36.3076 35.7397C35.4833 35.5192 36.3982 34.8277 36.7108 34.5661C38.3595 33.1906 41.7656 30.5892 41.9831 30.3836C43.3419 29.0904 42.5492 26.8889 40.6604 26.1638C39.8451 25.8461 39.7546 25.562 40.0897 24.9117C40.2495 24.6285 40.3348 24.3207 40.34 24.0084C40.3453 23.6961 40.2704 23.3864 40.1202 23.0998C39.97 22.8131 39.748 22.5559 39.4687 22.3451C39.1895 22.1343 38.8593 21.9746 38.4999 21.8767C37.7525 21.6375 37.7389 21.3534 38.0017 20.8152C38.7581 19.2379 37.7661 17.7877 35.7369 17.4737C35.1753 17.3877 34.9397 17.2008 34.899 16.7262C34.8685 16.2245 34.6512 15.7428 34.2767 15.3468C33.9021 14.9508 33.3887 14.6598 32.8064 14.5135C31.5653 14.121 30.5824 14.4798 29.7082 15.1862C27.6292 16.8495 25.5819 18.5165 23.5164 20.1835C23.2084 20.4302 22.9321 20.9086 22.3705 20.5573C21.8088 20.2059 21.3694 19.9069 21.6004 19.2528C22.144 17.7166 22.6377 16.1655 23.1812 14.6293C23.9739 12.3867 24.83 10.1441 25.5909 7.87537C25.8672 7.0643 26.3337 6.89236 27.2713 7.12784C32.4802 8.37996 37.6891 9.60217 42.9116 10.8281C44.8109 11.2766 46.7118 11.7189 48.6142 12.155C50.5075 12.5923 51.4451 13.6202 51.0058 15.1788C50.3535 17.4886 49.502 19.7574 48.741 22.0449C47.2825 26.2647 45.8195 30.4883 44.3882 34.723C43.967 36.0125 42.9207 36.7339 40.9277 36.7264Z" fill="#41826C"/>
<path d="M11.0425 43.9999L7.64091 41.3349C7.64091 41.3349 3.62328 37.9411 1.57143 36.2891C0.946367 35.7882 0.869366 35.4257 1.54426 34.9174C2.51809 34.1698 3.43757 33.3924 4.35252 32.6037C4.80547 32.23 5.14065 32.144 5.63889 32.5552C9.89205 36.091 19.7753 43.9999 19.7753 43.9999H11.0425Z" fill="#41826C"/>
<path d="M17.1663 17.6307C16.5569 17.658 15.9578 17.7718 15.3953 17.9671C15.1597 18.0382 14.888 18.1989 14.657 17.9933C14.426 17.7877 14.657 17.6195 14.7023 17.4513L17.9454 8.31648C18.7743 5.99539 20.0063 5.43101 22.81 6.07389C25.034 6.59342 25.0747 6.6009 24.4316 8.42488C23.3218 11.6654 22.1668 14.8948 21.0481 18.1428C20.7627 18.9539 20.5498 19.0062 19.7889 18.4829C19.0769 17.9352 18.1397 17.6307 17.1663 17.6307V17.6307Z" fill="#41826C"/>
<path d="M55.4767 31.325C55.4864 31.446 55.4507 31.5665 55.3745 31.6701C55.2984 31.7737 55.1854 31.8555 55.0509 31.9044C54.079 32.2759 53.2932 32.9139 52.827 33.7097C52.779 33.8196 52.691 33.9147 52.5751 33.9819C52.4591 34.0491 52.3209 34.0852 52.1793 34.0852C52.0376 34.0852 51.8994 34.0491 51.7835 33.9819C51.6675 33.9147 51.5796 33.8196 51.5315 33.7097C51.0252 32.937 50.255 32.3041 49.3166 31.8894C48.6825 31.5755 48.6961 31.0223 49.38 30.7681C50.2868 30.4071 51.024 29.8093 51.4772 29.0675C51.9301 28.4695 52.4284 28.4732 52.836 29.0675C53.3197 29.7661 54.0221 30.3444 54.8698 30.742C55.0194 30.7929 55.1524 30.8722 55.2579 30.9735C55.3633 31.0748 55.4383 31.1953 55.4767 31.325Z" fill="#41826C"/>
<path d="M3.3378 11.9607C3.15358 11.9581 2.97441 11.9106 2.82287 11.8241C2.67133 11.7377 2.5542 11.6161 2.48626 11.4748C2.06779 10.8595 1.41273 10.3768 0.624645 10.1031C-0.195189 9.76667 -0.208778 9.31815 0.588409 8.98176C1.40003 8.63757 2.08625 8.12162 2.57685 7.48669C3.08868 6.85129 3.63674 6.8625 4.10781 7.52781C4.50726 8.14751 5.14443 8.64043 5.9196 8.92943C6.78472 9.24713 6.79831 9.75919 5.96036 10.0918C5.15245 10.3902 4.48904 10.9035 4.0761 11.5495C4.00637 11.6647 3.90177 11.7631 3.77241 11.8352C3.64306 11.9072 3.49335 11.9504 3.3378 11.9607Z" fill="#41826C"/>
<path d="M43.2693 43.357C42.5944 43.3122 40.3252 43.357 40.4792 42.5796C40.5788 42.1161 41.0499 42.075 41.53 42.1086C43.1979 42.4184 44.9455 42.2163 46.446 41.5401C47.9465 40.8639 49.0972 39.7599 49.683 38.4345C49.7419 37.5225 51.3816 37.3132 51.1959 38.3747C50.4213 41.3424 46.8295 43.301 43.2693 43.357Z" fill="#41826C"/>
<path d="M19.3084 0C19.8881 0.067278 20.4724 0.11213 21.0477 0.205572C21.5233 0.2878 21.9536 0.500847 21.8539 0.953105C21.7543 1.40536 21.2877 1.47264 20.7759 1.40536C19.5374 1.18773 18.248 1.28563 17.0784 1.68609C15.9089 2.08656 14.9142 2.77071 14.2263 3.64796C13.9603 4.01665 13.7286 4.40149 13.5333 4.79916C13.3159 5.17293 13.035 5.48316 12.4779 5.27011C11.9208 5.05706 12.025 4.69077 12.1654 4.30205C12.6933 3.07518 13.6574 2.00826 14.9317 1.24074C16.2061 0.473213 17.7314 0.0407949 19.3084 0V0Z" fill="#41826C"/>
<path d="M19.4271 4.00291C18.9695 3.97322 18.5105 4.04404 18.0968 4.20816C17.6831 4.37229 17.3294 4.62386 17.0718 4.93732C16.8815 5.15411 16.723 5.39332 16.5192 5.60263C16.431 5.71887 16.2923 5.80294 16.1315 5.83768C15.9707 5.87241 15.7999 5.85518 15.654 5.78951C15.5079 5.7273 15.391 5.62658 15.3221 5.50335C15.2532 5.38011 15.2361 5.24141 15.2736 5.10925C15.5046 3.61419 18.5891 2.25368 20.256 2.93767C20.6183 3.08718 20.8312 3.31144 20.7089 3.64409C20.5866 3.97674 20.2786 4.05897 19.4271 4.00291Z" fill="#41826C"/>
<path d="M43.7766 40.505C43.5863 40.505 43.3961 40.505 43.2059 40.505C42.7529 40.4788 42.2592 40.4003 42.3 39.907C42.3407 39.4136 42.8027 39.3538 43.2738 39.3687C44.6327 39.4173 45.6337 39.0324 46.1772 37.9559C46.2032 37.8719 46.2517 37.7938 46.3192 37.7274C46.3866 37.6609 46.4713 37.6078 46.5669 37.5719C46.6625 37.5361 46.7667 37.5184 46.8717 37.5201C46.9767 37.5219 47.0799 37.5431 47.1737 37.5821C47.6584 37.7615 47.6266 38.1054 47.4908 38.4605C47.0514 39.6192 45.4434 40.5162 43.7766 40.505Z" fill="#41826C"/>
<path d="M8.60584 5.85691C8.29612 5.84131 8.00529 5.72878 7.79267 5.54229C7.58005 5.3558 7.46167 5.1094 7.46167 4.85335C7.46167 4.5973 7.58005 4.3509 7.79267 4.16441C8.00529 3.97792 8.29612 3.86539 8.60584 3.84979C8.77081 3.83583 8.93748 3.85231 9.09378 3.89803C9.25009 3.94375 9.39212 4.01758 9.5096 4.11416C9.62708 4.21075 9.71707 4.32768 9.77306 4.45649C9.82905 4.5853 9.84963 4.72277 9.83332 4.85896C9.84278 4.99334 9.81737 5.12783 9.75877 5.25346C9.70018 5.37908 9.60976 5.49294 9.49356 5.58741C9.37736 5.68188 9.23806 5.75479 9.08497 5.80127C8.93188 5.84774 8.76853 5.86671 8.60584 5.85691V5.85691Z" fill="#41826C"/>
<path d="M77.0002 15.8106V29.2139H72.652V15.8106H65.8713V13.2354H83.7446V15.8106H77.0002Z" fill="#41826C"/>
<path d="M101.355 29.2139V22.359H92.2552V29.2139H87.9023V13.2354H92.2552V19.5894H101.355V13.2354H105.708V29.2139H101.355Z" fill="#41826C"/>
<path d="M111.619 29.2139V13.2354H128.034V15.8106H115.954V19.8398H127.101V22.4263H115.954V26.6498H128.637V29.2251L111.619 29.2139Z" fill="#41826C"/>
<path d="M162.123 21.0994C162.167 22.6067 161.724 24.0964 160.841 25.4164C160.008 26.6312 158.756 27.6146 157.245 28.2421C155.604 28.9131 153.791 29.249 151.959 29.2213H143.516V13.2354H151.049C154.555 13.2354 157.272 13.9119 159.202 15.2649C161.131 16.6179 162.105 18.5628 162.123 21.0994ZM157.698 21.0994C157.698 19.3826 157.12 18.0719 155.963 17.1674C154.807 16.2629 153.146 15.8106 150.981 15.8106H147.878V26.6498H151.57C152.402 26.6818 153.233 26.5648 154.006 26.3067C154.778 26.0486 155.474 25.6557 156.045 25.1548C157.15 24.1481 157.701 22.7963 157.698 21.0994Z" fill="#41826C"/>
<path d="M175.897 29.4381C173.022 29.4381 170.822 28.9011 169.297 27.8272C167.772 26.7532 167.017 25.2195 167.032 23.2261V13.2354H171.381V22.972C171.381 24.2428 171.776 25.1996 172.567 25.8425C173.359 26.4854 174.511 26.8068 176.023 26.8068C177.582 26.8068 178.782 26.4667 179.624 25.7864C180.467 25.1062 180.887 24.1319 180.884 22.8636V13.2354H185.254V23.0579C185.254 25.0912 184.438 26.6623 182.804 27.7711C181.17 28.88 178.868 29.4356 175.897 29.4381Z" fill="#41826C"/>
<path d="M205.388 29.2139L197.891 21.8806L195.296 23.3943V29.2139H190.948V13.2354H195.296V20.4827L204.69 13.2354H209.808L200.89 20.008L210.538 29.2139H205.388Z" fill="#41826C"/>
<path d="M214.664 29.2139V13.2354H231.075V15.8106H219.013V19.8398H230.16V22.4263H219.013V26.6498H231.659V29.2251L214.664 29.2139Z" fill="#41826C"/>
<path d="M260.897 29.2139L256.028 23.1402H250.932V29.2139H246.584V13.2354H257.002C259.484 13.2354 261.403 13.6465 262.759 14.4688C263.424 14.8716 263.958 15.4046 264.313 16.0198C264.667 16.635 264.83 17.3132 264.788 17.9934C264.813 19.0518 264.371 20.0816 263.543 20.8901C262.672 21.7214 261.488 22.2873 260.182 22.4973L265.807 29.2251L260.897 29.2139ZM260.385 18.1317C260.385 16.6042 259.095 15.8393 256.513 15.8368H250.932V20.5574H256.671C257.879 20.5574 258.805 20.3481 259.448 19.9295C259.764 19.7115 260.012 19.435 260.174 19.1226C260.335 18.8101 260.404 18.4706 260.376 18.1317H260.385Z" fill="#41826C"/>
<path d="M270.273 29.2139V13.2354H286.687V15.8106H274.626V19.8398H285.773V22.4263H274.626V26.6498H287.272V29.2251L270.273 29.2139Z" fill="#41826C"/>
<path d="M302.567 22.6655V29.2139H298.214V22.6655L290.791 13.2354H295.361L300.348 20.008L305.43 13.2354H310L302.567 22.6655Z" fill="#41826C"/>
<path d="M79.4236 37.3768C79.4276 37.7717 79.2991 38.1598 79.0521 38.4981C78.79 38.8295 78.4149 39.0896 77.9741 39.2456C77.4521 39.4343 76.8862 39.5262 76.3164 39.5147H74.1966V41.862H72.421V35.3248H76.2439C77.0844 35.2832 77.917 35.4797 78.6037 35.8817C78.8692 36.063 79.0811 36.2919 79.2232 36.551C79.3652 36.8101 79.4338 37.0925 79.4236 37.3768V37.3768ZM77.6118 37.3992C77.6118 36.714 77.0849 36.3714 76.031 36.3714H74.1785V38.4981H76.0944C76.5004 38.5196 76.9022 38.4201 77.2268 38.2178C77.3636 38.118 77.4711 37.9937 77.5409 37.8544C77.6108 37.7152 77.6412 37.5646 77.6299 37.4142L77.6118 37.3992Z" fill="#41826C"/>
<path d="M86.5939 41.862L84.6055 39.3802H82.5174V41.862H80.7373V35.3249H84.995C85.823 35.2832 86.6457 35.4585 87.3458 35.8257C87.6177 35.9909 87.8357 36.2092 87.9804 36.461C88.125 36.7127 88.1918 36.9902 88.1747 37.2684C88.1856 37.7 88.0052 38.12 87.6674 38.4496C87.315 38.7867 86.8371 39.018 86.3085 39.1074L88.605 41.8508L86.5939 41.862ZM86.381 37.3357C86.381 36.7115 85.8556 36.3976 84.8002 36.3976H82.5355V38.3187H84.8772C85.2807 38.3418 85.6817 38.2509 86.0141 38.0608C86.1415 37.9708 86.2412 37.8571 86.305 37.7291C86.3688 37.6011 86.3948 37.4624 86.381 37.3245V37.3357Z" fill="#41826C"/>
<path d="M98.0311 38.5577C98.0474 39.1825 97.8647 39.7998 97.5011 40.348C97.1529 40.8574 96.6275 41.2688 95.9928 41.5291C95.2797 41.8156 94.4937 41.9566 93.7009 41.9403C93.1265 41.971 92.5503 41.9072 92.006 41.7526C91.4617 41.5979 90.9601 41.3555 90.5303 41.0395C90.1421 40.7138 89.8405 40.3249 89.6447 39.8975C89.449 39.4702 89.3634 39.0139 89.3934 38.5577C89.3631 38.106 89.4488 37.6541 89.6447 37.2316C89.8406 36.8091 90.1424 36.4255 90.5303 36.1058C91.439 35.5281 92.5538 35.2148 93.7009 35.2148C94.848 35.2148 95.9628 35.5281 96.8715 36.1058C97.2642 36.4234 97.5707 36.8062 97.7706 37.2289C97.9705 37.6516 98.0593 38.1046 98.0311 38.5577V38.5577ZM96.2193 38.5577C96.2611 37.9584 96.0301 37.3679 95.5716 36.9019C95.072 36.5154 94.4129 36.3002 93.7281 36.3002C93.0433 36.3002 92.3841 36.5154 91.8846 36.9019C91.4186 37.3678 91.184 37.9622 91.2278 38.5652C91.1844 39.1791 91.4238 39.784 91.8982 40.2583C92.1277 40.4636 92.4087 40.6252 92.7216 40.7317C93.0345 40.8382 93.3718 40.8871 93.71 40.8751C94.0532 40.8914 94.3965 40.8461 94.7164 40.7422C95.0363 40.6383 95.325 40.4783 95.5625 40.2733C96.0317 39.7888 96.2629 39.1764 96.2102 38.5577H96.2193Z" fill="#41826C"/>
<path d="M101.214 36.375V38.3971H105.572V39.4511H101.214V41.8619H99.4343V35.3247H105.721V36.375H101.214Z" fill="#41826C"/>
<path d="M107.053 41.8619V35.3247H113.757V36.375H108.829V38.0233H113.358V39.0736H108.829V40.8004H113.997V41.8619H107.053Z" fill="#41826C"/>
<path d="M122.295 39.9633C122.313 40.2521 122.239 40.5398 122.08 40.7976C121.921 41.0554 121.683 41.2742 121.389 41.4322C120.56 41.8115 119.617 41.9878 118.671 41.9405C117.778 41.9802 116.887 41.8241 116.09 41.4882C115.786 41.3455 115.523 41.1516 115.317 40.919C115.111 40.6865 114.967 40.4207 114.894 40.1389L116.61 39.9221C116.659 40.0784 116.745 40.225 116.863 40.3534C116.981 40.4818 117.13 40.5893 117.299 40.6697C117.739 40.8486 118.227 40.931 118.717 40.9089C119.958 40.9089 120.583 40.6173 120.583 40.0305C120.586 39.9458 120.568 39.8615 120.53 39.7825C120.493 39.7036 120.437 39.6316 120.365 39.5708C120.191 39.4356 119.984 39.3324 119.758 39.268C119.27 39.1431 118.772 39.0457 118.268 38.9765C117.63 38.8644 117.186 38.7709 116.932 38.7037C116.695 38.6425 116.467 38.5598 116.253 38.457C116.06 38.368 115.886 38.2544 115.736 38.1206C115.589 37.987 115.478 37.829 115.41 37.6571C115.33 37.457 115.292 37.2473 115.297 37.0367C115.285 36.7678 115.359 36.5012 115.51 36.2631C115.662 36.0251 115.887 35.824 116.162 35.6799C116.928 35.3325 117.799 35.173 118.671 35.2201C119.491 35.1768 120.311 35.3053 121.054 35.5939C121.326 35.7304 121.558 35.9142 121.735 36.1324C121.911 36.3505 122.028 36.5979 122.078 36.8572L120.343 37.0292C120.271 36.7682 120.08 36.5404 119.808 36.3938C119.45 36.2341 119.046 36.1603 118.64 36.1807C117.557 36.1807 117.014 36.4424 117.014 36.9582C117.008 37.1103 117.069 37.2589 117.186 37.3768C117.327 37.5008 117.5 37.5966 117.693 37.6571C118.144 37.7815 118.606 37.8764 119.075 37.9412C119.67 38.0258 120.257 38.1508 120.827 38.3149C121.132 38.4065 121.416 38.5405 121.665 38.7111C121.862 38.8585 122.016 39.0397 122.118 39.2419C122.237 39.4696 122.298 39.7153 122.295 39.9633V39.9633Z" fill="#41826C"/>
<path d="M130.629 39.9634C130.647 40.2523 130.573 40.54 130.414 40.7977C130.255 41.0555 130.017 41.2743 129.723 41.4323C128.895 41.8136 127.952 41.99 127.006 41.9406C126.117 41.9803 125.232 41.8269 124.437 41.4959C124.135 41.3521 123.873 41.1578 123.667 40.9254C123.461 40.6931 123.316 40.4278 123.242 40.1466L124.958 39.9298C125.008 40.0857 125.094 40.232 125.212 40.3603C125.33 40.4886 125.478 40.5963 125.647 40.6773C126.087 40.8558 126.575 40.9381 127.065 40.9165C128.312 40.9165 128.934 40.6237 128.931 40.0382C128.933 39.9534 128.916 39.8691 128.878 39.7902C128.841 39.7112 128.785 39.6392 128.713 39.5784C128.54 39.444 128.335 39.3409 128.111 39.2757C127.621 39.1504 127.122 39.053 126.616 38.9841C125.982 38.872 125.534 38.7786 125.257 38.7113C125.02 38.6501 124.793 38.5674 124.578 38.4646C124.385 38.3756 124.211 38.2621 124.062 38.1282C123.916 37.9936 123.805 37.8359 123.735 37.6647C123.657 37.4643 123.619 37.2548 123.622 37.0443C123.61 36.7755 123.684 36.5088 123.836 36.2707C123.987 36.0327 124.212 35.8316 124.487 35.6875C125.258 35.3333 126.135 35.1686 127.015 35.2128C127.833 35.1694 128.651 35.298 129.393 35.5866C129.665 35.7225 129.898 35.9061 130.075 36.1244C130.252 36.3427 130.368 36.5904 130.416 36.8499L128.686 37.0219C128.613 36.7604 128.42 36.5326 128.147 36.3865C127.791 36.2269 127.388 36.1531 126.983 36.1734C125.896 36.1734 125.357 36.435 125.357 36.9508C125.349 37.1032 125.411 37.2524 125.529 37.3695C125.67 37.4935 125.844 37.5893 126.036 37.6498C126.48 37.7735 126.934 37.8685 127.395 37.9339C127.993 38.0181 128.58 38.1431 129.153 38.3076C129.456 38.3991 129.738 38.5331 129.986 38.7038C130.182 38.8512 130.337 39.0324 130.439 39.2346C130.564 39.4637 130.629 39.7121 130.629 39.9634V39.9634Z" fill="#41826C"/>
<path d="M132.006 41.8619V35.3247H133.782V41.8619H132.006Z" fill="#41826C"/>
<path d="M143.787 38.5577C143.804 39.1825 143.621 39.7998 143.257 40.348C142.909 40.8574 142.384 41.2688 141.749 41.5291C141.036 41.8164 140.25 41.9574 139.457 41.9403C138.886 41.9683 138.315 41.9031 137.775 41.7486C137.234 41.594 136.736 41.3531 136.309 41.0395C135.921 40.7138 135.619 40.3248 135.424 39.8975C135.228 39.4702 135.142 39.0139 135.172 38.5577C135.142 38.106 135.228 37.6541 135.424 37.2316C135.62 36.8091 135.921 36.4255 136.309 36.1058C137.218 35.5281 138.333 35.2148 139.48 35.2148C140.627 35.2148 141.742 35.5281 142.65 36.1058C143.039 36.425 143.341 36.8086 143.537 37.2312C143.733 37.6538 143.819 38.1059 143.787 38.5577ZM141.976 38.5577C142.017 37.9572 141.783 37.3659 141.319 36.9019C141.085 36.6966 140.8 36.5359 140.483 36.4313C140.166 36.3267 139.825 36.2807 139.484 36.2964C139.142 36.2793 138.798 36.3239 138.478 36.4272C138.158 36.5305 137.87 36.6899 137.632 36.8944C137.166 37.3604 136.931 37.9547 136.975 38.5577C136.932 39.1717 137.171 39.7765 137.645 40.2509C137.875 40.4562 138.156 40.6177 138.469 40.7242C138.782 40.8307 139.119 40.8796 139.457 40.8676C139.8 40.884 140.144 40.8386 140.464 40.7347C140.783 40.6308 141.072 40.4708 141.31 40.2658C141.782 39.7852 142.017 39.1751 141.967 38.5577H141.976Z" fill="#41826C"/>
<path d="M150.378 41.8619L146.664 36.831C146.732 37.3206 146.773 37.7131 146.782 38.0084V41.8619H145.201V35.3247H147.208L150.985 40.3855C150.917 39.922 150.877 39.4997 150.868 39.1184V35.3247H152.448V41.8619H150.378Z" fill="#41826C"/>
<path d="M160.216 41.8619L159.468 40.1912H156.216L155.455 41.8619H153.675L156.783 35.3359H158.889L161.991 41.8619H160.216ZM157.829 36.3302L157.797 36.4311C157.756 36.5469 157.711 36.674 157.657 36.8048C157.602 36.9357 157.254 37.7243 156.619 39.1409H159.065L158.214 37.2721L157.96 36.6441L157.829 36.3302Z" fill="#41826C"/>
<path d="M163.205 41.8619V35.3247H164.98V40.8004H169.55V41.8619H163.205Z" fill="#41826C"/>
<path d="M178.139 40.8675C178.629 40.8905 179.115 40.7816 179.524 40.5571C179.932 40.3327 180.241 40.0048 180.404 39.6229L181.958 40.0789C181.664 40.6685 181.143 41.1622 180.477 41.4842C179.763 41.803 178.96 41.9603 178.148 41.9402C176.775 41.9402 175.718 41.6437 174.978 41.0507C174.592 40.722 174.293 40.3306 174.1 39.9013C173.908 39.4721 173.826 39.0145 173.859 38.5576C173.859 37.4849 174.217 36.6589 174.942 36.0833C175.666 35.5077 176.708 35.2199 178.085 35.2199C178.936 35.1909 179.781 35.351 180.531 35.6834C181.154 35.9888 181.621 36.4711 181.845 37.0401L180.273 37.3765C180.137 37.0453 179.858 36.767 179.489 36.5954C179.07 36.3951 178.592 36.2942 178.108 36.3038C177.77 36.284 177.43 36.3253 177.114 36.4247C176.797 36.5241 176.51 36.6793 176.273 36.8794C175.816 37.3569 175.592 37.9581 175.644 38.5651C175.592 39.1843 175.825 39.7967 176.296 40.2807C176.534 40.4824 176.822 40.6393 177.14 40.7406C177.458 40.8419 177.799 40.8852 178.139 40.8675Z" fill="#41826C"/>
<path d="M183.171 41.8619V35.3247H184.951V40.8004H189.517V41.8619H183.171Z" fill="#41826C"/>
<path d="M190.79 41.8619V35.3247H197.484V36.375H192.565V38.0233H197.117V39.0736H192.565V40.8004H197.733V41.8619H190.79Z" fill="#41826C"/>
<path d="M205.125 41.8619L204.378 40.1912H201.108L200.36 41.8619H198.585L201.687 35.3359H203.794L206.901 41.8619H205.125ZM202.734 36.3302L202.707 36.4311C202.666 36.5469 202.616 36.674 202.562 36.8048C202.507 36.9357 202.163 37.7243 201.524 39.1409H203.975L203.123 37.2721L202.87 36.6441L202.734 36.3302Z" fill="#41826C"/>
<path d="M213.292 41.8619L209.573 36.831C209.646 37.3293 209.686 37.7218 209.695 38.0084V41.8619H208.11V35.3247H210.166L213.944 40.3855C213.876 39.9653 213.835 39.5423 213.822 39.1184V35.3247H215.407V41.8619H213.292Z" fill="#41826C"/>
<path d="M217.115 41.8619V35.3247H218.896V41.8619H217.115Z" fill="#41826C"/>
<path d="M225.793 41.8619L222.075 36.831C222.147 37.3206 222.183 37.7131 222.197 38.0084V41.8619H220.612V35.3247H222.645L226.418 40.3855C226.351 39.922 226.31 39.4997 226.301 39.1184V35.3247H227.881V41.8619H225.793Z" fill="#41826C"/>
<path d="M233.666 40.8678C234.125 40.869 234.582 40.8174 235.024 40.7146C235.388 40.6384 235.73 40.5038 236.03 40.3184V39.4176H233.942V38.4084H237.661V40.8118C237.156 41.1947 236.554 41.4795 235.899 41.6453C235.168 41.8422 234.403 41.9419 233.634 41.9405C232.254 41.9405 231.19 41.6478 230.441 41.0622C230.052 40.7325 229.752 40.3393 229.56 39.9079C229.367 39.4766 229.286 39.0167 229.322 38.558C229.286 38.1031 229.368 37.6472 229.563 37.2206C229.757 36.7939 230.06 36.4064 230.45 36.0836C231.202 35.508 232.262 35.2202 233.679 35.2202C235.681 35.2202 236.956 35.7883 237.502 36.9246L235.858 37.2984C235.691 36.9786 235.397 36.715 235.024 36.5508C234.606 36.3703 234.138 36.2814 233.666 36.2929C233.315 36.273 232.963 36.315 232.633 36.4162C232.304 36.5174 232.004 36.6754 231.754 36.8797C231.329 37.3711 231.102 37.9608 231.106 38.5647C231.11 39.1687 231.345 39.7562 231.777 40.2436C232.02 40.4519 232.315 40.6152 232.64 40.7228C232.966 40.8304 233.315 40.8798 233.666 40.8678V40.8678Z" fill="#41826C"/>
<path d="M249.599 39.9634C249.617 40.2522 249.543 40.5398 249.384 40.7975C249.225 41.0552 248.987 41.2741 248.694 41.4323C247.866 41.8136 246.922 41.99 245.976 41.9406C245.087 41.9803 244.202 41.8269 243.408 41.4959C243.106 41.3521 242.843 41.1578 242.637 40.9254C242.431 40.6931 242.286 40.4278 242.212 40.1466L243.929 39.9298C243.978 40.0857 244.064 40.232 244.182 40.3603C244.301 40.4886 244.448 40.5963 244.617 40.6773C245.057 40.8558 245.545 40.9381 246.035 40.9165C247.282 40.9165 247.904 40.6237 247.901 40.0382C247.904 39.9534 247.886 39.8691 247.848 39.7902C247.811 39.7112 247.755 39.6392 247.684 39.5784C247.511 39.4432 247.306 39.34 247.081 39.2757C246.591 39.1504 246.092 39.053 245.586 38.9841C244.952 38.872 244.504 38.7786 244.228 38.7113C243.991 38.6501 243.763 38.5674 243.548 38.4646C243.356 38.3765 243.183 38.2628 243.036 38.1282C242.889 37.9938 242.777 37.8361 242.706 37.6647C242.628 37.4643 242.589 37.2548 242.592 37.0443C242.58 36.775 242.654 36.5078 242.807 36.2696C242.959 36.0314 243.185 35.8306 243.462 35.6875C244.23 35.3328 245.106 35.168 245.985 35.2128C246.803 35.1694 247.621 35.298 248.363 35.5866C248.635 35.7225 248.868 35.9061 249.045 36.1244C249.222 36.3427 249.338 36.5904 249.387 36.8499L247.656 37.0219C247.583 36.7604 247.39 36.5326 247.117 36.3865C246.761 36.2269 246.358 36.1531 245.953 36.1734C244.866 36.1734 244.327 36.435 244.327 36.9508C244.319 37.1032 244.381 37.2524 244.499 37.3695C244.64 37.4935 244.814 37.5893 245.007 37.6498C245.457 37.7746 245.919 37.8696 246.388 37.9339C246.984 38.0184 247.57 38.1435 248.141 38.3076C248.444 38.3991 248.726 38.5331 248.974 38.7038C249.171 38.8512 249.325 39.0324 249.427 39.2346C249.546 39.4648 249.605 39.7132 249.599 39.9634V39.9634Z" fill="#41826C"/>
<path d="M250.973 41.8619V35.3247H257.677V36.375H252.744V38.0233H257.296V39.0736H252.744V40.8004H257.908V41.8619H250.973Z" fill="#41826C"/>
<path d="M265.145 41.862L263.161 39.369H261.073V41.862H259.298V35.3248H263.551C264.371 35.2872 265.185 35.4623 265.879 35.8257C266.151 35.9909 266.369 36.2092 266.514 36.4609C266.658 36.7127 266.725 36.9901 266.708 37.2684C266.719 37.7 266.538 38.12 266.201 38.4495C265.848 38.7867 265.37 39.018 264.842 39.1074L267.147 41.862H265.145ZM264.937 37.3357C264.937 36.7103 264.408 36.3975 263.352 36.3975H261.087V38.3187H263.433C263.835 38.3413 264.234 38.2503 264.565 38.0608C264.693 37.971 264.794 37.8574 264.858 37.7294C264.923 37.6015 264.95 37.4627 264.937 37.3245V37.3357Z" fill="#41826C"/>
<path d="M272.505 41.8619H270.694L267.523 35.3359H269.375L271.137 39.5296C271.246 39.8025 271.396 40.2173 271.59 40.763L271.767 40.3668L272.066 39.5333L273.814 35.3397H275.667L272.505 41.8619Z" fill="#41826C"/>
<path d="M276.614 41.8619V35.3247H278.394V41.8619H276.614Z" fill="#41826C"/>
<path d="M284.083 40.8676C284.573 40.8906 285.059 40.7817 285.467 40.5572C285.876 40.3327 286.185 40.0049 286.348 39.6229L287.897 40.0789C287.606 40.669 287.087 41.1632 286.42 41.4843C285.707 41.803 284.904 41.9604 284.092 41.9403C282.718 41.9403 281.662 41.6438 280.922 41.0507C280.536 40.722 280.237 40.3306 280.044 39.9014C279.852 39.4722 279.769 39.0146 279.803 38.5577C279.803 37.485 280.161 36.659 280.885 36.0834C281.61 35.5078 282.652 35.22 284.024 35.22C284.877 35.1907 285.723 35.3507 286.475 35.6834C287.097 35.9899 287.564 36.4718 287.788 37.0402L286.221 37.3691C286.086 37.0379 285.807 36.7596 285.438 36.5879C285.025 36.3915 284.555 36.2908 284.079 36.2964C283.731 36.2693 283.38 36.3069 283.053 36.4065C282.725 36.5062 282.429 36.6652 282.185 36.872C281.728 37.3495 281.504 37.9507 281.556 38.5577C281.505 39.1762 281.736 39.7879 282.204 40.2733C282.445 40.4795 282.739 40.6396 283.064 40.7423C283.388 40.845 283.736 40.8877 284.083 40.8676V40.8676Z" fill="#41826C"/>
<path d="M289.114 41.8619V35.3247H295.818V36.375H290.89V38.0233H295.446V39.0736H290.89V40.8004H296.058V41.8619H289.114Z" fill="#41826C"/>
<path d="M304.379 39.9632C304.397 40.2521 304.323 40.5398 304.164 40.7976C304.005 41.0554 303.767 41.2742 303.473 41.4322C302.645 41.8134 301.702 41.9899 300.755 41.9405C299.867 41.9801 298.981 41.8268 298.187 41.4957C297.885 41.3519 297.623 41.1576 297.417 40.9252C297.211 40.6929 297.066 40.4276 296.991 40.1464L298.708 39.9296C298.757 40.0855 298.844 40.2318 298.962 40.3601C299.08 40.4884 299.228 40.5961 299.397 40.6771C299.836 40.8561 300.325 40.9385 300.814 40.9164C302.061 40.9164 302.683 40.6236 302.68 40.038C302.683 39.9533 302.665 39.869 302.628 39.79C302.591 39.7111 302.535 39.6391 302.463 39.5783C302.29 39.4439 302.085 39.3407 301.861 39.2755C301.371 39.1507 300.872 39.0533 300.366 38.984C299.727 38.8718 299.283 38.7784 299.03 38.7111C298.793 38.65 298.565 38.5672 298.35 38.4644C298.158 38.3754 297.984 38.2619 297.834 38.1281C297.687 37.9944 297.575 37.8364 297.508 37.6646C297.428 37.4645 297.39 37.2547 297.395 37.0441C297.383 36.7753 297.456 36.5086 297.608 36.2706C297.76 36.0325 297.984 35.8315 298.26 35.6874C299.021 35.34 299.887 35.178 300.755 35.2201C301.575 35.1768 302.395 35.3053 303.138 35.5939C303.41 35.7298 303.643 35.9134 303.82 36.1317C303.997 36.35 304.113 36.5977 304.162 36.8572L302.431 37.0292C302.358 36.7677 302.165 36.5399 301.892 36.3938C301.536 36.2343 301.133 36.1604 300.728 36.1807C299.641 36.1807 299.098 36.4424 299.098 36.9582C299.092 37.1103 299.153 37.2589 299.27 37.3768C299.412 37.4995 299.585 37.5952 299.777 37.6571C300.22 37.7805 300.675 37.8755 301.136 37.9412C301.733 38.0254 302.321 38.1504 302.893 38.3149C303.197 38.4064 303.479 38.5404 303.727 38.7111C303.923 38.8585 304.078 39.0397 304.18 39.2419C304.307 39.4682 304.374 39.7139 304.379 39.9632V39.9632Z" fill="#41826C"/>
</svg>
