<svg width="79" height="79" viewBox="0 0 79 79" fill="none" xmlns="http://www.w3.org/2000/svg">
<circle cx="39.5" cy="39.5" r="38.5" stroke="#41826C" stroke-width="2"/>
<g clip-path="url(#clip0_1_163)">
<path d="M58.8803 40.5019L55.2469 40.9102C54.4916 40.9952 54.4916 42.0941 55.2469 42.1791L58.8803 42.5874C59.1763 42.6214 59.411 42.8527 59.445 43.1521L59.8533 46.7855C59.9383 47.5408 61.0372 47.5408 61.1223 46.7855L61.5305 43.1521C61.5645 42.8561 61.7959 42.6214 62.0953 42.5874L65.7287 42.1791C66.4839 42.0941 66.4839 40.9952 65.7287 40.9102L62.0953 40.5019C61.7993 40.4679 61.5645 40.2365 61.5305 39.9372L61.1223 36.3037C61.0372 35.5485 59.9383 35.5485 59.8533 36.3037L59.445 39.9372C59.411 40.2331 59.1797 40.4679 58.8803 40.5019Z" fill="#41826C"/>
<path d="M15.8134 19.3783L16.055 21.525C16.106 21.9707 16.7558 21.9707 16.8034 21.525L17.045 19.3783C17.0654 19.2048 17.2015 19.0653 17.3784 19.0449L19.5251 18.8034C19.9707 18.7524 19.9707 18.1026 19.5251 18.0549L17.3784 17.8134C17.2049 17.793 17.0654 17.6569 17.045 17.48L16.8034 15.3333C16.7524 14.8876 16.1026 14.8876 16.055 15.3333L15.8134 17.48C15.793 17.6535 15.6569 17.793 15.48 17.8134L13.3333 18.0549C12.8876 18.106 12.8876 18.7558 13.3333 18.8034L15.48 19.0449C15.6535 19.0653 15.793 19.2014 15.8134 19.3783V19.3783Z" fill="#41826C"/>
<path d="M54.6958 30.2651L56.2199 30.4352C56.3458 30.4488 56.441 30.5475 56.4546 30.67L56.6247 32.1941C56.6588 32.5105 57.1214 32.5105 57.1555 32.1941L57.3256 30.67C57.3392 30.5441 57.4378 30.4488 57.5603 30.4352L59.0844 30.2651C59.4008 30.2311 59.4008 29.7684 59.0844 29.7344L57.5603 29.5643C57.4344 29.5507 57.3392 29.452 57.3256 29.3295L57.1555 27.8054C57.1214 27.489 56.6588 27.489 56.6247 27.8054L56.4546 29.3295C56.441 29.4554 56.3424 29.5507 56.2199 29.5643L54.6958 29.7344C54.3794 29.7684 54.3794 30.2311 54.6958 30.2651V30.2651Z" fill="#41826C"/>
<path d="M59.9758 50.0481C59.3396 50.0481 58.5537 50.2386 57.5705 50.6299C55.2367 51.5586 52.7192 51.5892 50.4806 50.7183C50.171 50.5992 49.8818 50.4972 49.6097 50.4087L51.3039 40.7469H51.8244C52.8654 40.7469 53.7024 39.7637 53.8384 38.4471C53.852 38.3892 53.8589 38.328 53.8589 38.2667V38.0694C53.8589 38.0082 53.852 37.9469 53.8384 37.8891C53.7024 36.5725 52.8654 35.5893 51.8244 35.5893H49.7764V32.0205C49.7764 31.8164 49.7015 31.6157 49.5688 31.4626L45.3537 26.601V24.3387C45.6905 24.2978 46.0171 24.206 46.3233 24.0733L47.5616 25.56H50.6235L48.4121 22.2396L48.9565 21.6476H50.6235C51.093 21.6476 51.4774 21.2666 51.4774 20.7937V18.4123C51.4774 17.9428 51.0964 17.5583 50.6235 17.5583H42.1183C38.8353 17.5583 36.1613 20.229 36.1613 23.5154C36.1613 23.9849 36.5423 24.3693 37.0152 24.3693H38.2025V26.5364L35.4264 29.0029C35.2427 29.1662 35.1407 29.3975 35.1407 29.6391V35.5893H33.7832V29.6391C33.7832 29.6187 33.7798 29.6017 33.7764 29.5813C33.7764 29.5608 33.7764 29.5404 33.7696 29.52C33.7594 29.4588 33.7458 29.3975 33.7254 29.3397C33.7254 29.3329 33.722 29.3227 33.7186 29.3159C33.6914 29.2513 33.654 29.19 33.6131 29.1322C33.6097 29.1254 33.6063 29.1186 33.6029 29.1118L30.0444 24.5802V19.4295C30.0444 18.96 29.6633 18.5756 29.1904 18.5756H23.7437C23.2742 18.5756 22.8898 18.9566 22.8898 19.4295V24.5768L19.3312 29.1084C19.3312 29.1084 19.3244 29.122 19.321 29.1288C19.2802 29.1866 19.2428 29.2445 19.2156 29.3125C19.2156 29.3193 19.2122 29.3295 19.2088 29.3363C19.1884 29.3941 19.1714 29.452 19.1645 29.5166C19.1645 29.537 19.1611 29.5574 19.1577 29.5779C19.1577 29.5983 19.1509 29.6153 19.1509 29.6357V35.5859H16.7627C15.7217 35.5859 14.8847 36.5691 14.7487 37.8857C14.7351 37.9435 14.7282 38.0048 14.7282 38.066V38.2633C14.7282 38.3246 14.7351 38.3858 14.7487 38.4436C14.8847 39.7603 15.7217 40.7434 16.7627 40.7434H17.9432L21.2092 59.6045C21.216 59.6521 21.2296 59.7032 21.2432 59.7474C21.7195 61.1423 22.7231 62.0098 23.8594 62.0098H42.4517C43.6118 63.2209 45.5238 63.9966 47.7317 63.9966C48.2556 63.9966 48.9224 63.8571 49.7696 63.5713C52.2837 62.7208 54.9951 62.7004 57.6113 63.5169C58.6456 63.8401 59.4212 63.9966 59.9792 63.9966C63.6058 63.9966 66.4465 61.9043 66.4465 59.2303V54.8076C66.4465 52.137 63.6058 50.0413 59.9792 50.0413L59.9758 50.0481ZM58.1999 52.2152C58.9688 51.909 59.5675 51.7559 59.9758 51.7559C62.5545 51.7559 64.7353 53.1576 64.7353 54.8144C64.7353 56.4712 62.5545 57.8729 59.9758 57.8729C59.7614 57.8729 59.2375 57.8218 58.1148 57.4714C56.669 57.0189 55.1959 56.7944 53.733 56.7944C52.1986 56.7944 50.6779 57.0428 49.2184 57.5395C48.4019 57.815 47.9563 57.8763 47.7283 57.8763C45.1496 57.8763 42.9688 56.4746 42.9688 54.8178C42.9688 53.161 45.1496 51.7593 47.7283 51.7593C48.0481 51.7593 48.6775 51.8546 49.8614 52.3139C52.5048 53.3413 55.468 53.3073 58.1999 52.2186V52.2152ZM52.1476 38.1681C52.1238 38.6988 51.8959 39.0084 51.8244 39.039H40.635V37.2937H48.9224C48.9224 37.2937 48.9395 37.2937 48.9497 37.2937H51.804C51.8959 37.3312 52.1238 37.6408 52.1476 38.1681ZM36.6716 47.3264C36.2021 47.3264 35.8177 47.7075 35.8177 48.1804V53.9605H34.4603V48.1804C34.4603 47.7109 34.0792 47.3264 33.6063 47.3264C33.1334 47.3264 32.7524 47.7075 32.7524 48.1804V53.9605H31.395V48.1804C31.395 47.7109 31.014 47.3264 30.5411 47.3264C30.0682 47.3264 29.6871 47.7075 29.6871 48.1804V53.889C28.9081 53.6441 28.3297 52.797 28.3297 51.7866V37.2972H38.917V39.631C38.8897 39.716 38.8693 39.8011 38.8693 39.8963C38.8693 39.9916 38.8863 40.0766 38.917 40.1617V42.9106C38.917 43.2304 39.0939 43.5195 39.3762 43.6692C41.4379 44.7409 43.8261 46.2072 44.3058 46.7923C44.2616 47.1189 44.0711 47.3911 43.8261 47.4761L40.1655 45.5608C39.9002 45.4213 39.5838 45.4315 39.3286 45.588C39.0735 45.7411 38.917 46.0201 38.917 46.3194V51.7968C38.917 52.8242 38.3182 53.6883 37.5153 53.9129V48.1906C37.5153 47.7211 37.1343 47.3367 36.6614 47.3367L36.6716 47.3264ZM45.0033 35.5893H40.2472V33.8917H45.0033V35.5893ZM29.5238 35.5893H23.7471V33.8917H29.5273V35.5893H29.5238ZM49.7696 19.9398H49.4362V19.2628H49.7696V19.9398ZM42.1183 19.2628H47.7283V20.4569L46.2212 22.0899C45.8878 22.4505 45.4149 22.6581 44.925 22.6581H37.9576C38.3522 20.7223 40.0703 19.2594 42.1217 19.2594L42.1183 19.2628ZM43.6458 24.3659V26.0635H39.9104V24.3659H43.6458ZM36.8485 30.0201L39.383 27.768H44.1119L48.0719 32.3369V35.5893H46.7179V33.0412C46.7179 32.5717 46.3369 32.1872 45.864 32.1872H39.4001C38.9306 32.1872 38.5461 32.5683 38.5461 33.0412V35.5893H36.8519V30.0201H36.8485ZM24.5977 20.2834H28.3365V24.0223H24.5977V20.2834ZM24.1588 25.7267H28.772L31.1739 28.7852H21.7569L24.1588 25.7267V25.7267ZM20.8554 30.4896H32.0788V35.5893H31.2317V33.0412C31.2317 32.5717 30.8507 32.1872 30.3778 32.1872H22.8932C22.4237 32.1872 22.0393 32.5683 22.0393 33.0412V35.5893H20.852V30.4896H20.8554ZM16.4361 38.1647C16.4599 37.634 16.6878 37.3244 16.7593 37.2937H26.6321V39.039H18.7223C18.7223 39.039 18.6985 39.039 18.6883 39.039H16.7831C16.6912 39.005 16.4633 38.692 16.4395 38.1647H16.4361ZM22.8796 59.2609L19.6681 40.7434H26.6355V51.7832C26.6355 53.9231 28.2141 55.6649 30.1566 55.6649H37.1105C39.053 55.6649 40.6316 53.9231 40.6316 51.7832V47.7177L43.2818 49.1057C43.4043 49.1704 43.5404 49.2044 43.6765 49.2044C44.9726 49.2044 46.0307 48.0579 46.0307 46.6494C46.0307 46.2242 46.0307 45.2478 40.635 42.3901V40.7469H49.579L47.9358 50.0549C47.8678 50.0515 47.7964 50.0481 47.7317 50.0481C44.1051 50.0481 41.2644 52.1404 41.2644 54.8144V59.2371C41.2644 59.6079 41.3222 59.9651 41.4277 60.3087H23.8594C23.4988 60.3087 23.1109 59.8937 22.883 59.2677L22.8796 59.2609ZM59.9758 62.2921C59.7614 62.2921 59.2375 62.2411 58.1148 61.8907C55.1516 60.9653 52.0728 60.9892 49.2184 61.9587C48.4019 62.2343 47.9563 62.2956 47.7283 62.2956C45.1496 62.2956 42.9688 60.8939 42.9688 59.2371V58.0634C44.1425 58.9989 45.8232 59.5807 47.7283 59.5807C48.2522 59.5807 48.919 59.4412 49.7662 59.1554C52.2803 58.3049 54.9917 58.2845 57.6079 59.101C58.6422 59.4242 59.4178 59.5807 59.9758 59.5807C61.8809 59.5807 63.5616 58.9989 64.7353 58.0634V59.2371C64.7353 60.8939 62.5545 62.2956 59.9758 62.2956V62.2921Z" fill="#41826C"/>
<path d="M46.7757 54.3381C46.2688 54.3381 45.8572 54.7498 45.8572 55.2567C45.8572 55.7636 46.2688 56.1753 46.7757 56.1753C47.2826 56.1753 47.6943 55.7636 47.6943 55.2567C47.6943 54.7498 47.2826 54.3381 46.7757 54.3381Z" fill="#41826C"/>
<path d="M49.9873 55.2567C50.4942 55.2567 50.9059 54.845 50.9059 54.3381C50.9059 53.8312 50.4942 53.4196 49.9873 53.4196C49.4804 53.4196 49.0687 53.8312 49.0687 54.3381C49.0687 54.845 49.4804 55.2567 49.9873 55.2567Z" fill="#41826C"/>
<path d="M57.6624 56.1718C58.1693 56.1718 58.5809 55.7602 58.5809 55.2533C58.5809 54.7464 58.1693 54.3347 57.6624 54.3347C57.1555 54.3347 56.7438 54.7464 56.7438 55.2533C56.7438 55.7602 57.1555 56.1718 57.6624 56.1718Z" fill="#41826C"/>
<path d="M60.8739 55.2567C61.3808 55.2567 61.7925 54.845 61.7925 54.3381C61.7925 53.8312 61.3808 53.4196 60.8739 53.4196C60.367 53.4196 59.9554 53.8312 59.9554 54.3381C59.9554 54.845 60.367 55.2567 60.8739 55.2567Z" fill="#41826C"/>
</g>
<defs>
<clipPath id="clip0_1_163">
<rect width="53.4431" height="49" fill="white" transform="translate(13 15)"/>
</clipPath>
</defs>
</svg>
