<svg width="502" height="383" viewBox="0 0 502 383" fill="none" xmlns="http://www.w3.org/2000/svg">
<path d="M470.536 211.803C439.13 187.732 489 104.487 440.622 77.4673C409.036 59.8251 371.666 67.0482 345.316 41.5536C260.664 -40.3524 172.8 20.478 146.991 41.5536C70.5926 103.943 89.1615 123.997 21.774 211.803C-7.50843 249.956 -9.57086 334.084 29.8613 381.129H482.759C517.688 344.472 499.714 234.164 470.538 211.803H470.536Z" fill="#FEFEFE"/>
<g opacity="0.5">
<path opacity="0.5" d="M405.601 104.348H273.115V380.269H405.601V104.348Z" fill="#9BC1F9"/>
<path opacity="0.5" d="M400.867 108.364H277.796V375.944H400.867V108.364Z" fill="#C5DDF9"/>
<g style="mix-blend-mode:soft-light" opacity="0.5">
<path d="M330.251 375.944H344.867L393.474 108.364H378.859L330.251 375.944Z" fill="white"/>
</g>
<g style="mix-blend-mode:soft-light" opacity="0.5">
<path d="M349.815 108.364H319.69L277.796 338.984V375.944H301.207L349.815 108.364Z" fill="white"/>
</g>
</g>
<g opacity="0.5">
<path opacity="0.5" d="M252.258 104.348H119.773V380.269H252.258V104.348Z" fill="#9BC1F9"/>
<path opacity="0.5" d="M247.525 108.364H124.454V375.944H247.525V108.364Z" fill="#C5DDF9"/>
<g style="mix-blend-mode:soft-light" opacity="0.5">
<path d="M176.908 375.944H191.524L240.131 108.364H225.516L176.908 375.944Z" fill="white"/>
</g>
<g style="mix-blend-mode:soft-light" opacity="0.5">
<path d="M196.472 108.364H166.347L124.454 338.984V375.944H147.864L196.472 108.364Z" fill="white"/>
</g>
</g>
<path d="M157.948 195.285C157.953 193.269 159.073 191.495 160.815 190.261C163.189 188.579 166.337 188.272 169.054 189.37C176.635 192.431 180.558 193.215 179.672 200.651C179.454 202.479 178.299 204.084 177.872 205.876C174.603 219.601 160.293 217.133 158.649 209.939C152.371 203.09 157.927 203.22 157.948 195.287V195.285Z" fill="#89A6E5"/>
<g style="mix-blend-mode:multiply" opacity="0.3">
<path d="M177.872 201.827C174.603 215.552 160.294 213.084 158.649 205.89C157.375 204.502 156.589 203.397 156.146 202.457C155.324 204.508 155.192 206.163 158.649 209.937C160.294 217.133 174.603 219.602 177.872 205.874C178.299 204.083 179.456 202.477 179.672 200.649C179.851 199.151 179.83 197.926 179.628 196.893C179.331 198.6 178.276 200.13 177.872 201.825V201.827Z" fill="#89A6E5"/>
</g>
<path d="M164.319 192.924C165.14 192.909 164.557 196.555 165.24 196.974C165.922 197.395 167.527 192.866 168.237 192.909C169.543 192.991 166.796 197.972 167.395 198.046C167.993 198.12 171.09 193.119 171.858 194.008C172.626 194.9 168.086 198.873 168.692 199.229C169.297 199.585 172.568 195.166 173.976 195.71C174.728 196.002 167.392 202.577 167.495 203.641C167.597 204.705 171.868 203.917 172.151 204.828C172.434 205.74 164.307 205.65 163.871 206.078C163.435 206.506 152.468 216.777 150.134 220.316C151.315 221.209 159.621 226.578 160.746 227.396C158.412 229.055 158.667 232.569 156.449 234.343C152.793 231.389 139.792 223.342 140.054 221.563C141.022 214.997 156.261 205.037 159.12 203.003C161.98 200.967 161.862 199.247 163.091 197.645C164.321 196.046 163.497 192.935 164.319 192.92V192.924Z" fill="#F7A491"/>
<path d="M190.499 260.144C190.312 260.769 190.202 260.978 189.964 261.399C188.421 264.111 184.841 267.979 184.841 267.979L182.071 261.954C182.071 261.954 182.523 260.062 183.305 257.358C185.98 258.032 188.527 258.422 190.499 260.142V260.144Z" fill="#F8A492"/>
<path d="M174.621 254.919C174.621 254.919 190.067 261.34 190.566 261.217C190.889 261.138 196.902 251.418 196.967 242.28C196.997 238.058 192.457 232.981 187.39 233.986C184.84 234.493 184.88 235.178 181.105 240.47C177.331 245.765 174.621 254.919 174.621 254.919Z" fill="#3C8F7C"/>
<path d="M161.435 370.056C161.435 370.056 161.801 375.913 161.804 375.924C161.938 376.667 162.469 378.504 162.469 379.18C162.469 381.72 149.979 377.026 152.779 375.899C153.032 375.798 154.359 375.026 154.442 374.163C154.57 372.831 154.897 370.139 154.897 370.139L161.437 370.056H161.435Z" fill="#F7A491"/>
<path d="M152.809 375.874C152.809 375.874 155.742 376.652 157.243 376.846C158.744 377.041 160.725 375.406 161.787 375.848C162.957 376.334 162.91 380.71 162.91 380.71C162.91 380.71 147.183 381.955 142.762 380.667C141.01 380.157 146.812 377.686 152.807 375.877L152.809 375.874Z" fill="#1D3B31"/>
<path d="M186.988 370.056C186.988 370.056 187.354 375.913 187.356 375.924C187.491 376.668 188.022 378.504 188.022 379.18C188.022 381.72 175.532 377.026 178.332 375.899C178.585 375.799 180.306 374.452 180.39 373.588C180.517 372.255 180.45 370.137 180.45 370.137L186.99 370.054L186.988 370.056Z" fill="#F7A491"/>
<path d="M185.826 224.432L187.242 233.08C187.242 233.08 181.845 237.264 178.7 236.381C176.059 235.64 177.871 232.309 177.871 232.309C177.871 232.309 179.277 227.693 178.846 225.275C178.414 222.856 185.826 224.435 185.826 224.435V224.432Z" fill="#F7A491"/>
<path d="M184.81 227.046C183.458 227.662 180.783 228.504 178.704 228.708C178.904 227.499 179.017 226.217 178.848 225.272C178.648 224.155 180.122 223.893 181.762 223.931C183.91 224.11 185.826 224.432 185.826 224.432L186.098 226.094C185.689 226.511 185.26 226.842 184.808 227.046H184.81Z" fill="#FE875E"/>
<path d="M192.638 214.459C192.86 214.459 190.506 224.119 186.859 225.78C183.214 227.442 177.776 226.576 176.755 223.975C175.628 221.097 179.743 211.243 184.871 209.993C189.998 208.741 192.638 214.461 192.638 214.461V214.459Z" fill="#F7A491"/>
<path d="M188.417 205.583C191.329 207.205 192.665 209.61 193.115 210.593C194.482 211.218 196.136 212.573 196.929 216.224C197.906 220.71 194.435 224.168 190.756 225.21C187.076 226.249 186.508 228.601 186.508 228.601L186.09 226.072C186.09 226.072 186.909 223.87 188.139 222.768C189.371 221.666 187.557 220.061 187.397 218.75C187.274 217.743 188.044 215.783 187.877 214.128C187.877 214.128 185.833 211.138 183.817 210.399C180.381 209.138 184.68 203.507 188.415 205.588L188.417 205.583Z" fill="#F7CC7F"/>
<path d="M184.158 277.675C184.158 277.675 186.274 287.554 185.414 295.046C184.551 302.538 184.483 329.148 184.483 329.148L187.775 371.725L179.964 371.888C179.964 371.888 170.703 329.332 170.874 330.424C171.046 331.517 167.768 300.459 167.768 300.459L178.809 276.739L184.156 277.675H184.158Z" fill="#1D3B31"/>
<path d="M179.881 375.711C179.881 375.711 182.375 376.419 183.653 376.596C184.932 376.773 186.616 375.284 187.518 375.687C188.514 376.13 188.553 380.489 188.553 380.489C188.553 380.489 175.257 380.903 171.323 380.336C169.773 380.112 174.782 377.36 179.881 375.711Z" fill="#1D3B31"/>
<path d="M182.089 277.206C182.089 277.206 183.469 286.103 181.743 290.004C180.017 293.906 166.944 332.187 166.772 335.309C166.601 338.431 162.253 372.929 162.253 372.929L153.171 372.683L151.206 334.326L155.319 286.116L159.314 273.928L182.086 277.204L182.089 277.206Z" fill="#335B4E"/>
<path d="M187.244 233.078C187.244 233.078 185.005 234.496 182.915 234.332C180.827 234.169 177.874 232.307 177.874 232.307L178.284 230.964C178.284 230.964 183.688 230.204 183.824 230.285C183.961 230.368 187.244 233.078 187.244 233.078Z" fill="#F7A491"/>
<path d="M157.934 263.161C159.126 256.899 167.768 237.411 168.457 233.821C168.793 232.076 173.454 232.036 177.894 232.265C182.583 232.504 187.242 233.078 187.242 233.078C187.242 233.078 191.394 233.736 193.22 235.389C195.046 237.042 195.531 241.611 192.907 250.285C190.835 257.132 188.265 260.893 186.993 265.88C186.736 267.553 186.515 269.204 186.223 271.132C185.757 278.591 176.182 278.138 176.182 278.138C176.182 278.138 168.03 287.791 159.576 280.924C159.576 280.924 156.713 269.576 157.934 263.159V263.161Z" fill="#3C8F7C"/>
<path d="M154.304 220.903C154.304 220.903 148.205 230.314 148.272 230.809C148.316 231.127 158.911 241.779 166.665 243.562C170.952 244.547 178.281 236.894 177.773 233.29C177.42 230.793 154.304 220.9 154.304 220.9V220.903Z" fill="#41826C"/>
<path d="M404.461 106.899C404.626 107.121 404.876 107.43 405.241 107.858C405.245 107.865 405.25 107.869 405.255 107.876C405.241 107.927 400.626 124.058 404.259 125.281C407.591 126.405 407.871 114.577 406.521 109.621C407.259 110.723 407.92 111.878 408.468 113.088C409.405 115.155 410.045 117.82 410.467 120.792C409.79 121.863 405.651 128.593 407.725 129.98C409.407 131.104 410.507 126.678 410.811 123.755C411.054 126.398 411.159 129.191 411.17 131.964C408.932 132.495 402.171 134.367 402.044 137.718C401.902 141.46 407.714 140.356 411.168 133.415C411.149 136.172 411.045 138.878 410.899 141.362C409.289 142.764 402.67 148.791 403.737 152.271C404.818 155.799 408.969 151.758 410.72 144.054C410.396 148.466 409.983 151.814 409.799 152.872C409.739 153.221 409.672 153.669 409.6 154.197C409.574 154.39 409.546 154.596 409.519 154.809C409.519 154.809 399.232 168.191 402.176 171.273C404.264 173.457 407.391 164.518 409.034 159.127C408.465 164.85 407.967 172.31 408.442 174.612L408.479 174.606C408.115 179.764 407.867 189.146 410.811 189.618C414.882 190.275 410.811 179.791 410.811 179.791C410.811 179.791 415.78 181.706 416.239 179.791C417.01 176.586 410.048 172.07 408.925 171.367C408.939 168.518 409.205 164.48 409.542 160.811C409.915 168.675 411.952 171.013 412.743 171.273C413.725 171.593 415.748 169.669 415.054 163.591C414.516 158.867 411.521 155.815 410.21 154.686C410.3 154.014 410.386 153.436 410.465 152.979C410.641 151.964 411.024 148.854 411.342 144.717C412.138 151.183 414.022 156.473 415.72 153.196C417.376 150.003 413.052 143.893 411.535 141.906C411.711 139.021 411.834 135.816 411.834 132.56C413.096 135.756 418.636 141.765 419.327 138.327C420.007 134.945 413.131 131.426 411.822 130.788C411.783 128.002 411.644 125.216 411.361 122.602C412.899 125.236 417.587 130.636 418.144 127.722C418.78 124.396 410.918 119.287 410.918 119.287C410.918 119.287 410.913 119.292 410.906 119.301C410.481 116.826 409.89 114.606 409.082 112.821C408.56 111.668 407.936 110.559 407.243 109.502C410.15 111.406 414.597 113.099 414.418 111.112C414.223 108.958 407.384 107.213 405.203 106.711C405.129 106.608 405.078 106.563 405.048 106.566C404.266 105.638 403.443 104.76 402.605 103.938H401.652C402.614 104.855 403.561 105.842 404.454 106.895L404.461 106.899Z" fill="#327F6B"/>
<path d="M398.543 112.512C400.712 113.692 399.918 107.8 399.197 103.943H397.077C396.685 107.166 396.592 111.45 398.543 112.512Z" fill="#327F6B"/>
<path d="M401.38 112.181C404.264 111.791 401.673 107.589 397.608 103.943H393.353C395.499 107.737 398.761 112.535 401.38 112.181Z" fill="#327F6B"/>
<path d="M389.855 103.943H385.493C383.257 106.635 381.565 109.952 383.087 112.927C385.233 117.126 388.129 109.587 389.855 103.943Z" fill="#327F6B"/>
<path d="M392.522 103.943H391.801C391.986 105.188 392.188 106.572 392.397 108.069C390.65 111.395 381.735 128.943 385.982 132.708C390.68 136.871 392.355 115.556 392.355 115.556L392.603 109.554C393.316 114.732 394.1 121.045 394.719 127.563C393.102 128.849 386.418 134.513 389.2 138.24C391.787 141.707 394.074 132.121 394.812 128.566C395.209 132.878 395.529 137.259 395.701 141.438C393.993 142.204 386.792 145.662 388.766 148.681C390.68 151.604 394.654 145.116 395.763 143.178C395.844 145.74 395.863 148.211 395.805 150.524C393.94 151.371 385.595 155.313 387.655 157.194C389.973 159.306 394.735 153.651 394.735 153.651C394.735 153.651 391.003 168.133 395.06 166.579C399.12 165.024 396.408 152.782 396.536 152.473L396.466 152.079C396.545 150.175 396.566 148.153 396.538 146.045C397.292 147.909 398.747 151.013 399.624 149.678C400.656 148.106 397.505 144.896 396.494 143.931C396.417 141.059 396.262 138.063 396.049 135.035C397.515 138.609 400.577 143.772 402.131 141.351C403.876 138.636 397.32 131.612 395.64 129.886C395.25 125.435 394.77 121.03 394.274 116.956C396.334 122.163 403.05 133.18 405.222 129.42C407.481 125.505 395.84 113.24 393.49 110.826C393.144 108.257 392.81 105.932 392.515 103.948L392.522 103.943Z" fill="#3C8F7C"/>
<path d="M368.998 107.784C370.759 112.317 374.236 119.961 377.651 119.874C382.256 119.753 375.682 109.836 368.903 105.213C368.889 104.893 368.877 104.592 368.866 104.312C367.761 104.519 366.662 104.738 365.601 105.081C361.736 107.679 355.19 113.112 357.201 118.49C359.57 124.828 365.829 109.746 367.701 104.944C367.791 107.191 367.91 110.496 368.003 114.487C365.24 118.577 353.719 136.26 357.857 140.851C362.546 146.052 367.174 122.537 367.174 122.537L368.056 116.98C368.16 122.644 368.2 129.386 368.051 136.307C365.792 137.751 358.192 143.048 360.723 147.393C363.031 151.355 366.564 142.177 368.012 137.933C367.891 142.598 367.678 147.313 367.339 151.801C365.033 152.562 357.134 155.467 358.883 158.955C360.553 162.283 365.434 156.28 367.16 153.976C366.919 156.755 366.625 159.427 366.267 161.927C363.739 162.767 354.549 166.019 356.54 168.294C358.843 170.926 364.878 165.208 364.878 165.208C364.878 165.208 358.843 180.87 363.562 179.632C367.72 178.541 367.105 167.58 367.026 164.767C367.413 162.496 367.743 160.043 368.016 157.465C368.65 159.638 369.773 162.657 370.838 161.378C372.118 159.837 369.415 156.213 368.279 154.818C368.559 151.727 368.773 148.5 368.931 145.225C370.176 149.34 372.761 154.809 374.712 152.417C376.925 149.705 371.053 141.588 369.165 139.118C369.306 134.289 369.348 129.491 369.332 125.021C371.195 131.31 376.902 143.29 379.697 139.514C382.639 135.538 371.944 121.16 369.255 117.663C369.188 113.816 369.091 110.434 368.998 107.784Z" fill="#3C8F7C"/>
<path d="M373.751 115.267C376.222 118.06 378.776 108.899 379.906 104.104C379.943 107.392 379.985 111.795 380.013 116.893C378.489 118.405 373.763 123.433 374.422 127.16C375.062 130.777 378.705 123.242 380.027 120.342C380.036 123.005 380.041 125.816 380.036 128.723C378.127 130.324 373.513 134.669 375.714 137.619C377.496 140.007 379.115 135.276 380.029 131.666C380.02 134.976 379.999 138.387 379.967 141.825C377.658 143.61 371.239 149.127 373.582 153.709C375.661 157.777 378.547 149.187 379.941 144.305C379.899 147.971 379.839 151.651 379.762 155.261C378.496 157.306 373.879 165.143 376.408 166.832C377.774 167.745 378.844 165.824 379.547 163.333C379.438 166.699 379.308 169.936 379.15 172.966C377.466 174.043 370.511 178.722 371.32 182.086C371.826 184.187 377.28 182.086 377.28 182.086C377.28 182.086 372.812 193.592 377.28 192.873C380.449 192.362 380.247 182.456 379.862 176.731C379.929 175.678 379.992 174.594 380.05 173.479C380.711 175.876 381.832 177.611 383.101 176.144C385.33 173.566 381.201 167.448 380.37 166.276C380.486 163.125 380.584 159.837 380.66 156.48C382.375 159.703 388.898 167.401 389.645 163.483C390.365 159.718 382.667 154.193 380.737 152.872C380.802 149.53 380.848 146.143 380.885 142.779C382.124 145.326 386.349 153.485 389.502 153.06C393.16 152.565 386.69 145.019 380.89 142.202C380.922 138.903 380.943 135.628 380.955 132.441C380.966 132.524 380.978 132.607 380.992 132.696C381.34 134.86 385.238 143.024 386.973 140.32C388.708 137.617 380.992 130.006 380.992 130.006C380.992 130.006 380.978 130.027 380.96 130.074C380.967 126.994 380.964 124.013 380.955 121.189C382.182 124.183 386.474 130.828 387.847 128.6C389.151 126.483 383.041 120.199 380.943 118.138C380.925 114.051 380.897 110.369 380.867 107.298C382.324 110.378 386.739 118.853 388.086 115.782C389.525 112.51 382.474 106.216 380.839 104.816C380.837 104.514 380.832 104.223 380.83 103.938H377.326C374.73 107.641 371.705 112.949 373.754 115.262L373.751 115.267Z" fill="#327F6B"/>
<path d="M121.555 106.899C121.39 107.121 121.14 107.43 120.776 107.858C120.771 107.865 120.766 107.869 120.762 107.876C120.776 107.927 125.39 124.058 121.757 125.281C118.425 126.405 118.145 114.577 119.495 109.621C118.757 110.723 118.096 111.878 117.549 113.088C116.611 115.155 115.971 117.82 115.549 120.792C116.226 121.863 120.365 128.593 118.291 129.979C116.609 131.104 115.509 126.678 115.205 123.755C114.962 126.398 114.857 129.191 114.846 131.964C117.085 132.495 123.845 134.367 123.972 137.718C124.114 141.46 118.303 140.356 114.848 133.415C114.867 136.172 114.971 138.878 115.117 141.362C116.727 142.764 123.346 148.791 122.279 152.271C121.198 155.799 117.047 151.758 115.296 144.054C115.621 148.466 116.034 151.814 116.217 152.872C116.277 153.221 116.344 153.669 116.416 154.197C116.442 154.39 116.47 154.596 116.498 154.809C116.498 154.809 126.784 168.191 123.84 171.273C121.752 173.457 118.625 164.518 116.982 159.127C117.551 164.849 118.05 172.31 117.574 174.612L117.537 174.606C117.901 179.764 118.149 189.146 115.205 189.618C111.134 190.275 115.205 179.791 115.205 179.791C115.205 179.791 110.236 181.705 109.777 179.791C109.006 176.586 115.966 172.07 117.089 171.367C117.075 168.518 116.808 164.48 116.472 160.811C116.099 168.675 114.062 171.013 113.271 171.273C112.289 171.593 110.266 169.669 110.96 163.591C111.498 158.867 114.493 155.815 115.804 154.686C115.713 154.014 115.628 153.436 115.549 152.979C115.372 151.964 114.987 148.853 114.672 144.717C113.876 151.183 111.992 156.473 110.294 153.196C108.638 150.002 112.962 143.893 114.479 141.906C114.303 139.021 114.18 135.816 114.18 132.56C112.918 135.756 107.378 141.765 106.687 138.327C106.007 134.945 112.883 131.426 114.192 130.788C114.231 128.002 114.37 125.216 114.653 122.602C113.115 125.236 108.427 130.636 107.87 127.722C107.234 124.396 115.096 119.287 115.096 119.287C115.096 119.287 115.101 119.292 115.108 119.301C115.533 116.826 116.124 114.606 116.931 112.821C117.453 111.668 118.077 110.559 118.771 109.502C115.864 111.406 111.417 113.099 111.596 111.112C111.79 108.958 118.63 107.213 120.81 106.711C120.885 106.608 120.936 106.563 120.966 106.566C121.748 105.638 122.571 104.76 123.409 103.938H124.362C123.399 104.854 122.453 105.842 121.56 106.895L121.555 106.899Z" fill="#327F6B"/>
<path d="M124.638 112.181C121.754 111.791 124.345 107.589 128.41 103.943H132.665C130.519 107.737 127.257 112.535 124.638 112.181Z" fill="#327F6B"/>
<path d="M136.163 103.943H140.524C142.761 106.635 144.452 109.952 142.93 112.927C140.784 117.126 137.889 109.587 136.163 103.943Z" fill="#327F6B"/>
<path d="M133.495 103.943H134.216C134.031 105.188 133.829 106.572 133.62 108.069C135.367 111.395 144.283 128.943 140.035 132.708C135.337 136.871 133.662 115.556 133.662 115.556L133.414 109.554C132.702 114.732 131.917 121.045 131.298 127.563C132.915 128.849 139.599 134.513 136.817 138.24C134.23 141.707 131.943 132.121 131.205 128.566C130.808 132.878 130.488 137.259 130.317 141.438C132.024 142.204 139.225 145.662 137.251 148.681C135.337 151.604 131.363 145.116 130.254 143.178C130.173 145.74 130.154 148.211 130.212 150.524C132.077 151.371 140.422 155.313 138.362 157.194C136.045 159.306 131.282 153.651 131.282 153.651C131.282 153.651 135.014 168.133 130.957 166.579C126.897 165.024 129.609 152.782 129.479 152.473L129.549 152.079C129.47 150.175 129.449 148.153 129.477 146.045C128.723 147.909 127.268 151.013 126.391 149.678C125.359 148.106 128.509 144.896 129.521 143.931C129.597 141.059 129.753 138.063 129.966 135.035C128.5 138.609 125.438 143.772 123.883 141.351C122.139 138.636 128.695 131.612 130.375 129.886C130.764 125.435 131.245 121.03 131.741 116.956C129.681 122.163 122.965 133.18 120.796 129.42C118.536 125.505 130.177 113.24 132.528 110.826C132.873 108.257 133.207 105.932 133.502 103.948L133.495 103.943Z" fill="#3C8F7C"/>
<path d="M152.266 115.267C149.796 118.06 147.241 108.899 146.111 104.104C146.074 107.392 146.033 111.795 146.005 116.893C147.529 118.405 152.255 123.433 151.596 127.16C150.956 130.777 147.313 123.242 145.991 120.342C145.982 123.005 145.977 125.816 145.982 128.723C147.891 130.324 152.505 134.669 150.304 137.619C148.522 140.007 146.903 135.276 145.989 131.666C145.998 134.976 146.019 138.387 146.051 141.825C148.359 143.61 154.779 149.127 152.436 153.709C150.357 157.777 147.471 149.187 146.077 144.305C146.118 147.971 146.179 151.651 146.255 155.261C147.522 157.306 152.139 165.143 149.61 166.832C148.243 167.745 147.174 165.824 146.471 163.333C146.58 166.699 146.71 169.936 146.868 172.966C148.552 174.043 155.507 178.722 154.698 182.086C154.192 184.187 148.738 182.086 148.738 182.086C148.738 182.086 153.208 193.592 148.738 192.873C145.569 192.362 145.77 182.456 146.156 176.731C146.088 175.678 146.026 174.594 145.968 173.479C145.306 175.876 144.186 177.611 142.917 176.144C140.687 173.566 144.817 167.448 145.647 166.276C145.531 163.125 145.434 159.837 145.357 156.48C143.643 159.703 137.119 167.401 136.372 163.483C135.653 159.718 143.351 154.193 145.281 152.872C145.216 149.53 145.17 146.143 145.132 142.779C143.894 145.326 139.669 153.485 136.516 153.06C132.858 152.565 139.328 145.019 145.128 142.202C145.095 138.903 145.074 135.628 145.063 132.441C145.051 132.524 145.04 132.607 145.026 132.696C144.678 134.86 140.78 143.024 139.045 140.32C137.31 137.617 145.026 130.006 145.026 130.006C145.026 130.006 145.04 130.027 145.058 130.074C145.051 126.994 145.054 124.013 145.063 121.189C143.836 124.183 139.544 130.828 138.17 128.6C136.866 126.483 142.977 120.199 145.074 118.138C145.093 114.051 145.121 110.369 145.151 107.298C143.694 110.378 139.279 118.853 137.931 115.782C136.493 112.51 143.543 106.216 145.179 104.816C145.181 104.514 145.186 104.223 145.188 103.938H148.691C151.287 107.641 154.312 112.949 152.264 115.262L152.266 115.267Z" fill="#327F6B"/>
<path d="M412.119 102.859H115.143V106.102H412.119V102.859Z" fill="#13375B"/>
<path d="M276.202 134.49V132.454H239.045V134.49H197.838C197.838 139.465 202.014 143.496 207.167 143.496H306.674C311.827 143.496 316.003 139.465 316.003 134.49H276.204H276.202Z" fill="#F7CC7F"/>
<path d="M316.003 128.961V103.943H314.599V128.961H198.541V103.943H197.138V128.961H193.064V137.964H320.775V128.961H316.003Z" fill="#183658"/>
<path d="M426.607 334.228C426.359 332.102 426.062 329.93 425.041 328.035C423.8 325.73 421.617 324.066 419.71 322.234C416.149 318.809 413.406 314.592 411.762 310.003C410.49 306.455 409.855 302.672 408.103 299.322C407.033 297.275 405.572 295.447 404.356 293.478C401.482 288.824 399.918 283.326 396.021 279.431C395.271 284.152 396.754 289.165 399.972 292.789C400.932 293.87 402.046 294.842 402.776 296.081C404.103 298.325 403.983 301.064 404.138 303.647C404.431 308.5 405.848 313.286 408.254 317.553C410.81 322.086 414.501 326.122 415.868 331.114C416.893 334.855 416.587 339.05 418.772 342.293C419.009 342.644 419.281 342.996 419.339 343.413C419.371 343.646 419.334 343.883 419.294 344.116C419.246 344.416 419.197 344.718 419.148 345.019C418.652 348.08 418.137 351.975 420.863 354.266C422.751 355.854 425.182 355.89 426.537 353.78C427.904 351.657 427.781 348.548 427.681 346.159C427.512 342.179 427.071 338.187 426.607 334.23V334.228Z" fill="#3C8F7C"/>
<path d="M431.514 331.766C430.454 328.223 428.809 324.848 427.983 321.244C427.182 317.75 427.178 314.137 427.173 310.56C427.171 306.639 427.166 302.717 427.164 298.797C427.164 296.356 427.159 293.901 426.742 291.494C425.841 286.313 423.053 281.525 422.582 276.291C422.378 274.029 422.614 271.742 422.357 269.484C422.211 268.194 421.867 266.877 421.248 265.733C420.582 264.503 418.745 264.557 418.144 265.818C416.789 268.651 415.931 271.713 416.478 274.75C416.805 276.571 417.624 278.268 418.232 280.02C420.949 287.821 419.506 296.455 421.608 304.433C422.241 306.84 423.201 309.201 423.313 311.685C423.58 317.627 418.984 323.054 419.406 328.986C419.752 333.851 423.373 337.876 424.895 342.526C425.746 345.128 425.927 347.905 426.839 350.488C427.547 352.494 429.196 354.931 431.755 354.322C434.184 353.744 433.451 351.829 433.342 350.002C432.975 343.816 433.321 337.813 431.511 331.77L431.514 331.766Z" fill="#327F6B"/>
<path d="M437.075 335.014C436.968 333.173 436.646 331.32 436.912 329.495C437.137 327.952 437.773 326.498 438.228 325.004C439.079 322.205 439.29 319.264 439.497 316.352C439.87 311.06 440.246 305.765 440.62 300.473C441.202 292.244 441.787 283.993 443.38 275.892C443.824 273.643 444.32 271.204 443.271 269.15C443.051 268.718 442.617 268.259 442.139 268.402C441.801 268.505 441.633 268.866 441.511 269.189C438.028 278.329 436.711 288.168 432.822 297.154C431.89 299.306 430.806 301.425 430.326 303.709C429.746 306.455 430.066 309.291 430.14 312.09C430.247 316.108 429.843 320.155 428.693 324.017C428.092 326.037 427.287 328.012 426.957 330.091C426.547 332.682 426.893 335.323 427.148 337.932C427.642 342.949 427.809 347.997 427.649 353.034C427.554 355.995 430.145 355.919 431.86 354.098C433.059 352.826 433.047 351.428 433.458 349.845C434.806 344.644 437.4 340.651 437.07 335.014H437.075Z" fill="#3C8F7C"/>
<path d="M420.895 343.045C418.605 339.493 414.044 337.473 412.581 333.533C412.207 332.529 412.063 331.452 411.609 330.482C410.597 328.328 408.3 327.109 406.041 326.119C405.728 325.981 405.37 326.2 405.366 326.534C405.359 327.065 405.618 327.568 406.073 327.864C407.813 328.995 409.135 330.724 409.725 332.671C410.423 334.98 410.119 337.511 410.987 339.766C411.715 341.659 413.214 343.206 413.917 345.108C414.559 346.846 414.492 348.745 414.796 350.568C415.098 352.391 415.937 354.324 417.67 355.097C423.944 357.887 422.375 345.341 420.895 343.047V343.045Z" fill="#327F6B"/>
<path d="M446.986 341.871C446.889 343.589 447.16 345.39 446.464 346.971C446.019 347.984 445.218 348.803 444.559 349.699C442.251 352.853 441.413 357.319 437.864 359.095C437.63 359.211 437.37 359.317 437.11 359.269C436.746 359.205 436.509 358.866 436.363 358.537C435.493 356.58 436.47 354.376 437.047 352.322C437.149 351.961 437.233 351.563 437.057 351.231C436.862 350.868 436.416 350.709 436.112 350.425C435.507 349.856 435.563 348.913 435.683 348.105C435.985 346.084 436.407 344.08 436.948 342.107C437.256 340.987 437.609 339.858 438.277 338.897C439.012 337.84 440.08 337.049 441.079 336.221C445.497 332.552 448.881 327.73 450.774 322.402C451.185 321.248 451.549 320.032 452.396 319.127C453.243 318.225 454.753 317.759 455.786 318.46C456.519 318.959 453.514 323.627 453.162 324.187C452.159 325.786 452.146 327.179 451.582 328.955C450.194 333.309 447.248 337.204 446.984 341.869L446.986 341.871Z" fill="#3C8F7C"/>
<path d="M443.486 343.858C444.143 342.221 444.804 340.561 445.02 338.816C445.261 336.877 444.941 334.895 445.284 332.968C445.725 330.493 447.219 328.316 447.959 325.911C448.493 324.173 448.625 322.348 448.945 320.56C449.864 315.452 452.351 310.459 451.636 305.321C451.481 304.204 450.959 302.9 449.808 302.71C448.769 302.538 447.82 303.456 447.551 304.444C447.28 305.431 447.481 306.47 447.556 307.489C447.762 310.329 446.922 313.232 445.222 315.555C443.589 317.788 441.215 319.467 439.744 321.806C437.939 324.672 437.696 328.171 436.775 331.405C434.944 337.84 430.353 343.452 429.516 350.075C429.182 352.711 429.824 355.914 432.344 356.967C439.631 360.013 441.83 347.981 443.482 343.858H443.486Z" fill="#327F6B"/>
<path d="M430.749 352.024H414.024C412.88 352.024 412.036 353.057 412.3 354.134L418.397 378.954C418.588 379.727 419.3 380.271 420.119 380.271H440.21C441.031 380.271 441.743 379.727 441.933 378.954L448.03 354.134C448.295 353.057 447.45 352.024 446.306 352.024H430.746H430.749Z" fill="#9BC1F9"/>
<path d="M450.639 217.756C467.901 217.756 481.894 204.264 481.894 187.621C481.894 170.978 467.901 157.486 450.639 157.486C433.378 157.486 419.385 170.978 419.385 187.621C419.385 204.264 433.378 217.756 450.639 217.756Z" fill="#E8BD4F"/>
<path d="M478.118 185.959C479.069 200.591 467.541 213.196 452.364 214.114C437.189 215.032 424.114 203.915 423.163 189.283C422.209 174.651 433.739 162.045 448.916 161.127C464.091 160.209 477.166 171.327 478.118 185.959Z" fill="white"/>
<path d="M425.867 186.945H425.617V187.195V187.825V188.075H425.867H434.36H434.61V187.825V187.195V186.945H434.36H425.867Z" fill="#575757" stroke="#575757" stroke-width="0.5"/>
<path d="M466.979 186.945H466.729V187.195V187.825V188.075H466.979H475.472H475.722V187.825V187.195V186.945H475.472H466.979Z" fill="#575757" stroke="#575757" stroke-width="0.5"/>
<path d="M451.182 163.911V163.661H450.932H450.28H450.03V163.911V172.1V172.35H450.28H450.932H451.182V172.1V163.911Z" fill="#575757" stroke="#575757" stroke-width="0.5"/>
<path d="M451.182 203.393V203.143H450.932H450.28H450.03V203.393V211.581V211.831H450.28H450.932H451.182V211.581V203.393Z" fill="#575757" stroke="#575757" stroke-width="0.5"/>
<path d="M451.407 187.621C451.407 188.028 451.064 188.36 450.639 188.36C450.215 188.36 449.871 188.028 449.871 187.621C449.871 187.213 450.215 186.882 450.639 186.882C451.064 186.882 451.407 187.213 451.407 187.621Z" fill="#969696"/>
<path d="M436.437 174.743L436.437 174.743L450.222 188.036C450.222 188.036 450.222 188.036 450.222 188.036C450.34 188.15 450.493 188.202 450.639 188.202C450.785 188.202 450.937 188.149 451.054 188.036C451.291 187.808 451.291 187.436 451.054 187.208L451.054 187.208L437.269 173.915C437.269 173.915 437.269 173.915 437.269 173.915C437.038 173.692 436.668 173.692 436.437 173.915C436.201 174.144 436.201 174.515 436.437 174.743Z" fill="#575757" stroke="#575757" stroke-width="0.5"/>
<path d="M451.201 187.705L451.201 187.705L451.2 187.704C451.11 187.447 450.827 187.313 450.571 187.397C450.318 187.479 450.162 187.754 450.255 188.021C450.255 188.021 450.255 188.021 450.255 188.022L454.711 200.995C454.711 200.995 454.711 200.995 454.711 200.996C454.755 201.126 454.851 201.226 454.966 201.28C455.078 201.334 455.212 201.346 455.338 201.307L455.338 201.307L455.341 201.305C455.594 201.223 455.751 200.948 455.657 200.681C455.657 200.681 455.657 200.681 455.657 200.68L451.201 187.705Z" fill="#575757" stroke="#575757" stroke-width="0.5"/>
<path d="M96.8289 224.659C96.8289 225.92 97.316 226.943 97.9192 226.943C98.5224 226.943 99.0096 225.92 99.0096 224.659C99.0096 223.398 98.5224 222.374 97.9192 222.374C97.316 222.374 96.8289 223.398 96.8289 224.659Z" fill="#F7A491"/>
<path d="M64.491 352.989L70.5669 370.038L68.3792 370.82L67.1148 368.103L67.5278 371.192H66.92L66.2889 369.256L66.3377 373.292C66.3377 373.292 61.2825 373.292 58.8535 372.634V369.751L58.0763 372.511L57.3061 372.152C57.3061 372.152 57.6889 368.764 57.6402 368.97C57.5915 369.176 57.0091 370.741 57.0091 370.741L56.1832 370.627L56.5243 368.148L55.6009 370.495L54.7263 370.083L59.1969 352.994L61.5307 350.812L64.4956 352.994L64.491 352.989Z" fill="#F7CC7F"/>
<path d="M62.0934 355.846C62.7963 355.846 63.3647 355.138 63.3647 354.262V223.309C63.3647 222.435 62.7963 221.725 62.0934 221.725C61.3904 221.725 60.822 222.433 60.822 223.309V354.264C60.822 355.138 61.3904 355.848 62.0934 355.848V355.846Z" fill="#184655"/>
<path d="M86.5509 372.737C86.8339 370.77 86.9244 367.751 86.8943 364.264H94.0281C93.2857 369.2 92.7057 373.042 92.7057 373.042L92.882 374.603L92.8867 379.21H77.2827C77.2827 379.21 80.5956 377.776 85.2285 374.945C85.5719 374.737 86.3607 374.07 86.5532 372.737H86.5509Z" fill="#F7A491"/>
<path d="M116.972 371.579L114.898 365.843H120.327C120.61 369.526 120.715 372.012 120.715 372.012L122.095 375.783L123.496 380.265C123.496 380.265 118.877 381.414 116.455 380.122L116.724 375.66L116.97 371.579H116.972Z" fill="#F7A491"/>
<path d="M88.8055 246.89C90.6893 244.404 98.4588 237.206 99.3218 237.221C101.839 237.264 110.098 237.266 111.71 238.059L111.631 251.764C111.369 252.915 105.667 270.83 105.999 274.754L105.959 274.79C101.18 279.245 93.6449 278.895 89.2741 274.015C89.2741 274.015 89.2927 268.579 88.6199 263.623C87.5666 255.856 84.1261 253.065 88.8055 246.892V246.89Z" fill="#335B4E"/>
<path d="M107.06 239.694C106.932 240.391 104.766 250.731 104.766 250.731C104.766 250.731 102.861 264.026 101.838 265.625C100.949 267.014 91.6277 267.012 89.1662 266.987C89.0758 265.885 88.9597 264.741 88.8066 263.619C87.7534 255.851 84.3129 253.061 88.9922 246.888C90.8366 244.456 98.3231 237.504 99.4436 237.228C99.4854 237.221 99.5062 237.219 99.5062 237.219C99.5062 237.219 107.188 238.998 107.06 239.694Z" fill="#3C8F7C"/>
<path d="M101.853 229.506C101.853 229.506 101.635 234.561 102.106 236.478C102.577 238.395 103.204 238.541 99.167 239.123C97.5801 239.351 96.0513 239.694 96.0513 239.694C96.0513 239.694 96.4665 236.879 96.5292 235.692C96.6313 233.734 96.0629 227.692 96.0629 227.692L101.856 229.506H101.853Z" fill="#F7A491"/>
<path d="M98.7771 232.023C97.9465 232.458 97.1694 232.713 96.4548 232.818C96.3179 230.431 96.0581 227.692 96.0581 227.692L101.584 229.423C100.942 230.458 100.03 231.367 98.7748 232.023H98.7771Z" fill="#F47458"/>
<path d="M116.726 375.642C118.858 376.558 121.152 376.005 122.073 375.713L122.38 376.511L123.556 380.294C123.556 380.294 118.879 381.413 116.457 380.123L116.726 375.644V375.642Z" fill="#1D3B31"/>
<path d="M93.0486 380.352H76.8252C76.2244 380.3 76.0782 379.826 76.287 379.534C76.7162 378.934 78.6069 378.493 80.7343 377.537C84.4648 377.917 92.2946 375.429 92.8839 374.594C93.2226 376.267 93.3804 380.283 93.0463 380.354L93.0486 380.352Z" fill="#1D3B31"/>
<path d="M94.2764 275.014L103.784 340.306L112.442 370.412H121.861C121.861 370.412 119.675 346.158 114.989 337.565C114.989 337.565 112.943 314.54 110.896 300.459C110.59 298.354 112.105 292.891 111.711 291.48C108.674 280.627 105.999 274.752 105.999 274.752L94.2764 275.014Z" fill="#1D3B31"/>
<path d="M100.155 303.246L97.9537 328.328C97.9537 328.328 100.202 342.662 98.659 352.172C97.1162 361.682 95.07 370.412 95.07 370.412H86.412L84.6906 323.047C84.6906 323.047 81.3614 297.311 82.5145 290.332C83.6675 283.353 89.2725 274.015 89.2725 274.015L102.893 274.616C102.893 274.616 106.586 287.391 105.962 291.68C105.498 294.863 100.153 303.246 100.153 303.246H100.155Z" fill="#335B4E"/>
<path d="M58.1056 356.936L59.0637 350.512L60.8849 348.163H63.3046L65.1258 350.512L66.0143 356.987C64.6525 356.277 59.4651 356.226 58.1033 356.936H58.1056Z" fill="#184655"/>
<path d="M57.8814 245.215C57.5079 244.83 57.4684 244.498 57.6378 244.232C57.8048 243.965 58.1412 243.804 58.169 243.75C58.1992 243.696 58.1064 243.555 58.1064 243.555C57.8582 243.318 57.9858 242.877 58.1458 242.682C58.3059 242.487 58.7583 242.33 58.9532 242.362C59.1481 242.393 59.2014 242.321 59.2014 242.321C59.2571 242.001 60.0088 241.396 60.3869 241.49C60.7627 241.582 61.99 242.684 62.164 242.731C62.338 242.778 62.6698 242.832 62.8484 242.989C63.027 243.145 64.7391 243.905 64.992 244.129C65.2472 244.35 65.6068 245.508 65.9641 246.086C66.3214 246.664 66.5 247.871 66.5742 248.198C66.6183 248.391 67.1913 248.922 67.66 249.327C68.0404 249.667 79.8049 258.689 83.1688 261.827L88.4815 250.339L97.0421 251.786C97.1442 251.735 91.3072 269.319 85.7277 270.029C79.5567 270.812 65.7947 253.959 64.419 252.241C63.9968 251.927 63.5722 251.625 63.4817 251.596C63.2938 251.535 62.3148 250.866 62.2406 250.798C62.1663 250.734 61.7163 250.604 61.5283 250.543C61.3404 250.483 59.6445 248.892 59.3592 248.644C59.0738 248.395 58.6516 247.656 58.6516 247.656L57.5659 246.548C56.7678 245.735 57.8814 245.213 57.8814 245.213V245.215Z" fill="#F8A492"/>
<path d="M102.306 242.837C103.475 247.482 97.2438 257.836 97.2438 257.836C97.2438 257.836 88.3677 253.793 86.8064 252.048C86.8064 252.048 92.8383 242.001 93.2327 241.39C95.0213 238.624 97.4526 238.621 99.0348 238.801C100.306 238.946 102.306 242.837 102.306 242.837Z" fill="#41826C"/>
<path d="M113.545 260.228C123.839 257.244 121.083 248.485 121.025 248.816C121.055 248.545 122.025 247.443 122.505 246.5C124.505 242.572 121.867 237.842 118.846 236.207C120.849 231.212 118.86 226.419 115.088 224.424C113.183 223.416 111.583 221.982 110.295 220.325C107.439 216.647 102.245 212.943 95.9995 214.152C89.8215 215.678 98.0921 219.134 97.2732 224.874C96.8579 227.783 98.0504 227.367 99.9133 229.705C97.2337 234.252 98.7835 241.884 102.892 245.345C100.878 253.538 103.041 263.271 113.545 260.228Z" fill="#184655"/>
<path d="M105.897 220.179C107.113 225.022 100.531 228.536 95.3208 228.666C91.9337 228.749 90.377 228.413 89.8295 224.968C88.9409 219.38 91.3258 215.971 94.6689 214.562C98.9817 212.744 104.895 216.186 105.897 220.182V220.179Z" fill="#184655"/>
<path d="M98.2438 216.923C98.2438 216.923 100.536 217.667 101.756 219.899C102.977 222.132 102.371 229.284 97.2903 231.642C92.2096 234.001 89.8734 228.646 90.2423 224.692C90.6112 220.739 92.082 215.568 98.2461 216.921L98.2438 216.923Z" fill="#F7A491"/>
<path d="M95.0695 227.931L91.4644 227.878C91.4644 227.878 91.527 229.226 93.1115 229.293C95.044 229.376 95.0695 227.931 95.0695 227.931Z" fill="white"/>
<path d="M103.56 225.313C104.312 221.617 104.017 218.815 101.298 217.462C98.5794 216.11 96.2525 214.768 93.8189 217.2L93.269 217.5C93.269 217.5 97.8625 218.726 98.1177 221.082C98.3752 223.436 100.816 226.235 100.44 227.393C100.064 228.549 99.6303 230.856 99.6303 230.856L100.637 230.056C100.637 230.056 102.809 229.008 103.56 225.313Z" fill="#184655"/>
<path d="M98.828 223.898C98.4475 224.919 98.7352 225.942 99.4683 226.187C100.201 226.431 101.104 225.799 101.482 224.78C101.862 223.759 101.575 222.735 100.842 222.491C100.109 222.247 99.2061 222.879 98.828 223.898Z" fill="#F7A491"/>
<path d="M52.1486 354.562C52.1695 354.179 52.7912 345.155 62.1197 345.155C71.4482 345.155 72.0677 354.179 72.0909 354.562L73.1789 354.506C73.1743 354.403 72.4899 344.102 62.1197 344.102C51.7496 344.102 51.0675 354.403 51.0605 354.506L52.1486 354.562Z" fill="#355389"/>
<path d="M73.9607 353.78L70.2372 380.352H62.3749H61.8622H53.9999L50.2764 353.78H73.9607Z" fill="#96D9C9"/>
<path d="M48.5196 355.478H75.6003V353.592H48.5196V355.478Z" fill="#3C8F7C"/>
<path d="M458.345 380.269H43.6934V381.991H458.345V380.269Z" fill="#F47458"/>
<path d="M193.223 235.389C192.773 234.984 192.183 234.637 191.55 234.345C194.515 237.071 191.471 250.335 190.854 250.798C190.235 251.262 180.398 251.004 180.131 249.936C179.651 248.012 180.475 244.959 181.301 239.385C181.857 235.627 180.913 233.438 180.24 232.41C179.475 232.354 178.688 232.305 177.9 232.265C177.9 232.265 182.405 235.629 174.035 258.519C173.348 260.398 165.151 259.558 159.034 259.217C158.519 260.794 158.131 262.151 157.939 263.162C156.716 269.578 155.178 286.103 155.178 286.103C163.632 292.97 185.558 288.569 185.558 288.569C185.558 288.569 185.76 278.591 186.228 271.133C186.52 269.204 186.741 267.554 186.998 265.881C188.27 260.893 190.84 257.132 192.912 250.285C195.538 241.611 195.053 237.042 193.225 235.389H193.223Z" fill="#335B4E"/>
<path d="M186.101 210.585C186.101 210.585 187.175 211.431 186.781 212.733C186.387 214.036 183.705 217.685 184.118 219.344C184.531 221.004 183.716 227.515 186.512 228.603C186.512 228.603 187.296 224.587 187.452 224.587C187.607 224.587 189.66 223.541 189.832 222.722C190.004 221.9 190.003 218.791 190.029 218.666C190.055 218.54 189.178 211.597 189.178 211.597L186.099 210.585H186.101Z" fill="#F7CC7F"/>
<path d="M183.312 217.767C182.837 218.882 183.032 219.991 183.748 220.242C184.465 220.493 185.433 219.792 185.908 218.676C186.384 217.561 186.189 216.452 185.472 216.204C184.755 215.953 183.788 216.654 183.312 217.769V217.767Z" fill="#F7A491"/>
<path d="M306.835 375.711C306.835 375.711 309.329 376.419 310.607 376.596C311.885 376.773 313.57 375.284 314.472 375.687C315.467 376.13 315.507 380.489 315.507 380.489C315.507 380.489 302.211 380.903 298.277 380.336C296.727 380.112 301.736 377.36 306.835 375.711Z" fill="#5184CE"/>
<path d="M352.327 367.962C352.171 367.808 348.452 364.137 344.896 358.596C340.119 351.156 337.964 343.89 338.667 337.585C339.156 333.18 341.437 327.188 344.079 320.25C347.234 311.963 350.809 302.572 352.104 293.768C353.556 283.902 351.835 276.656 346.838 271.621C342.105 266.853 336.969 264.436 331.572 264.436C322.418 264.436 315.453 271.353 315.384 271.422L312.957 269.18C313.28 268.853 320.998 261.196 331.572 261.196H331.575C337.922 261.196 343.875 263.95 349.264 269.382C355.022 275.183 357.038 283.31 355.431 294.229C354.085 303.374 350.443 312.937 347.232 321.374C344.668 328.111 342.453 333.93 342.007 337.939C340.495 351.525 354.582 365.555 354.723 365.696L352.327 367.969V367.962Z" fill="#535353"/>
<path d="M361.863 372.896L360.439 374.272C359.346 375.326 357.571 375.326 356.479 374.272L347.753 365.848C346.661 364.793 346.661 363.08 347.753 362.025L349.178 360.65C350.271 359.595 352.045 359.595 353.138 360.65L361.863 369.073C362.956 370.128 362.956 371.841 361.863 372.896Z" fill="#F7CC7F"/>
<path d="M271.186 302.543C271.186 302.543 271.848 306.957 271.862 308.245L276.815 306.415C276.703 303.441 276.348 281.682 275.982 280.768C275.606 279.832 265.322 263.626 265.322 263.626L258.777 270.354L267.442 280.647C267.605 281.541 271.186 302.541 271.186 302.541V302.543Z" fill="#F8A492"/>
<path d="M291.728 364.898C291.728 364.898 291.106 371.465 291.514 373.606C291.57 373.893 291.69 374.256 291.83 374.657C292.252 375.857 291.097 379.524 291.097 379.524L275.599 379.58C274.755 379.582 275.319 379.067 276.005 378.592C277.128 377.817 278.035 377.304 281.615 375.689C281.849 375.584 282.701 375.076 283.007 374.901C283.784 374.455 284.571 373.75 285.248 373.042C286.375 371.862 286.547 366.074 286.547 366.074L291.728 364.903V364.898Z" fill="#F7A491"/>
<path d="M283.009 374.896C287.094 375.958 290.131 375.306 291.834 374.668C292.256 375.866 293.031 380.41 292.558 380.41C288.672 380.41 285.401 380.63 274.265 380.46C273.866 380.453 273.915 379.131 274.174 378.84C274.894 378.034 282.7 375.073 283.009 374.896Z" fill="#1D3B31"/>
<path d="M311.167 286.957C311.167 286.957 310.946 296.33 308.164 302.33C305.455 308.176 292.486 322.593 289.039 331.007C290.104 335.753 293.034 342.425 292.823 347.686C292.581 353.648 292.941 369.423 292.941 369.423L285.981 369.635L276.852 328.929L291.489 291.799L296.855 274.343L311.169 286.957H311.167Z" fill="#1D3B31"/>
<path d="M314.173 370.413C314.173 370.413 314.484 375.746 314.486 375.757C314.599 376.433 315.052 378.106 315.052 378.722C315.052 381.034 304.427 376.76 306.807 375.734C307.023 375.643 308.486 374.417 308.556 373.629C308.665 372.417 308.607 370.487 308.607 370.487L314.17 370.413H314.173Z" fill="#F7A491"/>
<path d="M306.835 375.712C306.835 375.712 309.329 376.42 310.607 376.597C311.886 376.774 313.57 375.284 314.472 375.687C315.468 376.131 315.507 380.489 315.507 380.489C315.507 380.489 302.211 380.904 298.277 380.337C296.727 380.113 301.736 377.36 306.835 375.712Z" fill="#1D3B31"/>
<path d="M253.923 265.115C252.478 259.677 256.413 254.562 256.413 254.562C256.413 254.562 259.032 250.965 260.278 250.17C262.113 249 265.085 246.36 272.012 252.42C276.97 256.759 298.373 268.714 309.421 281.299L289.936 294.919C289.936 294.919 272.863 282.641 270.645 281.189C265.692 277.944 254.861 268.658 253.919 265.115H253.923Z" fill="#3C8F7C"/>
<path d="M247.492 252.494L256.141 254.882C256.141 254.882 257.999 261.025 255.969 263.245C254.267 265.106 251.835 262.255 251.835 262.255C251.835 262.255 248.044 259.207 245.611 258.568C243.177 257.93 247.492 252.496 247.492 252.496V252.494Z" fill="#F7A491"/>
<path d="M249.478 254.909C249.538 256.27 249.381 258.304 248.777 260.094C247.72 259.433 246.562 258.815 245.611 258.566C244.488 258.27 244.803 256.956 245.467 255.623C246.455 253.932 247.492 252.494 247.492 252.494L249.156 252.953C249.39 253.46 249.46 254.456 249.48 254.909H249.478Z" fill="#F47458"/>
<path d="M240.832 242.052C240.93 241.875 248.681 248.263 248.602 251.939C248.523 255.614 245.366 259.533 242.556 259.128C239.45 258.68 232.29 250.801 233.388 246.138C234.485 241.475 240.832 242.05 240.832 242.05V242.052Z" fill="#F7A491"/>
<path d="M233.501 240.931C235.947 238.962 240.322 237.726 243.985 238.801C248.488 240.122 250.444 245.159 249.785 248.572C249.126 251.986 250.966 253.453 250.966 253.453L248.532 252.781C248.532 252.781 246.89 251.002 246.426 249.509C245.962 248.015 243.711 248.707 242.449 248.221C241.48 247.847 240.034 246.319 238.457 245.679C238.457 245.679 234.847 245.907 233.297 247.164C230.655 249.307 229.998 243.75 233.501 240.931Z" fill="#13375B"/>
<path d="M244.461 249.17C244.663 250.304 245.398 251.128 246.103 251.011C246.809 250.895 247.217 249.88 247.015 248.745C246.813 247.611 246.078 246.787 245.373 246.904C244.667 247.02 244.259 248.035 244.461 249.17Z" fill="#F7A491"/>
<path d="M239.216 256.344L242.064 253.341C242.064 253.341 243.197 254.474 241.983 255.831C240.505 257.486 239.216 256.344 239.216 256.344Z" fill="white"/>
<path d="M271.409 304.102L276.734 306.299C277.218 307.094 277.483 308.082 278.198 309.145L273.23 316.884C273.23 316.884 272.599 315.8 272.565 315.869L272.268 317.117C272.268 317.117 271.692 316.964 271.071 317.099C270.544 317.213 270.451 315.728 270.486 315.242C270.588 313.782 271.644 310.012 271.804 309.383L271.409 304.099V304.102Z" fill="#F7A491"/>
<path d="M309.373 281.21C303.416 274.423 294.445 267.818 286.668 262.495C284.132 264.963 276.75 271.991 275.21 271.662C273.345 271.261 264.387 265.576 260.093 261.312C257.124 258.362 257.179 254.864 257.495 252.989C256.845 253.809 256.363 254.472 256.363 254.472C256.363 254.472 256.254 254.615 256.08 254.873C256.036 255.847 256.08 257.041 256.444 257.807C257.149 259.287 258.933 263.211 263.327 266.255C267.723 269.299 273.073 272.862 273.073 272.862C273.073 272.862 268.791 277.705 267.795 277.904C267.795 277.904 257.337 269.467 253.982 265.353C255.442 269.133 265.684 278.383 270.491 281.532C272.707 282.983 289.888 294.827 289.888 294.827C289.888 294.827 299.869 333.973 299.722 332.976C299.576 331.982 307.455 370.728 307.455 370.728L314.684 370.565L311.299 331.811C311.299 331.811 313.951 303.257 314.684 296.435C315.417 289.615 309.376 281.205 309.376 281.205L309.373 281.21Z" fill="#335B4E"/>
<path d="M222.894 376.554H217.818L313.708 268.156L316.696 270.53L222.894 376.554Z" fill="#F7CC7F"/>
<path d="M276.838 310.787C277.314 310.093 278.126 309.786 278.717 310.075C279.833 310.617 281.529 311.781 280.757 313.604C279.643 316.238 274.716 319.876 274.421 318.995C274.126 318.115 274.641 312.48 275.637 312.032C276.214 311.772 276.49 311.293 276.838 310.789V310.787Z" fill="#F48C7F"/>
<path d="M313.674 275.67C313.449 275.173 311.41 272.784 310.58 272.163C310.102 271.807 307.728 270.011 307.601 269.91C302.973 265.473 291.999 249.181 291.215 248.812C290.287 248.375 270.649 247.873 270.649 247.873L270.987 256.765L287.536 256.653C288.287 257.193 302.525 272.112 302.525 272.112C302.525 272.112 303.418 272.763 304.443 273.541C304.441 273.565 304.434 273.588 304.42 273.614C303.958 274.506 303.782 275.469 303.708 276.443C303.617 277.641 303.569 278.846 304.791 279.657C305.179 279.915 305.453 280.282 305.736 280.665C306.104 281.16 306.65 281.577 307.202 281.89C307.742 282.197 308.332 282.072 308.772 281.581C309.044 281.279 309.253 280.882 309.591 280.692C310.174 280.363 314.12 276.667 313.672 275.67H313.674Z" fill="#F7A491"/>
<path d="M281.07 245.979C281.07 245.979 281.527 248.911 281.585 250.904C281.624 252.239 281.598 258.154 281.598 258.154C281.598 258.154 271.604 260.36 267.679 260.506C253.277 261.039 258.478 251.392 259.977 249.706C263.329 245.934 281.07 245.979 281.07 245.979Z" fill="#41826C"/>
<path d="M233.886 358.394L217.818 376.554H222.892L237.166 360.424C236.138 357.326 233.886 358.394 233.886 358.394Z" fill="#BC4D26"/>
<path d="M216.492 375.403H224.442C224.927 375.403 225.319 375.781 225.319 376.249V377.04C225.319 377.506 224.927 377.886 224.442 377.886H216.492C216.009 377.886 215.615 377.508 215.615 377.04V376.249C215.615 375.783 216.007 375.403 216.492 375.403Z" fill="#F7CC7F"/>
<path d="M207.571 376.554H230.641C232.309 376.554 233.661 377.859 233.661 379.47V380.487H204.548V379.47C204.548 377.859 205.901 376.554 207.569 376.554H207.571Z" fill="#FE875E"/>
<path d="M396.099 355.96H383.314C381.762 355.96 380.502 354.744 380.502 353.246V351.353C380.502 349.855 381.762 348.636 383.316 348.636H396.101C397.653 348.636 398.916 349.852 398.916 351.353V353.246C398.916 354.744 397.656 355.962 396.101 355.962L396.099 355.96Z" fill="#F7CC7F"/>
<path d="M405.607 355.452V376.27C405.607 378.641 403.614 380.565 401.157 380.565H354.826C352.366 380.565 350.376 378.641 350.376 376.27V375.853C350.376 363.647 360.219 353.548 372.84 352.809L400.886 351.165C403.445 351.015 405.607 352.979 405.607 355.454V355.452Z" fill="#96D9C9"/>
<g style="mix-blend-mode:multiply">
<path d="M405.607 370.65V376.27C405.607 378.641 403.614 380.565 401.157 380.565H354.826C352.366 380.565 350.376 378.641 350.376 376.27V375.853C350.376 374.066 350.589 372.325 350.988 370.65H405.607Z" fill="#96D9C9"/>
</g>
<path d="M397.624 380.266C404.248 378.757 408.351 372.349 406.787 365.954C405.224 359.559 398.586 355.599 391.962 357.108C385.338 358.617 381.236 365.025 382.799 371.42C384.363 377.815 391 381.776 397.624 380.266Z" fill="#001333"/>
<path d="M394.806 378.068C400.183 378.068 404.542 373.86 404.542 368.668C404.542 363.477 400.183 359.268 394.806 359.268C389.428 359.268 385.069 363.477 385.069 368.668C385.069 373.86 389.428 378.068 394.806 378.068Z" fill="#BAE1F4"/>
</svg>
