<svg width="105" height="118" viewBox="0 0 105 118" fill="none" xmlns="http://www.w3.org/2000/svg">
<g clip-path="url(#clip0_14_1115)">
<path d="M42.9385 44.6034C47.4082 40.6157 51.4325 36.1992 55.7327 32.0486C56.3508 31.4504 56.9057 30.7193 57.8528 30.6229C59.2851 30.4534 60.5778 30.6528 61.3721 32.0585C62.1962 33.5174 62.1131 35.0494 60.96 36.2856C58.9661 38.3725 56.9091 40.3797 54.8786 42.4201C53.7654 43.5367 51.9841 45.3146 50.8908 46.4378C50.4987 46.8399 50.0767 47.3384 50.6649 47.8203C51.1766 48.239 51.5588 47.6973 51.8911 47.3683C54.5496 44.7264 57.8728 41.4066 60.5147 38.758C60.744 38.5254 60.97 38.2928 61.2059 38.0635C63.0868 36.2424 65.0741 36.0064 66.523 37.4321C67.9719 38.8577 67.7791 41.2072 65.9248 43.0582C63.1566 45.823 59.7271 49.2525 56.9822 52.0307C56.6033 52.4129 55.8257 52.8681 56.4505 53.4763C57.0121 54.0246 57.5471 53.3899 57.9592 52.9845C59.9697 50.9906 62.5883 48.2922 64.6321 46.3381C65.6058 45.411 66.7124 44.4572 68.2211 44.9225C70.9494 45.7699 71.6772 48.6245 69.6866 50.7413C67.8622 52.6754 65.2701 55.1811 63.3892 57.0553C63.1201 57.3245 62.8376 57.5837 62.5917 57.8728C62.2594 58.2816 61.7443 58.7535 62.2394 59.2785C62.7346 59.8036 63.2364 59.3516 63.6318 58.9794C64.6919 57.9659 66.3867 56.2544 67.4302 55.2243C69.8029 52.898 71.6606 52.5458 73.1726 54.1542C74.6381 55.7094 74.2693 57.8928 72.1757 59.9797C67.4136 64.7484 62.6349 69.5006 57.8861 74.2693C56.347 75.8061 54.6694 77.1978 52.8748 78.4266C49.525 80.7528 41.4065 86.6846 41.4065 86.6846C41.4065 86.6846 34.6638 80.4205 32.2346 77.9912C28.2468 74.0034 24.2989 69.9658 20.2712 66.0112C19.138 64.898 18.942 64.0738 20.012 62.7213C23.0029 58.9229 23.9766 54.4599 23.7639 49.7045C23.6675 47.6043 24.1527 45.7167 25.5983 44.1382C26.4025 43.2576 27.1901 42.3537 28.0674 41.5428C29.3003 40.403 30.5132 39.2432 31.7228 38.0867C33.4343 36.4617 34.8765 36.6378 36.8106 38.0502C38.4024 39.21 39.396 40.3465 40.7984 41.7057C41.5594 42.4401 41.6225 43.0748 40.7984 43.6995C39.3428 44.8095 38.6616 45.2515 36.8106 45.3611C36.2158 45.3977 34.0856 45.3312 33.4874 45.3611C33.0621 45.3811 32.5636 45.4774 32.4905 46.0258C32.4107 46.6273 33.3246 47.1423 33.7367 47.2287C34.2916 47.3451 38.1665 49.0166 42.9385 44.6034Z" fill="white"/>
<path d="M73.3189 72.9101C70.755 72.424 68.2262 71.769 65.7487 70.9494C64.3995 70.5174 65.9016 69.1416 66.4133 68.6232C69.1151 65.8949 74.6946 60.7274 75.0536 60.3153C77.3 57.7499 75.9807 53.3832 72.8869 51.941C71.5576 51.3129 71.4313 50.7446 71.9497 49.4552C72.9865 46.8864 71.9065 44.434 69.3277 43.4337C68.1048 42.9585 68.0849 42.3969 68.5136 41.3202C69.7531 38.1964 68.1248 35.3119 64.7817 34.6738C63.8578 34.501 63.479 34.1322 63.4092 33.195C63.243 30.9984 62.0168 29.5861 59.9764 28.8051C57.936 28.0242 56.3375 28.7387 54.9052 30.1344C51.5356 33.4277 48.1792 36.7375 44.7962 40.0175C44.2944 40.506 43.8424 41.4597 42.9186 40.7984C42.0745 40.1903 41.277 39.5057 41.6591 38.2097C42.5497 35.159 43.3573 32.0818 44.2445 29.0278C45.5505 24.5914 46.9529 20.1284 48.1858 15.6388C48.6344 14.0337 49.4021 13.6881 50.9374 14.1334C59.4845 16.6158 68.0251 19.045 76.5689 21.4842C79.6705 22.3704 82.7843 23.2477 85.9103 24.1162C89.0108 24.9835 90.5627 27.0272 89.8316 30.1178C88.7649 34.7037 87.3692 39.2133 86.0931 43.7427C83.7336 52.137 81.3343 60.5214 79.0081 68.9256C78.3003 71.4978 76.5855 72.9267 73.3189 72.9101Z" fill="white"/>
<path d="M24.362 87.3526L18.7924 82.0588C18.7924 82.0588 12.2192 75.3227 8.84621 72.0428C7.826 71.0458 7.6964 70.3313 8.79968 69.3211C10.3948 67.8589 11.9035 66.2937 13.4056 64.7285C14.1201 63.9808 14.6916 63.8113 15.5058 64.6321C22.4845 71.6473 38.6649 87.3526 38.6649 87.3526H24.362Z" fill="white"/>
<path d="M34.3947 35.0028C33.3976 35.0546 32.417 35.2795 31.4969 35.6675C31.1048 35.8137 30.6661 36.1294 30.2807 35.7206C29.9483 35.3883 30.2574 34.9962 30.3604 34.6439C32.1328 28.6002 33.9051 22.5565 35.6775 16.5128C37.0333 11.9002 39.0538 10.7837 43.6531 12.0863C47.3085 13.1198 47.3384 13.1331 46.3116 16.7554C44.4938 23.1857 42.6229 29.5994 40.7685 36.0297C40.3033 37.6381 39.9544 37.7444 38.7015 36.6943C37.5285 35.7273 36.269 34.9962 34.3947 35.0028Z" fill="white"/>
<path d="M97.1525 62.1929C97.1687 62.4322 97.1103 62.6707 96.9853 62.8754C96.8603 63.0802 96.6749 63.2411 96.4547 63.3361C94.8602 64.0755 93.5692 65.3418 92.7992 66.9218C92.3373 67.8955 91.1974 67.9187 90.6824 66.8985C89.8449 65.2668 88.5821 64.1968 87.0535 63.2862C86.01 62.6681 86.0366 61.5682 87.1532 61.0896C88.7848 60.3918 89.7186 59.1456 90.5893 57.7166C91.3138 56.5303 92.1479 56.5336 92.8524 57.7166C93.6403 59.1036 94.7886 60.2518 96.1755 61.0398C96.418 61.1411 96.6329 61.2984 96.8027 61.4988C96.9726 61.6993 97.0925 61.9372 97.1525 62.1929Z" fill="white"/>
<path d="M11.7407 23.7639C11.439 23.757 11.1459 23.6617 10.8978 23.4898C10.6497 23.3179 10.4575 23.077 10.345 22.7969C9.69698 21.5274 8.61363 20.7232 7.29434 20.0686C5.97504 19.4139 5.92852 18.51 7.23452 17.8487C8.56726 17.1694 9.69399 16.1459 10.4979 14.8844C11.332 13.6216 12.2292 13.6482 13.0002 14.9675C13.6615 16.2004 14.7135 17.1788 15.991 17.749C17.4167 18.3804 17.4333 19.4106 16.0608 20.0752C14.737 20.6529 13.6453 21.6581 12.9603 22.9298C12.8489 23.1642 12.6773 23.3648 12.463 23.5114C12.2488 23.6579 11.9996 23.745 11.7407 23.7639Z" fill="white"/>
<path d="M77.1538 86.0698C76.0505 85.9834 72.3352 86.0898 72.5845 84.5345C72.7506 83.6107 73.5249 83.5376 74.3092 83.5974C79.7459 84.9001 85.5348 81.9059 87.6649 76.3031C87.7613 74.4953 90.4464 74.0499 90.144 76.1834C88.8779 82.082 82.9926 85.9602 77.1538 86.0698Z" fill="white"/>
<path d="M37.9072 0C38.8543 0.132926 39.8147 0.222652 40.7519 0.412072C41.5328 0.56826 42.244 0.996948 42.0811 1.91082C41.9183 2.82469 41.1174 2.92438 40.3099 2.79145C35.8037 2.04042 32.2346 3.54581 29.5761 7.24449C29.0876 7.92573 28.8151 8.76317 28.4362 9.52417C28.0574 10.2852 27.6221 10.8833 26.7082 10.4646C25.7943 10.0459 25.9405 9.31482 26.1964 8.5372C27.7949 3.67541 32.7131 0.112987 37.9072 0Z" fill="white"/>
<path d="M38.0967 7.949C37.3458 7.88765 36.5921 8.02667 35.9125 8.35186C35.2329 8.67706 34.6518 9.17678 34.2285 9.8C33.9161 10.232 33.6536 10.7039 33.3246 11.1293C32.9956 11.5546 32.4705 11.7939 31.9056 11.5048C31.6656 11.381 31.4737 11.1809 31.36 10.9361C31.2463 10.6912 31.2172 10.4154 31.2775 10.1523C31.6597 7.16141 36.7142 4.48294 39.4226 5.83215C40.0174 6.13123 40.3597 6.5433 40.1304 7.23784C39.9011 7.93238 39.4891 8.05534 38.0967 7.949Z" fill="white"/>
<path d="M77.9912 80.4204C77.6789 80.4204 77.3631 80.437 77.0508 80.4204C76.2798 80.3673 75.5022 80.2144 75.5321 79.2307C75.562 78.2471 76.3562 78.1341 77.1272 78.1673C79.3305 78.2604 80.9954 77.5027 81.886 75.3559C82.1751 74.6614 82.7267 74.2327 83.5176 74.5883C84.3086 74.9439 84.2421 75.6251 84.0361 76.333C83.3548 78.6392 80.7229 80.437 77.9912 80.4204Z" fill="white"/>
<path d="M20.3975 11.6311C19.4006 11.6311 18.5432 10.7172 18.5133 9.63716C18.5182 9.12738 18.7159 8.63835 19.0667 8.26844C19.4175 7.89852 19.8954 7.67516 20.4042 7.64327C21.5806 7.59674 22.3715 8.39098 22.3815 9.63716C22.3979 9.90242 22.3578 10.1681 22.2641 10.4168C22.1703 10.6655 22.0249 10.8914 21.8375 11.0798C21.65 11.2682 21.4248 11.4148 21.1766 11.5098C20.9284 11.6048 20.6629 11.6461 20.3975 11.6311Z" fill="white"/>
<path d="M4.75876 96.4945V103.447H2.89447V96.4945H0V95.1653H7.64327V96.4945H4.75876Z" fill="white"/>
<path d="M15.1935 103.447V99.8908H11.2987V103.447H9.43774V95.1587H11.2987V98.4519H15.1935V95.1587H17.0544V103.447H15.1935Z" fill="white"/>
<path d="M19.5867 103.447V95.1587H26.6152V96.4879H21.4476V98.5782H26.223V99.9075H21.4476V102.097H26.8644V103.427L19.5867 103.447Z" fill="white"/>
<path d="M41.2071 99.2362C41.2254 100.017 41.0361 100.789 40.6588 101.473C40.3024 102.103 39.7669 102.613 39.1202 102.938C38.4173 103.286 37.6413 103.46 36.8571 103.447H33.2316V95.1587H36.455C37.9604 95.1587 39.1136 95.491 39.9543 96.2088C40.7951 96.9266 41.2071 97.9202 41.2071 99.2362ZM39.3163 99.2362C39.3411 98.863 39.2878 98.4887 39.1596 98.1373C39.0314 97.786 38.8312 97.4653 38.5719 97.1958C38.0767 96.7272 37.3623 96.4946 36.4351 96.4946H35.1058V102.111H36.6843C37.0408 102.127 37.3966 102.066 37.7275 101.933C38.0584 101.799 38.3566 101.596 38.6018 101.336C39.1004 100.754 39.3562 100.002 39.3163 99.2362Z" fill="white"/>
<path d="M47.1058 103.563C45.874 103.563 44.9325 103.285 44.2811 102.729C43.9484 102.43 43.6875 102.06 43.5178 101.646C43.348 101.233 43.2739 100.786 43.3008 100.339V95.1587H45.1651V100.21C45.1283 100.48 45.1545 100.756 45.2417 101.014C45.3289 101.273 45.4747 101.508 45.6677 101.701C45.8607 101.894 46.0958 102.04 46.3545 102.127C46.6132 102.214 46.8885 102.241 47.159 102.204C47.4382 102.222 47.7182 102.185 47.9829 102.094C48.2475 102.003 48.4916 101.861 48.7009 101.675C48.8896 101.472 49.0346 101.233 49.1272 100.972C49.2198 100.711 49.2579 100.433 49.2393 100.157V95.172H51.1169V100.266C51.1429 100.727 51.062 101.188 50.8804 101.612C50.6988 102.036 50.4215 102.413 50.0701 102.712C49.3622 103.277 48.3786 103.563 47.1058 103.563Z" fill="white"/>
<path d="M59.7305 103.447L56.5237 99.6449L55.4104 100.429V103.447H53.5494V95.1587H55.4104V98.9172L59.4348 95.1587H61.6247L57.823 98.6712L61.9537 103.447H59.7305Z" fill="white"/>
<path d="M63.7017 103.447V95.1587H70.7301V96.4879H65.5659V98.5782H70.338V99.9075H65.5659V102.097H70.9794V103.427L63.7017 103.447Z" fill="white"/>
<path d="M83.4944 103.447L81.4174 100.296H79.2274V103.447H77.3665V95.1587H81.8261C82.8895 95.1587 83.7104 95.3713 84.2886 95.7967C84.574 96.0052 84.8029 96.2815 84.9549 96.6005C85.1069 96.9196 85.1772 97.2715 85.1593 97.6244C85.17 98.173 84.981 98.7068 84.6276 99.1265C84.2538 99.5589 83.7461 99.8537 83.1853 99.9639L85.5979 103.447H83.4944ZM83.275 97.6976C83.275 96.9033 82.7201 96.5079 81.6135 96.5079H79.2175V98.9471H81.6733C82.096 98.9739 82.5153 98.8568 82.863 98.6147C82.9981 98.5051 83.1058 98.3653 83.1773 98.2067C83.2489 98.048 83.2823 97.8748 83.275 97.7009V97.6976Z" fill="white"/>
<path d="M87.5121 103.447V95.1587H94.5372V96.4879H89.3731V98.5782H94.1484V99.9075H89.3731V102.097H94.7898V103.427L87.5121 103.447Z" fill="white"/>
<path d="M101.356 100.05V103.447H99.4953V100.05L96.3018 95.1587H98.2591L100.403 98.6712L102.576 95.1587H104.533L101.356 100.05Z" fill="white"/>
<path d="M3.75855 115.211C3.75926 115.445 3.69484 115.675 3.57245 115.875C3.44455 116.079 3.25811 116.24 3.03742 116.337C2.77809 116.452 2.49664 116.507 2.21328 116.5H1.15984V117.886H0.275879V113.964H2.17673C2.5942 113.938 3.0081 114.055 3.3498 114.297C3.48516 114.406 3.59276 114.546 3.6638 114.705C3.73483 114.863 3.7673 115.037 3.75855 115.211ZM2.86794 115.211C2.86794 114.799 2.60541 114.592 2.08035 114.592H1.15984V115.865H2.10029C2.30222 115.877 2.50206 115.819 2.66523 115.699C2.73183 115.64 2.78452 115.566 2.81956 115.484C2.85459 115.402 2.87111 115.313 2.86794 115.224V115.211Z" fill="white"/>
<path d="M6.92219 117.899L5.92525 116.404H4.89507V117.899H4.01111V113.964H6.12796C6.53994 113.94 6.94917 114.046 7.29771 114.267C7.43231 114.366 7.54031 114.498 7.61217 114.649C7.68404 114.8 7.71756 114.967 7.70978 115.134C7.71435 115.395 7.62468 115.649 7.45722 115.849C7.2801 116.054 7.03888 116.193 6.77265 116.244L7.91582 117.906L6.92219 117.899ZM6.81918 115.171C6.81918 114.795 6.55665 114.606 6.03159 114.606H4.89507V115.762H6.0615C6.26217 115.777 6.46171 115.722 6.62643 115.606C6.68998 115.553 6.74046 115.487 6.7739 115.411C6.80733 115.335 6.82283 115.253 6.81918 115.171Z" fill="white"/>
<path d="M12.2093 115.915C12.218 116.291 12.1275 116.662 11.9468 116.992C11.7733 117.3 11.5117 117.548 11.1957 117.706C10.8404 117.877 10.4499 117.961 10.0559 117.952C9.77191 117.97 9.48729 117.93 9.21859 117.837C8.94988 117.743 8.70246 117.597 8.4907 117.407C8.29888 117.211 8.14969 116.977 8.05248 116.72C7.95527 116.463 7.91213 116.189 7.92576 115.915C7.91051 115.643 7.95294 115.37 8.0503 115.115C8.14765 114.861 8.29773 114.629 8.4907 114.436C8.92447 114.059 9.48878 113.867 10.0626 113.901C10.6356 113.869 11.1985 114.062 11.6311 114.44C11.8262 114.631 11.9786 114.861 12.0783 115.115C12.1779 115.37 12.2226 115.642 12.2093 115.915ZM11.3054 115.915C11.3243 115.553 11.2056 115.197 10.9731 114.918C10.8568 114.794 10.7146 114.697 10.5567 114.634C10.3988 114.571 10.229 114.543 10.0592 114.553C9.88877 114.543 9.71828 114.571 9.55942 114.633C9.40055 114.696 9.25705 114.792 9.13871 114.915C8.92381 115.208 8.80794 115.562 8.80794 115.925C8.80794 116.288 8.92381 116.642 9.13871 116.935C9.25408 117.062 9.39635 117.161 9.55507 117.225C9.71379 117.29 9.88493 117.318 10.0559 117.307C10.2248 117.316 10.3935 117.288 10.5506 117.225C10.7077 117.163 10.8495 117.067 10.9665 116.945C11.2031 116.656 11.3218 116.288 11.2988 115.915H11.3054Z" fill="white"/>
<path d="M13.3924 114.599V115.819H15.5591V116.45H13.3924V117.899H12.5084V113.964H15.6189V114.599H13.3924Z" fill="white"/>
<path d="M15.8947 117.899V113.964H19.2178V114.599H16.7786V115.596H19.045V116.231H16.7786V117.271H19.3474V117.906L15.8947 117.899Z" fill="white"/>
<path d="M23.0826 116.762C23.0892 116.936 23.0504 117.108 22.9699 117.262C22.8895 117.416 22.7703 117.546 22.624 117.64C22.2094 117.869 21.7378 117.975 21.2649 117.946C20.8233 117.969 20.3833 117.876 19.9888 117.676C19.8383 117.59 19.7076 117.474 19.6052 117.334C19.5027 117.194 19.4307 117.035 19.3939 116.866L20.248 116.733C20.2701 116.827 20.311 116.916 20.368 116.994C20.4251 117.072 20.4973 117.138 20.5803 117.188C20.7987 117.296 21.0413 117.347 21.2848 117.334C21.9029 117.334 22.212 117.158 22.212 116.802C22.2133 116.752 22.2045 116.701 22.1863 116.654C22.168 116.607 22.1406 116.563 22.1056 116.527C22.0187 116.445 21.9157 116.383 21.8032 116.344C21.5605 116.268 21.3129 116.209 21.0621 116.168C20.7464 116.101 20.5238 116.045 20.3975 116.005C20.2824 115.965 20.1712 115.915 20.0652 115.855C19.9704 115.801 19.8842 115.732 19.8093 115.653C19.7374 115.571 19.682 115.476 19.6465 115.373C19.6071 115.252 19.5881 115.125 19.59 114.998C19.5838 114.836 19.6205 114.675 19.6964 114.531C19.7722 114.388 19.8845 114.267 20.022 114.18C20.4035 113.967 20.8384 113.868 21.2748 113.895C21.6836 113.871 22.0917 113.951 22.4612 114.127C22.5965 114.209 22.7122 114.32 22.8 114.451C22.8879 114.583 22.9458 114.732 22.9696 114.888L22.1089 114.991C22.0708 114.834 21.9746 114.698 21.8398 114.609C21.6628 114.513 21.4623 114.47 21.2615 114.483C20.7232 114.483 20.4507 114.639 20.4507 114.951C20.4481 115.042 20.4788 115.131 20.5371 115.201C20.607 115.276 20.6935 115.334 20.7896 115.37C21.0141 115.446 21.2441 115.503 21.4775 115.543C21.7735 115.591 22.0648 115.664 22.3482 115.762C22.4996 115.817 22.6401 115.898 22.7636 116.001C22.8659 116.093 22.9465 116.207 22.9995 116.334C23.0558 116.47 23.084 116.615 23.0826 116.762Z" fill="white"/>
<path d="M26.8212 116.763C26.8274 116.936 26.7881 117.109 26.707 117.263C26.626 117.417 26.5061 117.547 26.3593 117.64C25.9447 117.87 25.4731 117.976 25.0001 117.946C24.5585 117.969 24.1186 117.876 23.724 117.676C23.574 117.59 23.4436 117.473 23.3412 117.334C23.2387 117.194 23.1665 117.035 23.1292 116.866L23.9832 116.733C24.0054 116.827 24.0462 116.916 24.1033 116.994C24.1603 117.072 24.2325 117.138 24.3155 117.188C24.534 117.296 24.7766 117.346 25.02 117.334C25.6381 117.334 25.9472 117.158 25.9472 116.802C25.9492 116.752 25.9409 116.701 25.9226 116.653C25.9043 116.606 25.8765 116.563 25.8408 116.527C25.7547 116.446 25.6529 116.384 25.5418 116.344C25.2978 116.269 25.0491 116.21 24.7974 116.168C24.4651 116.101 24.259 116.045 24.1327 116.005C24.0173 115.966 23.906 115.916 23.8004 115.855C23.7046 115.801 23.6173 115.732 23.5412 115.653C23.4693 115.571 23.4139 115.476 23.3784 115.373C23.3402 115.252 23.3223 115.125 23.3252 114.998C23.3194 114.836 23.3559 114.676 23.431 114.532C23.5062 114.389 23.6175 114.268 23.7539 114.18C24.1364 113.966 24.5726 113.867 25.0101 113.895C25.4177 113.871 25.8248 113.951 26.1931 114.127C26.3284 114.209 26.4441 114.32 26.5319 114.451C26.6198 114.583 26.6777 114.732 26.7015 114.888L25.8408 114.991C25.8054 114.834 25.71 114.697 25.575 114.609C25.3967 114.514 25.1953 114.47 24.9934 114.483C24.4551 114.483 24.1859 114.639 24.1859 114.951C24.1821 115.042 24.2117 115.131 24.269 115.201C24.3398 115.275 24.426 115.333 24.5216 115.37C24.7461 115.445 24.9761 115.503 25.2094 115.543C25.5065 115.591 25.7988 115.665 26.0834 115.762C26.234 115.819 26.3744 115.9 26.4988 116.002C26.6001 116.094 26.6796 116.207 26.7315 116.334C26.79 116.469 26.8205 116.615 26.8212 116.763Z" fill="white"/>
<path d="M27.1036 117.899V113.964H27.9876V117.899H27.1036Z" fill="white"/>
<path d="M32.567 115.915C32.5747 116.291 32.483 116.663 32.3012 116.992C32.1279 117.299 31.8677 117.547 31.5534 117.706C31.198 117.876 30.8076 117.961 30.4136 117.952C30.1291 117.97 29.844 117.93 29.5748 117.837C29.3056 117.743 29.0575 117.597 28.8451 117.407C28.6533 117.211 28.5041 116.977 28.4069 116.72C28.3096 116.463 28.2665 116.189 28.2801 115.915C28.2649 115.643 28.3073 115.37 28.4047 115.115C28.502 114.861 28.6521 114.629 28.8451 114.436C29.2971 114.088 29.8515 113.9 30.4219 113.9C30.9923 113.9 31.5467 114.088 31.9987 114.436C32.1925 114.629 32.3433 114.86 32.4412 115.115C32.5392 115.37 32.582 115.642 32.567 115.915ZM31.6598 115.915C31.677 115.553 31.5585 115.198 31.3275 114.918C31.211 114.794 31.0688 114.697 30.911 114.634C30.7531 114.571 30.5834 114.543 30.4136 114.553C30.2431 114.543 30.0726 114.57 29.9137 114.633C29.7548 114.695 29.6113 114.792 29.4931 114.915C29.2603 115.193 29.1416 115.549 29.1608 115.912C29.1388 116.281 29.2575 116.644 29.4931 116.929C29.6081 117.056 29.7502 117.156 29.9088 117.222C30.0675 117.287 30.2388 117.317 30.4103 117.308C30.5805 117.318 30.7509 117.291 30.9098 117.229C31.0687 117.167 31.2123 117.071 31.3308 116.949C31.5647 116.657 31.6809 116.288 31.6565 115.915H31.6598Z" fill="white"/>
<path d="M35.4381 117.899L33.5871 114.868C33.619 115.103 33.639 115.339 33.647 115.576V117.902H32.8594V113.964H33.8563L35.7372 117.015C35.7027 116.762 35.6827 116.506 35.6774 116.251V113.964H36.4617V117.899H35.4381Z" fill="white"/>
<path d="M39.9311 117.899L39.5589 116.902H37.9405L37.5617 117.899H36.6777L38.2164 113.964H39.2632L40.8084 117.899H39.9311ZM38.7414 114.576V114.639C38.7215 114.709 38.6982 114.785 38.6716 114.872C38.645 114.958 38.4722 115.423 38.1532 116.277H39.3728L38.9475 115.151L38.8212 114.772L38.7414 114.576Z" fill="white"/>
<path d="M41.0144 117.899V113.964H41.8984V117.264H44.1714V117.899H41.0144Z" fill="white"/>
<path d="M47.6408 117.308C47.8839 117.32 48.1244 117.253 48.3266 117.118C48.5289 116.982 48.6823 116.786 48.7641 116.556L49.535 116.832C49.3899 117.188 49.1319 117.486 48.8006 117.68C48.4453 117.873 48.0451 117.968 47.6408 117.956C47.0637 117.992 46.4955 117.8 46.059 117.42C45.8677 117.222 45.7196 116.986 45.6241 116.728C45.5286 116.469 45.4877 116.194 45.5041 115.918C45.4869 115.646 45.5259 115.373 45.6185 115.117C45.7111 114.86 45.8554 114.625 46.0424 114.426C46.4741 114.054 47.0353 113.866 47.6043 113.905C48.0285 113.886 48.4499 113.983 48.8239 114.184C49.1379 114.366 49.3743 114.657 49.4885 115.001L48.7109 115.201C48.6426 115 48.503 114.833 48.3188 114.729C48.1107 114.609 47.8741 114.548 47.6342 114.553C47.4657 114.541 47.2965 114.566 47.1387 114.626C46.9808 114.686 46.838 114.78 46.7203 114.902C46.4931 115.19 46.3817 115.552 46.408 115.918C46.385 116.292 46.5037 116.661 46.7403 116.952C46.8572 117.071 46.9977 117.164 47.1529 117.225C47.308 117.286 47.4742 117.314 47.6408 117.308Z" fill="white"/>
<path d="M49.7444 117.899V113.964H50.6283V117.264H52.9014V117.899H49.7444Z" fill="white"/>
<path d="M53.1306 117.899V113.964H56.4538V114.599H54.0013V115.596H56.2677V116.231H54.0013V117.271H56.5701V117.906L53.1306 117.899Z" fill="white"/>
<path d="M59.8601 117.899L59.4879 116.902H57.8695L57.4906 117.899H56.6067L58.1553 113.964H59.2021L60.7473 117.899H59.8601ZM58.6737 114.576L58.6571 114.639L58.5873 114.872C58.5607 114.955 58.3879 115.423 58.0722 116.277H59.2885L58.8664 115.151L58.7402 114.772L58.6737 114.576Z" fill="white"/>
<path d="M63.5222 117.899L61.6745 114.868C61.7078 115.161 61.7277 115.397 61.731 115.576V117.902H60.9468V113.964H61.9437L63.8246 117.015C63.7901 116.762 63.7701 116.506 63.7648 116.251V113.964H64.5524V117.899H63.5222Z" fill="white"/>
<path d="M65.0243 117.899V113.964H65.9082V117.899H65.0243Z" fill="white"/>
<path d="M68.9389 117.899L67.0879 114.868C67.1197 115.103 67.1397 115.339 67.1477 115.576V117.902H66.3601V113.964H67.3571L69.2346 117.015C69.2027 116.761 69.1839 116.506 69.1781 116.251V113.964H69.9624V117.899H68.9389Z" fill="white"/>
<path d="M72.4448 117.307C72.6697 117.308 72.8935 117.277 73.1095 117.214C73.2909 117.17 73.4616 117.09 73.6113 116.979V116.434H72.5711V115.829H74.4387V117.274C74.1889 117.505 73.8901 117.677 73.5648 117.776C73.198 117.896 72.8142 117.957 72.4282 117.956C71.85 117.994 71.2796 117.804 70.8398 117.427C70.647 117.228 70.4978 116.991 70.4017 116.732C70.3056 116.472 70.2646 116.195 70.2815 115.918C70.2632 115.644 70.3039 115.369 70.4008 115.112C70.4976 114.854 70.6484 114.621 70.8431 114.426C71.2927 114.053 71.8683 113.866 72.4515 113.905C73.4484 113.905 74.0798 114.237 74.349 114.931L73.5348 115.161C73.4504 114.968 73.3042 114.809 73.1194 114.709C72.9145 114.602 72.6859 114.548 72.4548 114.553C72.2802 114.54 72.1049 114.566 71.941 114.627C71.777 114.688 71.6281 114.784 71.5044 114.908C71.271 115.186 71.1522 115.543 71.1721 115.905C71.1459 116.279 71.265 116.648 71.5044 116.935C71.6262 117.06 71.7729 117.158 71.9349 117.222C72.097 117.286 72.2707 117.315 72.4448 117.307Z" fill="white"/>
<path d="M79.573 116.762C79.5807 116.937 79.5425 117.111 79.462 117.266C79.3815 117.421 79.2616 117.552 79.1144 117.646C78.6997 117.876 78.2282 117.982 77.7552 117.952C77.3136 117.975 76.8737 117.883 76.4791 117.683C76.3287 117.597 76.198 117.48 76.0955 117.341C75.993 117.201 75.9211 117.041 75.8843 116.872L76.7383 116.739C76.7605 116.833 76.8013 116.922 76.8584 117.001C76.9155 117.079 76.9876 117.145 77.0706 117.195C77.289 117.303 77.5317 117.353 77.7752 117.341C78.3933 117.341 78.7023 117.165 78.7023 116.809C78.7036 116.758 78.6949 116.708 78.6766 116.661C78.6584 116.613 78.631 116.57 78.596 116.533C78.5091 116.452 78.4061 116.39 78.2936 116.35C78.0507 116.275 77.8032 116.217 77.5525 116.174C77.2202 116.108 77.0141 116.051 76.8879 116.011C76.7728 115.972 76.6615 115.922 76.5556 115.862C76.4607 115.807 76.3745 115.739 76.2997 115.659C76.2265 115.579 76.1711 115.483 76.1368 115.38C76.0975 115.259 76.0784 115.132 76.0803 115.005C76.0742 114.842 76.1109 114.681 76.1867 114.538C76.2626 114.394 76.3749 114.273 76.5124 114.187C76.8939 113.973 77.3288 113.874 77.7652 113.901C78.1739 113.878 78.582 113.958 78.9516 114.134C79.086 114.217 79.2009 114.328 79.2887 114.459C79.3764 114.59 79.4348 114.739 79.46 114.895L78.5993 114.998C78.5611 114.841 78.465 114.704 78.3301 114.616C78.1532 114.52 77.9527 114.476 77.7519 114.489C77.2102 114.489 76.941 114.646 76.941 114.958C76.9384 115.049 76.9692 115.138 77.0274 115.207C77.0969 115.283 77.1835 115.341 77.28 115.377C77.5044 115.452 77.7344 115.51 77.9679 115.55C78.2639 115.598 78.5552 115.671 78.8386 115.769C78.9899 115.824 79.1305 115.905 79.254 116.008C79.3563 116.1 79.4369 116.214 79.4899 116.34C79.5453 116.474 79.5735 116.618 79.573 116.762Z" fill="white"/>
<path d="M79.8589 117.899V113.964H83.1821V114.599H80.7528V115.596H83.0192V116.231H80.7528V117.271H83.325V117.906L79.8589 117.899Z" fill="white"/>
<path d="M86.5052 117.899L85.5082 116.404H84.4681V117.899H83.5841V113.964H85.701C86.1129 113.94 86.5222 114.046 86.8707 114.267C87.0053 114.366 87.1133 114.498 87.1852 114.649C87.257 114.8 87.2906 114.967 87.2828 115.134C87.2873 115.395 87.1977 115.649 87.0302 115.849C86.8524 116.053 86.6115 116.192 86.3456 116.244L87.4888 117.906L86.5052 117.899ZM86.3988 115.171C86.3988 114.795 86.1396 114.606 85.6146 114.606H84.478V115.762H85.6445C85.8442 115.777 86.0429 115.722 86.2061 115.606C86.2708 115.554 86.3224 115.488 86.3565 115.412C86.3905 115.336 86.4062 115.254 86.4021 115.171H86.3988Z" fill="white"/>
<path d="M89.7652 117.899H88.868L87.2994 113.964H88.22L89.0973 116.493C89.1504 116.656 89.2269 116.905 89.3199 117.238L89.3864 116.995L89.5359 116.493L90.4033 113.964H91.3238L89.7652 117.899Z" fill="white"/>
<path d="M91.4069 117.899V113.964H92.2908V117.899H91.4069Z" fill="white"/>
<path d="M94.7101 117.308C94.9528 117.32 95.1929 117.253 95.3948 117.118C95.5966 116.983 95.7493 116.786 95.83 116.556L96.6043 116.832C96.4581 117.187 96.2003 117.485 95.8698 117.68C95.5146 117.873 95.1143 117.968 94.7101 117.956C94.133 117.992 93.5647 117.8 93.1282 117.42C92.9369 117.222 92.7889 116.986 92.6933 116.728C92.5978 116.469 92.5569 116.194 92.5733 115.918C92.5561 115.646 92.5951 115.373 92.6877 115.117C92.7803 114.86 92.9246 114.625 93.1116 114.426C93.5431 114.053 94.1045 113.866 94.6735 113.905C95.0967 113.886 95.517 113.983 95.8898 114.184C96.2044 114.365 96.441 114.656 96.5544 115.001L95.7735 115.201C95.7077 115 95.5689 114.832 95.3847 114.729C95.1756 114.609 94.9378 114.548 94.6968 114.553C94.5287 114.541 94.3602 114.566 94.2029 114.626C94.0456 114.687 93.9034 114.781 93.7862 114.902C93.559 115.19 93.4476 115.552 93.4738 115.918C93.4509 116.292 93.5695 116.661 93.8062 116.952C93.9232 117.072 94.0643 117.165 94.2201 117.226C94.3758 117.288 94.5428 117.315 94.7101 117.308Z" fill="white"/>
<path d="M96.8235 117.899V113.964H100.147V114.599H97.7008V115.596H99.9639V116.231H97.7008V117.271H100.27V117.906L96.8235 117.899Z" fill="white"/>
<path d="M104.015 116.762C104.023 116.937 103.984 117.111 103.904 117.266C103.823 117.421 103.703 117.552 103.556 117.646C103.142 117.876 102.67 117.982 102.197 117.952C101.754 117.975 101.314 117.882 100.918 117.683C100.768 117.597 100.638 117.48 100.536 117.34C100.434 117.201 100.362 117.041 100.326 116.872L101.18 116.739C101.202 116.834 101.243 116.923 101.3 117.001C101.357 117.079 101.429 117.145 101.513 117.195C101.732 117.303 101.976 117.353 102.22 117.341C102.838 117.341 103.148 117.165 103.148 116.809C103.149 116.758 103.14 116.707 103.121 116.66C103.102 116.612 103.074 116.569 103.038 116.533C102.953 116.451 102.851 116.389 102.739 116.35C102.496 116.275 102.248 116.217 101.998 116.174C101.665 116.108 101.459 116.051 101.333 116.011C101.218 115.972 101.107 115.922 101.001 115.862C100.905 115.808 100.819 115.74 100.745 115.659C100.672 115.579 100.616 115.483 100.582 115.38C100.543 115.259 100.524 115.132 100.526 115.005C100.519 114.842 100.556 114.681 100.632 114.538C100.708 114.394 100.82 114.273 100.958 114.187C101.339 113.973 101.774 113.874 102.21 113.901C102.618 113.877 103.025 113.957 103.393 114.134C103.529 114.216 103.645 114.327 103.733 114.458C103.821 114.59 103.88 114.739 103.905 114.895L103.041 114.998C103.006 114.841 102.91 114.704 102.775 114.616C102.598 114.52 102.398 114.476 102.197 114.489C101.655 114.489 101.386 114.646 101.386 114.958C101.384 115.049 101.414 115.138 101.473 115.207C101.542 115.283 101.629 115.341 101.725 115.377C101.948 115.452 102.177 115.51 102.41 115.55C102.707 115.597 102.999 115.671 103.284 115.769C103.435 115.824 103.576 115.905 103.699 116.008C103.802 116.099 103.881 116.213 103.932 116.34C103.989 116.474 104.017 116.618 104.015 116.762Z" fill="white"/>
<path d="M63.5886 107.67H33.6802V108.667H63.5886V107.67Z" fill="white"/>
</g>
<defs>
<clipPath id="clip0_14_1115">
<rect width="104.52" height="117.952" fill="white"/>
</clipPath>
</defs>
</svg>
