<svg width="70" height="70" viewBox="0 0 70 70" fill="none" xmlns="http://www.w3.org/2000/svg">
<circle cx="35" cy="35" r="35" fill="#34C759"/>
<path d="M35.4501 16.3636C32.1213 16.3642 28.8505 17.2352 25.9623 18.8903C23.0741 20.5454 20.6689 22.927 18.9852 25.7988C17.3016 28.6706 16.3981 31.9328 16.3645 35.2616C16.3309 38.5904 17.1682 41.8702 18.7934 44.7754L17.1465 50.5214C17.012 50.9711 17.0016 51.4488 17.1166 51.9039C17.2315 52.359 17.4674 52.7745 17.7993 53.1065C18.1312 53.4384 18.5467 53.6743 19.0018 53.7892C19.4569 53.9042 19.9345 53.8939 20.3842 53.7594L26.1298 52.1123C28.6757 53.5378 31.5144 54.3607 34.4279 54.5178C37.3414 54.6749 40.2521 54.162 42.9365 53.0185C45.6208 51.8751 48.0074 50.1315 49.9127 47.9217C51.8181 45.7119 53.1916 43.0947 53.9278 40.2712C54.6639 37.4476 54.7431 34.493 54.1592 31.6341C53.5753 28.7752 52.3439 26.0882 50.5595 23.7795C48.7752 21.4709 46.4855 19.602 43.8662 18.3164C41.2469 17.0308 38.3678 16.3628 35.4501 16.3636ZM35.4501 52.2995C32.4269 52.2986 29.4597 51.484 26.8597 49.9412C26.681 49.8458 26.4821 49.7945 26.2796 49.7915C26.1783 49.7854 26.0768 49.7981 25.9801 49.8289L19.7666 51.607C19.7016 51.627 19.6323 51.6289 19.5663 51.6125C19.5002 51.5961 19.4399 51.562 19.3918 51.5139C19.3437 51.4658 19.3096 51.4054 19.2932 51.3394C19.2768 51.2733 19.2787 51.2041 19.2987 51.139L21.0767 44.9251C21.1187 44.7786 21.1304 44.625 21.111 44.4737C21.0917 44.3225 21.0418 44.1768 20.9644 44.0455C19.069 40.8485 18.2841 37.1145 18.7319 33.4249C19.1797 29.7354 20.8351 26.2975 23.4401 23.6468C26.0452 20.9962 29.4537 19.2815 33.1347 18.77C36.8157 18.2584 40.5626 18.9787 43.7916 20.8186C47.0206 22.6585 49.5505 25.5148 50.9873 28.9424C52.424 32.3701 52.6869 36.1767 51.7349 39.7693C50.783 43.362 48.6697 46.5389 45.7242 48.8052C42.7787 51.0716 39.1665 52.3001 35.4501 52.2995ZM45.0885 38.5989L41.2519 36.4091C40.848 36.1813 40.391 36.0647 39.9274 36.0713C39.4638 36.0779 39.0102 36.2074 38.613 36.4465L36.2174 37.8877C34.8559 37.1632 33.7416 36.0488 33.0171 34.6872L34.4582 32.2915C34.6973 31.8942 34.8268 31.4406 34.8334 30.977C34.84 30.5134 34.7234 30.0563 34.4956 29.6524L32.3059 25.8155C32.0933 25.4472 31.7879 25.1411 31.4201 24.9276C31.0523 24.7142 30.635 24.6009 30.2098 24.5989C28.5254 24.5989 26.9097 25.2668 25.7169 26.4562C24.5241 27.6456 23.8515 29.2594 23.8466 30.9439C23.8441 33.0592 24.2586 35.1543 25.0664 37.1094C25.8741 39.0644 27.0593 40.8411 28.5541 42.3377C30.0489 43.8344 31.8241 45.0217 33.7781 45.8318C35.7321 46.6419 37.8266 47.0588 39.9418 47.0588H39.9605C41.6449 47.0539 43.2586 46.3812 44.4479 45.1884C45.6372 43.9955 46.305 42.3797 46.305 40.6952C46.3031 40.2699 46.1898 39.8526 45.9763 39.4848C45.7629 39.117 45.4568 38.8116 45.0885 38.5989ZM39.9605 44.8128H39.9418C36.267 44.8079 32.7444 43.3445 30.1477 40.7441C27.5509 38.1437 26.0924 34.6189 26.0924 30.9439C26.0974 29.855 26.5333 28.8125 27.305 28.0443C28.0766 27.2762 29.121 26.8449 30.2098 26.8449C30.2675 26.8497 30.3211 26.8765 30.3595 26.9198L32.5492 30.7567C32.5793 30.8152 32.5934 30.8807 32.5901 30.9464C32.5868 31.0121 32.5662 31.0758 32.5305 31.131L30.79 34.0695C30.6914 34.2208 30.6329 34.3945 30.6198 34.5746C30.6067 34.7546 30.6395 34.935 30.7151 35.0989C31.7383 37.3573 33.5475 39.1666 35.8057 40.1898C35.9696 40.2655 36.15 40.2983 36.33 40.2852C36.51 40.2721 36.6838 40.2135 36.835 40.115L39.7734 38.3743C39.8286 38.3386 39.8923 38.318 39.958 38.3148C40.0237 38.3115 40.0891 38.3256 40.1477 38.3556L43.9843 40.5455C44.0276 40.5839 44.0544 40.6375 44.0592 40.6952C44.0592 41.784 43.628 42.8285 42.8598 43.6002C42.0917 44.3719 41.0493 44.8079 39.9605 44.8128Z" fill="white"/>
</svg>
