<svg width="78" height="78" viewBox="0 0 78 78" fill="none" xmlns="http://www.w3.org/2000/svg">
<circle cx="39" cy="39" r="38" stroke="#41826C" stroke-width="2"/>
<path d="M36.8919 56.1817H33.6895L43.0156 19.1541C43.0322 19.0879 43.0421 19.0184 43.0421 18.9522C43.0421 17.582 41.9284 16.4667 40.5602 16.4667C39.192 16.4667 38.1411 17.5191 38.0816 18.8396L28.6795 56.1817H23.4084C21.2933 56.1817 19.5748 57.906 19.5748 60.0209V60.6497C19.5748 61.1064 19.9449 61.4804 20.4043 61.4804H39.9025C40.3586 61.4804 40.732 61.1097 40.732 60.6497V60.0209C40.732 57.9027 39.0102 56.1817 36.8985 56.1817H36.8919ZM39.7108 19.1541C39.7274 19.0879 39.7373 19.0184 39.7373 18.9522C39.7373 18.4988 40.1074 18.1281 40.5602 18.1281C40.9865 18.1281 41.3368 18.4524 41.3798 18.8661L31.9843 56.1817H30.3881L39.7108 19.1541ZM21.2371 59.8223C21.3396 58.7136 22.2715 57.8398 23.405 57.8398H36.8919C38.0254 57.8398 38.9607 58.7103 39.0598 59.8223H21.2371Z" fill="#41826C"/>
<path d="M62.2029 34.3914C62.117 27.4711 58.8089 22.093 54.6052 22.093C50.4015 22.093 47.2917 27.1567 47.0207 33.7759C45.7484 34.0803 44.747 35.0865 44.4463 36.3607H39.7535C39.5156 36.3607 39.2875 36.4633 39.1289 36.6453C38.9703 36.8273 38.9009 37.0656 38.9339 37.3039L40.1071 45.8261C40.0774 45.9088 40.0609 45.9982 40.0609 46.0908C40.0609 46.2663 40.117 46.4284 40.2096 46.5641L42.1759 60.8185C42.2321 61.2289 42.5824 61.5334 42.9955 61.5334H61.5882C61.998 61.5334 62.345 61.2355 62.4078 60.8284L63.267 55.1922H64.2122C65.8415 55.1922 67.1667 53.8651 67.1667 52.2334V40.0475C67.1667 37.1516 64.9987 34.7588 62.2062 34.3914H62.2029ZM54.6052 23.7511C57.7679 23.7511 60.4481 28.5666 60.5472 34.3385H54.44C53.9839 34.3385 53.6105 34.7092 53.6105 35.1692V36.3607H51.2112C50.9171 35.0997 49.9322 34.1002 48.6797 33.7858C48.9342 28.2654 51.5417 23.7544 54.6052 23.7544V23.7511ZM60.8777 59.872H43.7193L43.4417 57.8531H51.5252C51.9812 57.8531 52.3547 57.4824 52.3547 57.0224C52.3547 56.5624 51.9845 56.1917 51.5252 56.1917H43.2103L41.9314 46.9149H51.4657C51.9217 46.9149 52.2952 46.5443 52.2952 46.0842C52.2952 45.6242 51.925 45.2535 51.4657 45.2535H41.7033L41.4753 43.602H51.4657C51.9217 43.602 52.2952 43.2314 52.2952 42.7713C52.2952 42.3113 51.925 41.9406 51.4657 41.9406H41.2473L40.7053 38.0088H45.1866C45.408 38.0088 45.6195 37.9195 45.7781 37.7606C45.9335 37.6017 46.0194 37.3899 46.0161 37.1682C46.0161 37.155 46.0161 37.1384 46.0161 37.1252C46.026 36.2746 46.6209 35.563 47.4173 35.3777C47.5396 35.4505 47.6817 35.4935 47.8337 35.4935C47.9857 35.4935 48.1278 35.4505 48.2501 35.3777C49.0466 35.5664 49.6414 36.2779 49.6513 37.1285C49.6513 37.145 49.6513 37.1616 49.6513 37.1715C49.6513 37.3932 49.734 37.6084 49.8893 37.7639C50.0446 37.9228 50.2561 38.0121 50.4808 38.0121H53.6204V52.2268C53.6204 53.8584 54.9456 55.1856 56.5749 55.1856H61.5981L60.8843 59.8654L60.8777 59.872ZM65.511 52.2334C65.511 52.9516 64.9293 53.5341 64.2122 53.5341H59.0072V44.767C59.0072 44.3103 58.637 43.9363 58.1777 43.9363C57.7183 43.9363 57.3482 44.307 57.3482 44.767V53.5341H56.5683C55.8511 53.5341 55.2695 52.9516 55.2695 52.2334V35.9966H61.4659C63.6967 35.9966 65.5077 37.8136 65.5077 40.0442V52.2301L65.511 52.2334Z" fill="#41826C"/>
<path d="M21.564 27.8914L18.0345 27.4942C17.747 27.4611 17.519 27.2361 17.4859 26.9448L17.0893 23.4102C17.0067 22.6754 15.9393 22.6754 15.8567 23.4102L15.4601 26.9448C15.427 27.2328 15.2023 27.4611 14.9115 27.4942L11.382 27.8914C10.6483 27.9741 10.6483 29.0431 11.382 29.1258L14.9115 29.523C15.199 29.5561 15.427 29.7811 15.4601 30.0724L15.8567 33.607C15.9393 34.3417 17.0067 34.3417 17.0893 33.607L17.4859 30.0724C17.519 29.7844 17.7437 29.5561 18.0345 29.523L21.564 29.1258C22.2977 29.0431 22.2977 27.9741 21.564 27.8914Z" fill="#41826C"/>
<path d="M22.4233 39.3989L22.7471 42.2782C22.8132 42.8772 23.6824 42.8772 23.7518 42.2782L24.0756 39.3989C24.1021 39.1639 24.2871 38.9785 24.5218 38.9521L27.3969 38.6277C27.9951 38.5615 27.9951 37.6911 27.3969 37.6216L24.5218 37.2973C24.2871 37.2708 24.1021 37.0855 24.0756 36.8505L23.7518 33.9711C23.6857 33.3721 22.8165 33.3721 22.7471 33.9711L22.4233 36.8505C22.3968 37.0855 22.2117 37.2708 21.9771 37.2973L19.1019 37.6216C18.5038 37.6878 18.5038 38.5582 19.1019 38.6277L21.9771 38.9521C22.2117 38.9785 22.3968 39.1639 22.4233 39.3989Z" fill="#41826C"/>
<path d="M26.713 30.1121L28.1936 30.2776C28.3158 30.2908 28.4084 30.3868 28.4216 30.5059L28.5868 31.9886C28.6199 32.2964 29.0693 32.2964 29.1024 31.9886L29.2676 30.5059C29.2808 30.3835 29.3767 30.2908 29.4957 30.2776L30.9762 30.1121C31.2835 30.079 31.2835 29.6289 30.9762 29.5958L29.4957 29.4303C29.3734 29.4171 29.2808 29.3211 29.2676 29.2019L29.1024 27.7192C29.0693 27.4115 28.6199 27.4115 28.5868 27.7192L28.4216 29.2019C28.4084 29.3244 28.3125 29.4171 28.1936 29.4303L26.713 29.5958C26.4057 29.6289 26.4057 30.079 26.713 30.1121Z" fill="#41826C"/>
</svg>
