<svg width="80" height="79" viewBox="0 0 80 79" fill="none" xmlns="http://www.w3.org/2000/svg">
<g clip-path="url(#clip0_1_246)">
<path d="M65.9271 34.8827H65.5943C65.2715 33.6275 64.9058 32.0773 64.8893 31.6807C64.8794 31.4152 64.7477 30.763 63.7659 30.4517C63.2092 30.278 62.4119 30.2321 61.674 30.3664L62.1418 26.2041L55.0291 22.1991L52.2717 24.7588V23.9296L43.6799 20L42.9353 24.4016L39.832 23.3987C39.4301 22.9529 38.4154 21.9599 37.2689 21.9337C36.6628 21.9238 36.0961 22.1729 35.658 22.6711C34.9892 23.4314 33.879 23.9853 33.1377 24.2901L29.5369 22.0615L28.7463 23.4413C28.2686 23.6871 26.9805 24.3065 25.7352 24.549C24.2461 24.8375 22.9316 26.4401 22.2694 27.3906C22.2299 27.3676 22.1871 27.3414 22.1508 27.3217C21.6172 27.0104 21.1988 26.7646 20.6815 26.9743C20.1511 27.1874 20.0161 27.6724 19.8085 28.4033C19.769 28.5409 19.7262 28.695 19.6734 28.8719C19.1925 30.5139 16.468 30.5696 16.4416 30.5696L15.6213 30.5762V34.886H14.0729C12.6563 34.886 11.5 36.0331 11.5 37.4457V40.8214C11.5 42.2307 12.653 43.381 14.0729 43.381H16.3988L25.1883 59.9647C25.8571 61.2265 27.1617 62.0098 28.5947 62.0098H52.723C54.1825 62.0098 55.4969 61.2069 56.1591 59.909L64.5731 43.381H65.9303C67.3469 43.381 68.5033 42.2339 68.5033 40.8214V37.4457C68.5033 36.0364 67.3502 34.886 65.9303 34.886L65.9271 34.8827ZM51.5634 41.7325L53.8662 36.528H58.7749L56.4721 41.7325H51.5634ZM29.0362 36.528L26.7334 41.7325H21.8247L24.1275 36.528H29.0362ZM34.0404 36.528H38.9491L36.6463 41.7325H31.7376L34.0404 36.528ZM43.9533 36.528H48.862L46.5592 41.7325H41.6505L43.9533 36.528ZM63.2619 32.0117C63.3508 32.6967 63.6539 33.9618 63.8878 34.886H43.7655C42.8332 32.8868 40.7709 31.8118 39.0809 30.9367H39.0743C39.7727 29.8158 40.7775 28.5377 41.4331 28.3803C41.5352 28.3574 41.5648 28.3803 41.5978 28.4C43.044 29.3996 45.8377 29.9469 47.0039 30.1403L47.8868 32.5361H54.4493L54.6437 32.4214C55.0127 32.2051 55.7177 31.9429 56.0372 32.0314C56.08 32.0445 56.0965 32.0543 56.1229 32.1002C56.4885 32.7819 57.2397 33.2014 58.2313 33.2801C59.2987 33.3653 60.7186 33.0277 61.3445 32.2116C61.5652 31.9494 62.771 31.8413 63.2619 32.0084V32.0117ZM55.2696 24.2246L60.3793 27.0989L59.9049 31.3202C59.6215 31.507 58.9989 31.6905 58.3664 31.6414C57.971 31.6086 57.6712 31.4873 57.5823 31.3235C57.3451 30.8843 56.9662 30.5795 56.4853 30.4451C55.5562 30.1862 54.4921 30.6417 54.0177 30.8876H52.2717V27.0038L55.2696 24.218V24.2246ZM50.6179 24.9849V30.8908H49.0465L48.2229 28.6556L47.732 28.5868C47.0171 28.4852 45.3864 28.187 44.0455 27.7347L44.9515 22.3925L50.6179 24.9849ZM36.9032 23.7526C37.0614 23.5724 37.1701 23.5757 37.2261 23.5757C37.6741 23.5855 38.3726 24.2049 38.7053 24.6179L38.8601 24.8112L42.6553 26.0403L42.4906 27.0104C42.059 26.7318 41.5616 26.6499 41.0443 26.7744C40.392 26.9317 39.7529 27.4299 39.1863 28.0297L34.8014 25.316C35.5295 24.9292 36.3168 24.4081 36.9 23.7461L36.9032 23.7526ZM32.8346 26.037L32.8676 26.1419C32.8676 26.1419 32.9137 26.1288 32.9598 26.1124L38.1551 29.3275C37.9542 29.6159 37.7796 29.8879 37.6313 30.1305C37.3282 29.9371 37.0746 29.747 36.9065 29.5536C36.3333 28.8916 35.4372 28.0329 34.327 28.1968C33.3552 28.3377 32.5744 29.1669 31.7969 30.881C31.6322 31.2448 31.4444 31.3431 31.3192 31.3857C30.466 31.6676 28.6441 30.6647 27.0365 29.7765H27.0299L30.1266 24.359L32.8346 26.037ZM26.0547 26.1615C26.5127 26.073 26.9706 25.9419 27.4021 25.7977L25.577 28.9899C25.1125 28.7507 24.6513 28.5278 24.1967 28.341C24.0385 28.2755 23.8969 28.2132 23.7552 28.1509C24.3943 27.2758 25.3069 26.3057 26.0547 26.1615ZM17.2817 32.1395C18.4908 31.9691 20.6651 31.3759 21.2647 29.3308C21.3174 29.1505 21.3635 28.9867 21.403 28.8457C21.4063 28.8293 21.4129 28.813 21.4162 28.7966C21.8708 29.062 22.5363 29.4389 23.5642 29.8617C24.4075 30.2091 25.3365 30.7204 26.2359 31.2153C28.3279 32.3657 30.3012 33.4538 31.8397 32.9458C32.492 32.7295 32.9829 32.2641 33.3024 31.5594C34.0173 29.9797 34.4786 29.8388 34.5642 29.8257C34.6466 29.8158 34.9628 29.8355 35.6547 30.6319C36.2575 31.3267 37.259 31.8446 38.3165 32.3952C39.5948 33.0572 41.0048 33.7913 41.8416 34.8893H17.2817V32.1461V32.1395ZM14.0696 41.7292C13.5623 41.7292 13.1505 41.3195 13.1505 40.8148V37.4391C13.1505 36.9344 13.5623 36.5247 14.0696 36.5247H19.12L16.8172 41.7292H14.0729H14.0696ZM54.6799 59.1585C54.3044 59.8992 53.5532 60.358 52.7197 60.358H28.5947C27.7777 60.358 27.0332 59.9123 26.651 59.1913L18.2667 43.3745H62.7183L54.6832 59.1585H54.6799ZM66.8429 40.8148C66.8429 41.3195 66.4311 41.7292 65.9238 41.7292H61.473L63.7758 36.5247H65.9238C66.4311 36.5247 66.8429 36.9344 66.8429 37.4391V40.8148Z" fill="#41826C"/>
</g>
<circle cx="40" cy="39.5" r="38.5" stroke="#41826C" stroke-width="2"/>
<defs>
<clipPath id="clip0_1_246">
<rect width="57" height="42" fill="white" transform="translate(11.5 20)"/>
</clipPath>
</defs>
</svg>
