<svg width="80" height="79" viewBox="0 0 80 79" fill="none" xmlns="http://www.w3.org/2000/svg">
<circle cx="40" cy="39.5" r="38.5" stroke="#41826C" stroke-width="2"/>
<g clip-path="url(#clip0_1_180)">
<path d="M29.445 37.7764C27.3174 37.7764 25.5861 39.5077 25.5861 41.6352C25.5861 43.7628 27.3174 45.4941 29.445 45.4941C31.5725 45.4941 33.3038 43.7628 33.3038 41.6352C33.3038 39.5077 31.5725 37.7764 29.445 37.7764ZM29.445 43.9479C28.1717 43.9479 27.1322 42.9118 27.1322 41.6352C27.1322 40.3587 28.1684 39.3225 29.445 39.3225C30.7215 39.3225 31.7577 40.3587 31.7577 41.6352C31.7577 42.9118 30.7215 43.9479 29.445 43.9479Z" fill="#41826C"/>
<path d="M34.8045 60.6372C35.8809 60.6372 36.7534 59.7647 36.7534 58.6883C36.7534 57.6119 35.8809 56.7394 34.8045 56.7394C33.7281 56.7394 32.8556 57.6119 32.8556 58.6883C32.8556 59.7647 33.7281 60.6372 34.8045 60.6372Z" fill="#41826C"/>
<path d="M61.7646 41.632H60.9558V31.1728C61.2416 31.0462 61.443 30.7603 61.443 30.429V24.5822C61.443 24.134 61.0792 23.7669 60.6277 23.7669H57.3795C56.9312 23.7669 56.5642 24.1307 56.5642 24.5822V30.429C56.5642 30.7636 56.7656 31.0494 57.0514 31.1728V41.632H56.2426C55.7944 41.632 55.4273 41.9958 55.4273 42.4473V54.4657C55.4273 54.9139 55.7911 55.281 56.2426 55.281H58.682C58.682 55.3037 58.6755 55.3265 58.6755 55.3524V56.9018C58.6755 59.5881 56.4895 61.7709 53.8065 61.7709C51.1235 61.7709 48.9374 59.5849 48.9374 56.8953L48.775 27.0151C48.775 21.909 44.6206 17.7545 39.5144 17.7545C34.4082 17.7545 30.2538 21.909 30.2538 27.0151V28.636H30.1921C29.2403 28.636 28.4673 29.4091 28.4673 30.3608V33.9955H28.2009C20.6456 33.9988 14.5 40.1444 14.5 47.6997V62.7486C14.5 63.1968 14.8638 63.5639 15.3153 63.5639H31.9688C32.8036 64.0511 33.7716 64.337 34.8045 64.337C37.9163 64.337 40.4499 61.8034 40.4499 58.6916C40.4499 56.145 38.7543 53.9882 36.4286 53.2866V36.7338C36.4286 35.2266 35.204 34.002 33.6969 34.002H33.6676V30.3673C33.6676 29.4156 32.8946 28.6425 31.9428 28.6425H31.8811V27.0216C31.8811 22.8152 35.3047 19.3916 39.5111 19.3916C43.7176 19.3916 47.1412 22.8152 47.1412 27.0281L47.3036 56.9083C47.3036 60.4911 50.2205 63.408 53.8032 63.408C57.386 63.408 60.3029 60.4911 60.3029 56.9083V55.3589C60.3029 55.3362 60.2964 55.3102 60.2964 55.2875H61.7613C62.2096 55.2875 62.5766 54.9237 62.5766 54.4722V42.4538C62.5766 42.0056 62.2128 41.6385 61.7613 41.6385L61.7646 41.632ZM38.9037 58.6883C38.9037 60.9491 37.0653 62.7876 34.8045 62.7876C34.0444 62.7876 33.3363 62.5764 32.7257 62.2126C32.6802 62.1607 32.6282 62.1087 32.5665 62.0697C31.4296 61.3129 30.7507 60.0493 30.7507 58.6883C30.7507 56.4503 32.5697 54.6313 34.8078 54.6313C35.0156 54.6313 35.2365 54.6508 35.4834 54.6931C35.5613 54.7061 35.636 54.7028 35.714 54.6931C37.5395 55.1088 38.907 56.7394 38.907 58.6883H38.9037ZM34.8045 36.7305V53.0007C31.67 53.0007 29.1202 55.5538 29.1202 58.6883C29.1202 59.8674 29.4839 60.9946 30.1368 61.9333H16.1273V59.822H19.6971C20.1259 59.822 20.4702 59.4744 20.4702 59.0489C20.4702 58.6234 20.1226 58.2758 19.6971 58.2758H16.1273V56.8986H19.6971C20.1259 56.8986 20.4702 56.551 20.4702 56.1255C20.4702 55.7 20.1226 55.3524 19.6971 55.3524H16.1273V53.9752H19.6971C20.1259 53.9752 20.4702 53.6277 20.4702 53.2021C20.4702 52.7766 20.1226 52.4291 19.6971 52.4291H16.1273V51.0518H19.6971C20.1259 51.0518 20.4702 50.7043 20.4702 50.2788C20.4702 49.8532 20.1226 49.5057 19.6971 49.5057H16.1273V47.6997C16.1273 41.0441 21.5421 35.6294 28.1977 35.6294H33.6969C34.3043 35.6294 34.8013 36.1231 34.8013 36.7338L34.8045 36.7305ZM32.0435 30.364V33.9988H30.0979V30.364C30.0979 30.3088 30.1401 30.2666 30.1953 30.2666H31.9461C32.0013 30.2666 32.0435 30.3088 32.0435 30.364ZM58.1948 25.3943H59.8156V29.6137H58.1948V25.3943ZM58.682 31.241H59.3284V41.632H58.682V31.241ZM60.9525 53.6504H57.0579V43.2594H60.9525V53.6504Z" fill="#41826C"/>
<path d="M53.3322 17.1633C53.5012 17.5044 53.8487 17.7025 54.206 17.7025C54.3522 17.7025 54.5016 17.67 54.6413 17.5986C55.122 17.3582 55.3201 16.7735 55.0798 16.2928L55.0083 16.1466C54.768 15.6659 54.1833 15.4678 53.7025 15.7081C53.2218 15.9485 53.0237 16.5332 53.264 17.0139L53.3355 17.1601L53.3322 17.1633Z" fill="#41826C"/>
<path d="M54.6315 19.7717L54.7387 19.9893C54.9076 20.3304 55.2552 20.5285 55.6125 20.5285C55.7587 20.5285 55.9081 20.496 56.0477 20.4246C56.5285 20.1842 56.7266 19.5995 56.4862 19.1188L56.3791 18.9011C56.1387 18.4204 55.554 18.2223 55.0733 18.4626C54.5925 18.703 54.3944 19.2877 54.6348 19.7684L54.6315 19.7717Z" fill="#41826C"/>
<path d="M56.038 22.5975L56.1095 22.7437C56.2784 23.0847 56.6259 23.2829 56.9832 23.2829C57.1294 23.2829 57.2756 23.2504 57.4152 23.1822C57.896 22.9418 58.0941 22.3572 57.8537 21.8764L57.7823 21.7302C57.5419 21.2495 56.9572 21.0514 56.4765 21.2917C55.9958 21.5321 55.7976 22.1168 56.038 22.5975Z" fill="#41826C"/>
<path d="M64.9608 15.7114C64.4801 15.471 63.8954 15.6659 63.655 16.1499L63.5836 16.2961C63.3432 16.7768 63.5381 17.3615 64.0221 17.6018C64.1617 17.6701 64.3112 17.7058 64.4573 17.7058C64.8146 17.7058 65.1589 17.5076 65.3311 17.1666L65.4026 17.0204C65.6429 16.5397 65.448 15.955 64.9641 15.7146L64.9608 15.7114Z" fill="#41826C"/>
<path d="M63.5868 18.4658C63.1061 18.2254 62.5214 18.4203 62.281 18.9043L62.1739 19.1219C61.9335 19.6027 62.1284 20.1873 62.6124 20.4277C62.752 20.4959 62.9014 20.5316 63.0476 20.5316C63.4049 20.5316 63.7492 20.3335 63.9214 19.9924L64.0286 19.7748C64.2689 19.2941 64.074 18.7094 63.5901 18.469L63.5868 18.4658Z" fill="#41826C"/>
<path d="M62.1803 21.2917C61.6996 21.0514 61.1149 21.2495 60.8746 21.7302L60.8031 21.8764C60.5627 22.3572 60.7609 22.9418 61.2416 23.1822C61.3813 23.2504 61.5275 23.2829 61.6736 23.2829C62.0309 23.2829 62.3752 23.0847 62.5474 22.7437L62.6189 22.5975C62.8592 22.1168 62.6611 21.5321 62.1803 21.2917Z" fill="#41826C"/>
<path d="M59.3284 17.1113C59.8676 17.1113 60.3029 16.6761 60.3029 16.1369V15.9745C60.3029 15.4353 59.8676 15 59.3284 15C58.7892 15 58.354 15.4353 58.354 15.9745V16.1369C58.354 16.6761 58.7892 17.1113 59.3284 17.1113Z" fill="#41826C"/>
<path d="M59.3284 20.1548C59.8676 20.1548 60.3029 19.7196 60.3029 19.1804V18.9465C60.3029 18.4073 59.8676 17.972 59.3284 17.972C58.7892 17.972 58.354 18.4073 58.354 18.9465V19.1804C58.354 19.7196 58.7892 20.1548 59.3284 20.1548Z" fill="#41826C"/>
<path d="M59.3284 23.127C59.8676 23.127 60.3029 22.6917 60.3029 22.1525V21.9901C60.3029 21.4509 59.8676 21.0156 59.3284 21.0156C58.7892 21.0156 58.354 21.4509 58.354 21.9901V22.1525C58.354 22.6917 58.7892 23.127 59.3284 23.127Z" fill="#41826C"/>
</g>
<defs>
<clipPath id="clip0_1_180">
<rect width="51" height="49.3337" fill="white" transform="translate(14.5 15)"/>
</clipPath>
</defs>
</svg>
