<svg width="80" height="79" viewBox="0 0 80 79" fill="none" xmlns="http://www.w3.org/2000/svg">
<g clip-path="url(#clip0_1_214)">
<path d="M66.2163 58.5626L56.2795 39.4357C55.5879 38.1038 54.2372 37.2758 52.7535 37.2758H26.8534C25.3431 37.2758 23.9806 38.1248 23.2978 39.4927L13.7631 58.5986C13.3788 59.3695 13.4143 60.2695 13.8606 61.0044C14.3069 61.7394 15.0813 62.1803 15.9295 62.1803H64.0675C64.9276 62.1803 65.7049 61.7334 66.1483 60.9864C66.5916 60.2395 66.6182 59.3335 66.2163 58.5626ZM54.9672 40.1376L58.8568 47.6252H47.5072L45.7427 38.7787H52.7505C53.6815 38.7787 54.5327 39.2977 54.9672 40.1347V40.1376ZM33.7844 47.6252L35.6848 38.7787H44.2324L45.9969 47.6252H33.7844ZM46.2954 49.1281L48.5979 60.6744H30.9824L33.4622 49.1281H46.2984H46.2954ZM24.6161 40.1736C25.0446 39.3127 25.9017 38.7787 26.8505 38.7787H34.1656L32.2652 47.6252H20.9008L24.619 40.1736H24.6161ZM15.1256 60.2155C14.9483 59.9245 14.9364 59.5825 15.0872 59.2765L20.1501 49.1281H31.946L29.4662 60.6744H15.9325C15.5955 60.6744 15.3 60.5064 15.1256 60.2155ZM64.8774 60.2095C64.703 60.5064 64.4045 60.6744 64.0646 60.6744H50.1111L47.8087 49.1281H59.6371L64.901 59.2615C65.0606 59.5675 65.0488 59.9125 64.8744 60.2065L64.8774 60.2095Z" fill="#41826C"/>
<path d="M25.9224 24.7905L29.079 25.1505C29.3362 25.1805 29.5401 25.3845 29.5697 25.6485L29.9243 28.8523C29.9982 29.5182 30.9529 29.5182 31.0268 28.8523L31.3814 25.6485C31.411 25.3875 31.612 25.1805 31.8721 25.1505L35.0287 24.7905C35.6848 24.7155 35.6848 23.7466 35.0287 23.6716L31.8721 23.3116C31.6149 23.2816 31.411 23.0776 31.3814 22.8136L31.0268 19.6098C30.9529 18.9439 29.9982 18.9439 29.9243 19.6098L29.5697 22.8136C29.5401 23.0746 29.3391 23.2816 29.079 23.3116L25.9224 23.6716C25.2663 23.7466 25.2663 24.7155 25.9224 24.7905Z" fill="#41826C"/>
<path d="M36.669 31.9031L39.2404 32.1971C39.4503 32.2211 39.6158 32.3891 39.6394 32.6021L39.9291 35.2119C39.9882 35.7549 40.7655 35.7549 40.8276 35.2119L41.1172 32.6021C41.1409 32.3891 41.3064 32.2211 41.5162 32.1971L44.0876 31.9031C44.6226 31.8431 44.6226 31.0542 44.0876 30.9912L41.5162 30.6972C41.3064 30.6732 41.1409 30.5052 41.1172 30.2922L40.8276 27.6824C40.7685 27.1394 39.9911 27.1394 39.9291 27.6824L39.6394 30.2922C39.6158 30.5052 39.4503 30.6732 39.2404 30.6972L36.669 30.9912C36.1341 31.0512 36.1341 31.8401 36.669 31.9031Z" fill="#41826C"/>
<path d="M46.1329 19.3818L47.457 19.5318C47.5664 19.5438 47.6491 19.6308 47.6609 19.7388L47.8087 21.0827C47.8383 21.3617 48.2402 21.3617 48.2698 21.0827L48.4176 19.7388C48.4294 19.6278 48.5151 19.5438 48.6215 19.5318L49.9456 19.3818C50.2205 19.3518 50.2205 18.9439 49.9456 18.9139L48.6215 18.7639C48.5122 18.7519 48.4294 18.6649 48.4176 18.5569L48.2698 17.213C48.2402 16.934 47.8383 16.934 47.8087 17.213L47.6609 18.5569C47.6491 18.6679 47.5634 18.7519 47.457 18.7639L46.1329 18.9139C45.858 18.9439 45.858 19.3518 46.1329 19.3818Z" fill="#41826C"/>
</g>
<circle cx="40" cy="39.5" r="38.5" stroke="#41826C" stroke-width="2"/>
<defs>
<clipPath id="clip0_1_214">
<rect width="53" height="45.1803" fill="white" transform="translate(13.5 17)"/>
</clipPath>
</defs>
</svg>
