<svg width="45" height="35" viewBox="0 0 45 35" fill="none" xmlns="http://www.w3.org/2000/svg">
<path d="M23.8021 8.55208C21.1119 6.12158 18.6858 3.4298 16.0977 0.900056C15.7234 0.535481 15.3891 0.0898897 14.8206 0.0311527C13.9559 -0.0721436 13.1772 0.0493813 12.6988 0.906132C12.2044 1.79529 12.2525 2.72901 12.949 3.48246C14.15 4.75442 15.3871 5.97777 16.6121 7.22138C17.2807 7.90192 18.3536 8.98552 19.0141 9.67011C19.2523 9.91518 19.5045 10.219 19.1522 10.5127C18.844 10.7679 18.6118 10.4377 18.4136 10.2372C16.8123 8.62702 14.8106 6.60363 13.2193 4.98937C13.0791 4.84759 12.943 4.70581 12.8029 4.56606C11.668 3.45613 10.471 3.31233 9.60023 4.18123C8.7295 5.05013 8.84359 6.4821 9.96053 7.61026C11.6279 9.29541 13.6957 11.3856 15.349 13.0789C15.5752 13.3118 16.0456 13.5893 15.6673 13.9599C15.329 14.2941 15.0068 13.9073 14.7586 13.6602C13.5575 12.4449 11.9702 10.8003 10.7392 9.60934C10.1527 9.04425 9.48613 8.46296 8.57937 8.74652C6.93399 9.263 6.49562 11.0028 7.69463 12.293C8.79555 13.4718 10.3569 14.999 11.4978 16.1413C11.66 16.3054 11.8281 16.4633 11.9762 16.6396C12.1764 16.8887 12.4866 17.1763 12.1904 17.4963C11.8941 17.8163 11.5899 17.5409 11.3497 17.314C10.7112 16.6963 9.6923 15.6532 9.06178 15.0253C7.63458 13.6075 6.51364 13.3928 5.60287 14.3731C4.72214 15.321 4.94232 16.6517 6.20338 17.9237C9.07245 20.8295 11.9415 23.7326 14.8106 26.633C15.7346 27.5691 16.7416 28.4172 17.8191 29.1668C19.8368 30.5845 24.7249 34.1999 24.7249 34.1999C24.7249 34.1999 28.7863 30.382 30.2415 28.9014C32.6435 26.4709 35.0215 24.01 37.4476 21.5998C38.1301 20.9213 38.2482 20.419 37.6017 19.5946C35.8002 17.2796 35.2137 14.5595 35.3438 11.6611C35.3999 10.381 35.1096 9.23059 34.2389 8.26852C33.7525 7.73178 33.2781 7.18087 32.7516 6.68667C32.009 5.99195 31.2784 5.28508 30.5498 4.58024C29.5189 3.58981 27.6613 1.31122 25.9881 2.8357C24.3148 4.36019 29.0785 8.65519 29.4849 9.01387C29.8913 9.37255 30.1916 9.96643 29.3368 10.1522C29.0105 10.223 26.6725 11.2418 23.8021 8.55208Z" fill="#41826C"/>
<path d="M43.8282 10.2245C43.7361 11.0676 43.7241 13.9081 42.5635 13.6761C41.8744 13.5285 41.8388 12.9327 41.903 12.3377C43.0146 8.21775 40.9113 3.71817 36.7605 1.95021C35.4066 1.83113 35.1387 -0.228489 36.7319 0.0536139C41.126 1.17159 43.8902 5.76194 43.8282 10.2245Z" fill="#41826C"/>
<path d="M39.6105 9.44289C39.6027 9.68403 39.6074 9.92305 39.5873 10.1612C39.5282 10.7513 39.3944 11.3389 38.6572 11.2913C37.92 11.2437 37.8548 10.6342 37.8988 10.0462C38.023 8.36563 37.4957 7.07488 35.9071 6.34063C35.3931 6.10487 35.0852 5.67019 35.3714 5.07755C35.6576 4.48491 36.1673 4.54773 36.6931 4.72545C38.407 5.29111 39.6901 7.36697 39.6105 9.44289Z" fill="#41826C"/>
<path d="M0.395104 25.1204C0.364094 24.2727 -0.0356227 21.4615 1.14586 21.5167C1.84879 21.5592 1.97037 22.1431 1.99312 22.7413C1.49062 26.9831 4.22284 31.1175 8.58446 32.2427C9.9408 32.1571 10.5041 34.154 8.88747 34.1143C4.37954 33.6685 0.980436 29.5435 0.395104 25.1204Z" fill="#41826C"/>
<path d="M4.67993 25.2601C4.6527 25.0205 4.61337 24.7848 4.59882 24.5462C4.57169 23.9537 4.6189 23.3524 5.35497 23.2887C6.09104 23.2251 6.24378 23.8181 6.2855 24.4064C6.40613 26.0872 7.1147 27.2846 8.7923 27.7722C9.33485 27.9282 9.70237 28.3119 9.50515 28.941C9.30793 29.5702 8.79478 29.5846 8.24891 29.4878C6.47186 29.1857 4.90198 27.3253 4.67993 25.2601Z" fill="#41826C"/>
<path d="M35.2016 34.8451L38.5406 31.6148C38.5406 31.6148 42.4837 27.5044 44.509 25.503C45.119 24.8947 45.1968 24.4587 44.5369 23.8422C43.5781 22.95 42.6731 21.9949 41.774 21.0398C41.3434 20.5836 41.0025 20.4801 40.5121 20.981C36.3259 25.2617 26.6197 34.8451 26.6197 34.8451H35.2016Z" fill="#41826C"/>
</svg>
