<svg width="80" height="79" viewBox="0 0 80 79" fill="none" xmlns="http://www.w3.org/2000/svg">
<g clip-path="url(#clip0_1_227)">
<path d="M62.4148 26.3649C61.9681 26.3649 61.6024 26.7274 61.6024 27.1772V60.3784H18.1292V20.8923H51.9906C52.4372 20.8923 52.8029 20.5299 52.8029 20.08C52.8029 19.6302 52.4405 19.2677 51.9906 19.2677H17.3201C16.8735 19.2677 16.5078 19.6302 16.5078 20.08V61.1875C16.5078 61.6341 16.8703 61.9998 17.3201 61.9998H62.4148C62.8614 61.9998 63.2271 61.6374 63.2271 61.1875V27.1772C63.2271 26.7306 62.8646 26.3649 62.4148 26.3649Z" fill="#41826C"/>
<path d="M62.4148 19.2709H58.8516C58.405 19.2709 58.0393 19.6334 58.0393 20.0832C58.0393 20.5331 58.4017 20.8956 58.8516 20.8956H61.6024V22.3001C61.6024 22.7467 61.9649 23.1124 62.4148 23.1124C62.8646 23.1124 63.2271 22.75 63.2271 22.3001V20.08C63.2271 19.6334 62.8646 19.2677 62.4148 19.2677V19.2709Z" fill="#41826C"/>
<path d="M46.5892 22.9053H39.9483C39.8739 22.8826 39.7962 22.8665 39.7153 22.8665C39.6344 22.8665 39.5568 22.8826 39.4823 22.9053H21.3072C20.8606 22.9053 20.4949 23.2678 20.4949 23.7176V57.5531C20.4949 57.9997 20.8574 58.3654 21.3072 58.3654H58.4276C58.8742 58.3654 59.2399 58.003 59.2399 57.5531V29.0478C59.2399 28.6012 58.8775 28.2355 58.4276 28.2355C57.9778 28.2355 57.6153 28.5979 57.6153 29.0478V56.7408H40.5244V36.8343C40.5244 36.3877 40.1619 36.022 39.7121 36.022C39.2622 36.022 38.8998 36.3845 38.8998 36.8343V56.7408H22.1196V24.5267H38.903V31.4427C38.903 31.8893 39.2655 32.255 39.7153 32.255C40.1652 32.255 40.5276 31.8925 40.5276 31.4427V24.5267H46.5892C47.0358 24.5267 47.4015 24.1642 47.4015 23.7144C47.4015 23.2645 47.0391 22.9021 46.5892 22.9021V22.9053Z" fill="#41826C"/>
<path d="M24.9902 31.6304C25.1973 31.6304 25.4044 31.5527 25.563 31.3941L28.9384 28.0187C29.2556 27.7015 29.2556 27.1869 28.9384 26.8698C28.6213 26.5526 28.1067 26.5526 27.7896 26.8698L24.4141 30.2452C24.0969 30.5624 24.0969 31.077 24.4141 31.3941C24.5727 31.5527 24.7798 31.6304 24.9869 31.6304H24.9902Z" fill="#41826C"/>
<path d="M24.262 36.4525C24.4206 36.611 24.6277 36.6887 24.8348 36.6887C25.0419 36.6887 25.2491 36.611 25.4076 36.4525L33.8447 28.0154C34.1618 27.6983 34.1618 27.1837 33.8447 26.8665C33.5275 26.5494 33.013 26.5494 32.6958 26.8665L24.2588 35.3036C23.9416 35.6207 23.9416 36.1353 24.2588 36.4525H24.262Z" fill="#41826C"/>
<path d="M46.5019 50.1064C46.6604 50.265 46.8676 50.3426 47.0747 50.3426C47.2818 50.3426 47.4889 50.265 47.6475 50.1064L51.023 46.7309C51.3401 46.4138 51.3401 45.8992 51.023 45.582C50.7058 45.2649 50.1912 45.2649 49.8741 45.582L46.4986 48.9575C46.1815 49.2747 46.1815 49.7892 46.4986 50.1064H46.5019Z" fill="#41826C"/>
<path d="M46.5019 54.7084C46.6604 54.867 46.8676 54.9447 47.0747 54.9447C47.2818 54.9447 47.4889 54.867 47.6475 54.7084L55.625 46.7309C55.9422 46.4138 55.9422 45.8992 55.625 45.582C55.3078 45.2649 54.7933 45.2649 54.4761 45.582L46.4986 53.5595C46.1815 53.8767 46.1815 54.3913 46.4986 54.7084H46.5019Z" fill="#41826C"/>
<path d="M49.0909 25.4102L53.3305 25.8859C53.6767 25.9248 53.9486 26.1966 53.9874 26.5429L54.4632 30.7824C54.5635 31.666 55.8451 31.666 55.9422 30.7824L56.4179 26.5429C56.4567 26.1966 56.7286 25.9248 57.0749 25.8859L61.3144 25.4102C62.1979 25.3099 62.1979 24.0283 61.3144 23.9312L57.0749 23.4555C56.7286 23.4166 56.4567 23.1448 56.4179 22.7985L55.9422 18.5589C55.8418 17.6754 54.5603 17.6754 54.4632 18.5589L53.9874 22.7985C53.9486 23.1448 53.6767 23.4166 53.3305 23.4555L49.0909 23.9312C48.2074 24.0315 48.2074 25.3131 49.0909 25.4102Z" fill="#41826C"/>
<path d="M46.3206 33.4265L43.6507 33.1255C43.4338 33.0996 43.2623 32.9281 43.2364 32.7113L42.9355 30.0413C42.874 29.4847 42.0649 29.4847 42.0034 30.0413L41.7024 32.7113C41.6765 32.9281 41.505 33.0996 41.2882 33.1255L38.6182 33.4265C38.0616 33.488 38.0616 34.2971 38.6182 34.3586L41.2882 34.6595C41.505 34.6854 41.6765 34.8569 41.7024 35.0738L42.0034 37.7437C42.0649 38.3004 42.874 38.3004 42.9355 37.7437L43.2364 35.0738C43.2623 34.8569 43.4338 34.6854 43.6507 34.6595L46.3206 34.3586C46.8773 34.2971 46.8773 33.488 46.3206 33.4265Z" fill="#41826C"/>
<path d="M51.8741 37.4848L50.4987 37.3295C50.3854 37.3165 50.298 37.2292 50.2851 37.1159L50.1297 35.7405C50.0974 35.4557 49.6831 35.4557 49.6508 35.7405L49.4954 37.1159C49.4825 37.2292 49.3951 37.3165 49.2818 37.3295L47.9064 37.4848C47.6216 37.5172 47.6216 37.9314 47.9064 37.9638L49.2818 38.1191C49.3951 38.1321 49.4825 38.2195 49.4954 38.3327L49.6508 39.7082C49.6831 39.993 50.0974 39.993 50.1297 39.7082L50.2851 38.3327C50.298 38.2195 50.3854 38.1321 50.4987 38.1191L51.8741 37.9638C52.1589 37.9314 52.1589 37.5172 51.8741 37.4848Z" fill="#41826C"/>
</g>
<circle cx="40" cy="39.5" r="38.5" stroke="#41826C" stroke-width="2"/>
<defs>
<clipPath id="clip0_1_227">
<rect width="46.7193" height="44.1043" fill="white" transform="translate(16.5078 17.8955)"/>
</clipPath>
</defs>
</svg>
