<svg width="76" height="65" viewBox="0 0 76 65" fill="none" xmlns="http://www.w3.org/2000/svg">
<g clip-path="url(#clip0_101_354)">
<path d="M0.5 60.4294C0.5 61.6335 0.995273 62.8109 1.86238 63.6614C2.72948 64.5119 3.92626 65 5.15015 65H70.8513C72.0752 65 73.272 64.5119 74.1391 63.6614C75.0077 62.8109 75.5015 61.6334 75.5015 60.4309V22.6296H0.5V60.4309V60.4294Z" fill="#616E7D"/>
<path d="M75.5 18.272H0.5V20.9789H75.5V18.272Z" fill="#AAD4C8"/>
<path d="M8.2106 5.26283H5.15015C3.92627 5.26283 2.72948 5.75095 1.86238 6.60147C0.995273 7.45346 0.5 8.62939 0.5 9.83194V15.1436H75.5V9.83194C75.5 8.62939 75.0077 7.45198 74.1376 6.60147C73.2705 5.74947 72.0752 5.26283 70.8499 5.26283H62.9556V11.246C62.9556 12.3628 62.0343 13.268 60.8977 13.268H56.5622C55.4256 13.268 54.5043 12.3628 54.5043 11.246V5.26283H21.4942V11.246C21.4942 12.3628 20.5729 13.268 19.4348 13.268H15.0993C13.9627 13.268 13.0414 12.3628 13.0414 11.246V5.26283H8.2106Z" fill="#AAD4C8"/>
<path d="M75.5 15.1436H0.5V18.272H75.5V15.1436Z" fill="#82BFAB"/>
<path d="M19.4364 0H15.1008V11.246H19.4364V0Z" fill="#616E7D"/>
<path d="M60.9007 0H56.5652V11.246H60.9007V0Z" fill="#616E7D"/>
<path d="M29.9364 52.1891C29.8039 52.1891 29.685 52.229 29.5811 52.3089C29.4757 52.3887 29.3839 52.5174 29.3041 52.692C29.2213 52.8665 29.1626 53.0973 29.1234 53.3813C29.0873 53.6653 29.0662 54.0203 29.0662 54.4448C29.0662 54.8693 29.0903 55.1991 29.134 55.4846C29.1791 55.7701 29.2439 55.9949 29.3237 56.1635C29.4065 56.3322 29.4983 56.452 29.6037 56.5245C29.7075 56.5969 29.8189 56.6339 29.9348 56.6339H45.8498C45.9823 56.6339 46.1012 56.5969 46.2036 56.5245C46.3075 56.452 46.4023 56.3322 46.4851 56.1635C46.5664 55.9949 46.6296 55.7701 46.6748 55.4846C46.7199 55.1991 46.741 54.853 46.741 54.4448C46.741 54.0365 46.7214 53.6667 46.6853 53.3813C46.6492 53.0973 46.5905 52.8665 46.5047 52.692C46.4264 52.5174 46.33 52.3887 46.2171 52.3089C46.1057 52.229 45.9823 52.1891 45.8498 52.1891H41.1455V28.7799C41.1455 28.6483 41.1169 28.5388 41.0567 28.4516C40.998 28.3628 40.8805 28.2948 40.6999 28.243C40.5223 28.1927 40.2588 28.1557 39.9096 28.1336C39.5603 28.1114 39.1042 28.101 38.5397 28.101C38.0775 28.101 37.7027 28.1055 37.4121 28.1128C37.1231 28.1202 36.8882 28.135 36.7121 28.1557C36.533 28.1779 36.39 28.2075 36.2786 28.243C36.1672 28.28 36.0723 28.3273 35.9955 28.3865L29.8009 32.3284C29.6232 32.4453 29.4832 32.5547 29.3794 32.6568C29.2755 32.7589 29.1927 32.8905 29.134 33.0503C29.0753 33.2115 29.0376 33.4053 29.0196 33.6316C29.0075 33.8579 29 34.1463 29 34.4969C29 35.0516 29.0196 35.482 29.0647 35.7882C29.1114 36.0944 29.1972 36.3103 29.3222 36.4331C29.4471 36.5573 29.6187 36.6002 29.834 36.5647C30.0523 36.5292 30.3293 36.4301 30.671 36.2704L35.3061 33.7514V52.1905H29.9333L29.9364 52.1891Z" fill="white"/>
</g>
<defs>
<clipPath id="clip0_101_354">
<rect width="75" height="65" fill="white" transform="translate(0.5)"/>
</clipPath>
</defs>
</svg>
