<svg width="76" height="65" viewBox="0 0 76 65" fill="none" xmlns="http://www.w3.org/2000/svg">
<g clip-path="url(#clip0_101_330)">
<path d="M1.86249 63.6612C2.72934 64.512 3.92763 65 5.15244 65H70.8476C72.0714 65 73.2707 64.512 74.1375 63.6602C75.0023 62.8095 75.5 61.632 75.5 60.4285V22.629H0.5V60.4295C0.5 61.633 0.997675 62.8105 1.86249 63.6612ZM60.3994 25.6954H71.1341V35.0799H60.3994V25.6954ZM60.3994 37.6752H71.1341V47.0597H60.3994V37.6752ZM46.5135 25.6954H57.2512V35.0799H46.5135V25.6954ZM46.5135 37.6752H57.2512V47.0597H46.5135V37.6752ZM46.5135 49.6551H57.2512V59.0386H46.5135V49.6551ZM32.6306 25.6954H43.3673V35.0799H32.6306V25.6954ZM32.6306 37.6752H43.3673V47.0597H32.6306V37.6752ZM32.6306 49.6551H43.3673V59.0386H32.6306V49.6551ZM18.7477 25.6954H29.4855V35.0799H18.7477V25.6954ZM18.7477 37.6752H29.4855V47.0597H18.7477V37.6752ZM18.7477 49.6551H29.4855V59.0386H18.7477V49.6551ZM4.86587 37.6752H15.6026V47.0597H4.86587V37.6752ZM4.86587 49.6551H15.6026V59.0386H4.86587V49.6551Z" fill="#616E7D"/>
<path d="M75.5 18.2719H0.5V20.9776H75.5V18.2719Z" fill="#AAD4C8"/>
<path d="M8.21294 5.26393H5.15244C3.92763 5.26393 2.72934 5.75094 1.86249 6.60171C0.997675 7.45248 0.5 8.62992 0.5 9.83242V15.1434H75.5V9.83242C75.5 8.62992 75.0023 7.45248 74.1365 6.60171C73.2717 5.75094 72.0724 5.26393 70.8476 5.26393H62.9572V11.2474C62.9572 12.3637 62.0352 13.2686 60.8992 13.2686H56.5629C55.4258 13.2686 54.5069 12.3627 54.5069 11.2474V5.26393H21.4962V11.2474C21.4962 12.3637 20.5742 13.2686 19.4392 13.2686H15.1008C13.9637 13.2686 13.0449 12.3627 13.0449 11.2474V5.26393H8.21294Z" fill="#AAD4C8"/>
<path d="M75.5 15.1435H0.5V18.2719H75.5V15.1435Z" fill="#82BFAB"/>
<path d="M15.1008 11.2464H19.4392V5.26393V0H15.1008V5.26393V11.2464Z" fill="#616E7D"/>
<path d="M56.5629 11.2464H60.8992V5.26393V0H56.5629V5.26393V11.2464Z" fill="#616E7D"/>
<path d="M29.4865 25.6954H18.7488V35.0799H29.4865V25.6954Z" fill="#82BFAB"/>
<path d="M43.3683 25.6954H32.6316V35.0799H43.3683V25.6954Z" fill="#EBC565"/>
<path d="M57.2523 25.6954H46.5145V35.0799H57.2523V25.6954Z" fill="#82BFAB"/>
<path d="M71.1341 25.6954H60.3994V35.0799H71.1341V25.6954Z" fill="#82BFAB"/>
<path d="M15.6026 37.6752H4.86584V47.0597H15.6026V37.6752Z" fill="#82BFAB"/>
<path d="M29.4865 37.6752H18.7488V47.0597H29.4865V37.6752Z" fill="#82BFAB"/>
<path d="M43.3683 37.6752H32.6316V47.0597H43.3683V37.6752Z" fill="#82BFAB"/>
<path d="M57.2523 37.6752H46.5145V47.0597H57.2523V37.6752Z" fill="#AAD4C8"/>
<path d="M71.1341 37.6752H60.3994V47.0597H71.1341V37.6752Z" fill="#82BFAB"/>
<path d="M15.6026 49.6551H4.86584V59.0386H15.6026V49.6551Z" fill="#82BFAB"/>
<path d="M29.4865 49.6551H18.7488V59.0386H29.4865V49.6551Z" fill="#AAD4C8"/>
<path d="M43.3683 49.6551H32.6316V59.0386H43.3683V49.6551Z" fill="#EBC565"/>
<path d="M57.2523 49.6551H46.5145V59.0386H57.2523V49.6551Z" fill="#82BFAB"/>
</g>
<defs>
<clipPath id="clip0_101_330">
<rect width="75" height="65" fill="white" transform="translate(0.5)"/>
</clipPath>
</defs>
</svg>
